<svg xmlns="http://www.w3.org/2000/svg" width="50" height="35.758" viewBox="0 0 50 35.758">
  <g id="dck" transform="translate(-1 -10.4)">
    <path id="Path_209" data-name="Path 209" d="M9.258,26.915h1.818V37.673H8.121a.716.716,0,0,0-.758.758v2.727a5.044,5.044,0,0,0,5,5H18.2a5.044,5.044,0,0,0,5-5V38.43a.716.716,0,0,0-.758-.758H19.485V26.915H29.939a.716.716,0,0,0,.758-.758V23.43h3.561A4.268,4.268,0,0,0,38.5,19.642H50.242a.758.758,0,1,0,0-1.515H38.424a4.268,4.268,0,0,0-4.242-3.788H30.621V11.158a.716.716,0,0,0-.758-.758H9.258a8.258,8.258,0,0,0,0,16.515ZM21.606,41.158a3.525,3.525,0,0,1-3.485,3.485H12.364a3.525,3.525,0,0,1-3.485-3.485v-1.97h12.8v1.97Zm-3.712-3.485h-5.3V26.915h5.3ZM34.182,15.855a2.716,2.716,0,0,1,2.727,2.727v.606a2.716,2.716,0,0,1-2.727,2.727H30.621V15.855ZM9.258,11.915H29.106V25.4H9.258a6.742,6.742,0,1,1,0-13.485Z" fill="#3d3935"/>
    <path id="Path_210" data-name="Path 210" d="M7.7,19.7h9.8a1,1,0,0,0,0-2H7.7a1,1,0,0,0,0,2Zm0,5.3h9.8a1,1,0,0,0,0-2H7.7a1,1,0,0,0,0,2Z" transform="translate(0 -2.093)" fill="#3d3935"/>
  </g>
</svg>
