<svg xmlns="http://www.w3.org/2000/svg" width="43.142" height="40.145" viewBox="0 0 43.142 40.145">
  <g id="Group_149" data-name="Group 149" transform="translate(-617 -1543.644)">
    <path id="Path_147" data-name="Path 147" d="M187.78,200.176v26.04a.521.521,0,0,0,.539.5h39.763a.521.521,0,0,0,.539-.5V200.055a3.232,3.232,0,0,0,1.08-2.409l-1.079-10.619a.525.525,0,0,0-.536-.454H188.178a.526.526,0,0,0-.536.454l-.987,9.732v0h0l-.094.932a3.2,3.2,0,0,0,1.219,2.483Zm-.095-2.914h4.885v.43a2.475,2.475,0,0,1-4.933.048Zm34.933.43a2.472,2.472,0,0,1-4.931,0v-.43h4.931Zm-28.968-.43h4.931v.43a2.472,2.472,0,0,1-4.931,0Zm6.009,0h4.931v.43a2.472,2.472,0,0,1-4.931,0Zm10.94.43a2.471,2.471,0,0,1-4.93,0v-.43h4.93Zm-10.2,2.878a3.725,3.725,0,0,0,1.724.419,3.607,3.607,0,0,0,3.005-1.558,3.688,3.688,0,0,0,5.768.318v22.4H200.4Zm11.277-2.878v-.43h4.931v.43a2.472,2.472,0,0,1-4.931,0Zm0-1.434v-8.683h4.931v8.683Zm-1.079,0h-4.93v-8.683h4.93Zm-6.009,0H199.66v-8.683h4.931Zm-6.01,0H193.65v-8.683h4.931Zm-8.475,4.732a3.607,3.607,0,0,0,3.005-1.558,3.677,3.677,0,0,0,6.009,0c.063.093.13.183.2.27v22.452H188.86v-21.38a3.746,3.746,0,0,0,1.246.214Zm-1.246,22.169H210.9v2.555H188.86Zm23.116,2.555V214.3h15.567v11.416Zm15.567-12.42H211.976v-13a3.693,3.693,0,0,0,2.167.694,3.6,3.6,0,0,0,3-1.558,3.677,3.677,0,0,0,6.009,0,3.607,3.607,0,0,0,3.005,1.558,3.736,3.736,0,0,0,1.382-.262Zm-1.382-13.307a2.387,2.387,0,0,1-2.466-2.294v-.43h4.887l.044.43a2.388,2.388,0,0,1-2.466,2.294Zm1.435-12.411.884,8.683H223.7v-8.683Zm-4.979,8.683h-4.931v-8.683h4.931Zm-33.948-8.683h3.9v8.683h-4.783Z" transform="translate(430.439 1357.071)" fill="#3d3935"/>
    <path id="Path_148" data-name="Path 148" d="M225.595,441.225h5.436a.521.521,0,0,0,.539-.5v-5.058a.521.521,0,0,0-.539-.5h-5.436a.521.521,0,0,0-.539.5v5.058A.521.521,0,0,0,225.595,441.225Zm.539-5.058h4.357v4.054h-4.357Z" transform="translate(396.328 1134.822)" fill="#3d3935"/>
    <path id="Path_149" data-name="Path 149" d="M225.591,358.433h5.436a.521.521,0,0,0,.539-.5v-3.594a3.266,3.266,0,0,0-6.514,0v3.594a.522.522,0,0,0,.54.5Zm.539-4.1a2.184,2.184,0,0,1,4.357,0v3.092H226.13Z" transform="translate(396.331 1209.793)" fill="#3d3935"/>
    <path id="Path_150" data-name="Path 150" d="M330.426,435.16h-5.436a.521.521,0,0,0-.539.5v5.058a.521.521,0,0,0,.539.5h5.436a.521.521,0,0,0,.539-.5v-5.058A.521.521,0,0,0,330.426,435.16Zm-.54,5.058H325.53v-4.054h4.357Z" transform="translate(308.25 1134.825)" fill="#3d3935"/>
    <path id="Path_151" data-name="Path 151" d="M432.081,466.41h-3.705a.521.521,0,0,0-.539.5v6.675a.521.521,0,0,0,.539.5h3.705a.521.521,0,0,0,.539-.5v-6.675A.521.521,0,0,0,432.081,466.41Zm-.54,6.675h-2.627v-5.671h2.627Z" transform="translate(216.638 1106.887)" fill="#3d3935"/>
    <path id="Path_152" data-name="Path 152" d="M490.937,466.41h-3.706a.521.521,0,0,0-.539.5v6.675a.521.521,0,0,0,.539.5h3.706a.521.521,0,0,0,.539-.5v-6.675A.521.521,0,0,0,490.937,466.41Zm-.539,6.675H487.77v-5.671H490.4Z" transform="translate(164.484 1106.887)" fill="#3d3935"/>
    <path id="Path_153" data-name="Path 153" d="M327.7,351.31a3.154,3.154,0,0,0-3.257,3.031v3.594a.521.521,0,0,0,.539.5h5.436a.521.521,0,0,0,.539-.5v-3.594a3.153,3.153,0,0,0-3.257-3.031Zm2.179,6.123h-4.357v-3.092a2.184,2.184,0,0,1,4.357,0Z" transform="translate(308.253 1209.79)" fill="#3d3935"/>
  </g>
</svg>
