<svg id="Layer_1" data-name="Layer 1" xmlns="http://www.w3.org/2000/svg" viewBox="0 0 100 100"><defs><style>.cls-1{fill:none;stroke:#000;stroke-linecap:round;stroke-miterlimit:10;stroke-width:5px;}</style></defs><path class="cls-1" d="M15.71,62.35C32,53,39.62,42.6,43.5,34.39c3.56-7.53,6.1-17.66,8.75-17.32,2.12.27,1.53,6.91,6.69,13,1,1.2,3.63,2.76,8.57,6.18a18.42,18.42,0,0,1,4.12,3.6c1.76,2.14,1.58,3,2.75,4.46,2.82,3.47,6.81,1.83,8.74,4.12,2.73,3.22.34,13-5.66,16.29-7.44,4.1-14.65-5-23.84-2.4-4.76,1.34-10.6,6-15.09,20.58"/><circle cx="61.34" cy="42.45" r="3"/><path d="M78,33.09a2.43,2.43,0,0,0,3.38,0C85,29.59,91,23.72,92.59,17.53c1.41-5.45-9.07-12.47-12.87.77-3.79-13.24-14.28-6.22-12.87-.77C68.45,23.72,74.41,29.59,78,33.09Z"/></svg>