<svg id="Layer_1" data-name="Layer 1" xmlns="http://www.w3.org/2000/svg" viewBox="0 0 100 100"><path d="M23.1,68.67c-.29-.16-.59-.3-.87-.47L8.06,59.85a1.37,1.37,0,0,1-.73-1.28V42.32l.23.11,5.57,3.25q4.21,2.45,8.42,4.9l.17.09a.36.36,0,0,1,.19.35v.19q0,6,0,12a1.22,1.22,0,0,0,0,.27.55.55,0,0,0,.27.36l.85.47a.64.64,0,0,0,.63,0l.83-.46a.56.56,0,0,0,.3-.5V49.5a.6.6,0,0,0-.33-.57l-2.19-1.27L8.41,39.57l-.21-.12c0-.09.13-.11.2-.15l4-2.16q5.16-2.8,10.31-5.62a1.36,1.36,0,0,1,1.06-.14,1.47,1.47,0,0,1,.34.15l14,7.61.52.29-.21.13c-3.31,1.93-6.61,3.86-9.93,5.78a.85.85,0,0,0-.52.91,4.38,4.38,0,0,1,0,.63.7.7,0,0,0,.36.64l.71.42a.65.65,0,0,0,.73,0l4-2.33,5.45-3.17.23-.13V57.08c0,.5,0,1,0,1.52a1.32,1.32,0,0,1-.73,1.25L32.1,63.72l-8,4.71c-.15.09-.31.16-.46.24Z"/><path d="M92.67,58.8c-.41.09-.82.2-1.23.28a23.39,23.39,0,0,1-4.87.34,9,9,0,0,1-3.38-.74,6,6,0,0,1-3.62-4.49,8.18,8.18,0,0,1,.17-4.25,6.28,6.28,0,0,1,4.75-4.42,8.69,8.69,0,0,1,3.83-.05c.23.05.46.14.73.22,0-.69,0-1.38,0-2.06V39.46l.26,0h3.35Zm-3.61-2.61v-7a.75.75,0,0,1,0-.15.13.13,0,0,0-.1-.14l-.19-.08a5.5,5.5,0,0,0-3-.2,3.18,3.18,0,0,0-2.57,2.47,4.93,4.93,0,0,0,0,2.5,3.42,3.42,0,0,0,1.85,2.31,4.55,4.55,0,0,0,1.08.35,7.87,7.87,0,0,0,2,.07C88.45,56.28,88.74,56.23,89.06,56.19Z"/><path d="M59.11,45.69V39.46h3.61a.88.88,0,0,1,0,.16V58.5c0,.36,0,.29-.3.38a23.07,23.07,0,0,1-5.82.54,8.85,8.85,0,0,1-3.4-.75,6,6,0,0,1-3.61-4.5,8.24,8.24,0,0,1,.22-4.35,6.26,6.26,0,0,1,4.71-4.3,8.69,8.69,0,0,1,3.83-.05C58.61,45.52,58.84,45.61,59.11,45.69Zm0,10.5v-7c0-.29,0-.3-.28-.4a5.47,5.47,0,0,0-3-.2,3.17,3.17,0,0,0-2.58,2.46,5,5,0,0,0,0,2.62,3.43,3.43,0,0,0,1.37,1.94,4.35,4.35,0,0,0,1.33.57,7.26,7.26,0,0,0,2.23.1C58.51,56.27,58.79,56.23,59.1,56.19Z"/><path d="M70.49,59.42V56.29l.86-.1a3.57,3.57,0,0,0,2.53-1.58,3.94,3.94,0,0,0,.55-1.56,4.68,4.68,0,0,0-.08-2,3.22,3.22,0,0,0-2.58-2.41,5.43,5.43,0,0,0-2-.06c-.33,0-.66.11-1,.18a1.72,1.72,0,0,0-.29.11V64.6H64.86c0-.16-.07-17.72,0-18.19l.31-.13a16.08,16.08,0,0,1,3.56-.86,14.44,14.44,0,0,1,2.63-.11,8.19,8.19,0,0,1,3.5.9A5.92,5.92,0,0,1,78,50.51a9,9,0,0,1-.2,4.24,6.07,6.07,0,0,1-4,4.21,9.46,9.46,0,0,1-3.17.48Z"/></svg>