<svg xmlns="http://www.w3.org/2000/svg" width="34.484" height="48.999" viewBox="0 0 34.484 48.999">
  <path id="girl" d="M40.53,9.593a15.741,15.741,0,0,0-12.5-3.968c-7.878,1-14.25,8.248-15.15,17.233a21.833,21.833,0,0,0,2.471,12.685A10.481,10.481,0,0,1,14.859,46a10.7,10.7,0,0,0-1.975,6.209V54a.5.5,0,0,0,.5.5H46.147a.5.5,0,0,0,.5-.5V52.208a10.712,10.712,0,0,0-1.9-6.1c-.007-.013-.008-.027-.016-.039a10.5,10.5,0,0,1-.072-10.52,21.724,21.724,0,0,0,2.587-10.369A20.642,20.642,0,0,0,40.53,9.593ZM45.647,53.5H13.884V52.208a9.706,9.706,0,0,1,1.738-5.561c.01-.012.025-.018.034-.031s.022-.042.035-.062A9.689,9.689,0,0,1,23.68,42.43a2.371,2.371,0,0,0,2.359-2.377V35.679a10.107,10.107,0,0,0,7.453,0v4.37a2.38,2.38,0,0,0,2.377,2.377,9.79,9.79,0,0,1,9.778,9.778V53.5ZM29.77,35.393c-6,0-10.876-5.793-10.9-12.926.393-1.542,1.4-1.782,3.793-2.215a31.261,31.261,0,0,0,3.9-.9,6.2,6.2,0,0,0,3.9-4.178,11.373,11.373,0,0,0,5.317,4.744c1.108.439,2,.742,2.724.985,1.925.65,2.17.776,2.17,1.5C40.673,29.567,35.782,35.393,29.77,35.393Zm14.006-.326a11.922,11.922,0,0,0-1.121,8.779,10.724,10.724,0,0,0-6.787-2.416,1.379,1.379,0,0,1-1.377-1.377V35.239c4.22-2.152,7.181-7.092,7.181-12.833,0-1.486-.953-1.808-2.851-2.449-.708-.239-1.59-.537-2.674-.968a11.078,11.078,0,0,1-5.4-5.4.5.5,0,0,0-.956.131c-.005.037-.527,3.749-3.531,4.681a30.02,30.02,0,0,1-3.782.87c-2.353.425-4.052.731-4.6,3.021a.505.505,0,0,0-.014.117c0,5.737,2.957,10.673,7.172,12.828v4.819A1.37,1.37,0,0,1,23.68,41.43a10.762,10.762,0,0,0-6.69,2.325,11.408,11.408,0,0,0-.766-8.689A20.837,20.837,0,0,1,13.87,22.958c.854-8.526,6.86-15.4,14.281-16.341a14.75,14.75,0,0,1,11.718,3.726,19.644,19.644,0,0,1,6.373,14.833A20.724,20.724,0,0,1,43.776,35.066Z" transform="translate(-12.757 -5.501)" fill="#3d3935"/>
</svg>
