<svg xmlns="http://www.w3.org/2000/svg" width="52" height="51.107" viewBox="0 0 52 51.107">
  <g id="homeware" transform="translate(-3 -5)">
    <rect id="Rectangle_97" data-name="Rectangle 97" width="30" height="37" rx="2" transform="translate(4 18.107)" fill="none" stroke="#3d3935" stroke-linecap="round" stroke-miterlimit="10" stroke-width="2"/>
    <line id="Line_1" data-name="Line 1" x2="30" transform="translate(4 30.107)" fill="none" stroke="#3d3935" stroke-linecap="round" stroke-miterlimit="10" stroke-width="2"/>
    <line id="Line_2" data-name="Line 2" x2="30" transform="translate(4 38.143)" fill="none" stroke="#3d3935" stroke-linecap="round" stroke-miterlimit="10" stroke-width="2"/>
    <line id="Line_3" data-name="Line 3" x2="3" transform="translate(15.972 24.75)" fill="none" stroke="#3d3935" stroke-linecap="round" stroke-miterlimit="10" stroke-width="2"/>
    <line id="Line_4" data-name="Line 4" x2="3" transform="translate(15.972 32.786)" fill="none" stroke="#3d3935" stroke-linecap="round" stroke-miterlimit="10" stroke-width="2"/>
    <line id="Line_5" data-name="Line 5" x2="3" transform="translate(15.972 40.821)" fill="none" stroke="#3d3935" stroke-linecap="round" stroke-miterlimit="10" stroke-width="2"/>
    <rect id="Rectangle_98" data-name="Rectangle 98" width="26" height="28" rx="2" transform="translate(28 27.107)" fill="none" stroke="#3d3935" stroke-linecap="round" stroke-miterlimit="10" stroke-width="2"/>
    <rect id="Rectangle_99" data-name="Rectangle 99" width="1" height="12" transform="translate(32.509 18.081)" fill="none" stroke="#3d3935" stroke-miterlimit="10" stroke-width="2"/>
    <rect id="Rectangle_100" data-name="Rectangle 100" width="1" height="9" transform="translate(35.182 20.822)" fill="none" stroke="#3d3935" stroke-miterlimit="10" stroke-width="2"/>
    <rect id="Rectangle_101" data-name="Rectangle 101" width="1" height="7" transform="translate(37.514 23.048) rotate(-20.11)" fill="none" stroke="#3d3935" stroke-miterlimit="10" stroke-width="2"/>
    <line id="Line_6" data-name="Line 6" x2="26" transform="translate(28 33.679)" fill="none" stroke="#3d3935" stroke-miterlimit="10" stroke-width="2"/>
    <path id="Path_211" data-name="Path 211" d="M51,26h5v3.5A2.5,2.5,0,0,1,53.5,32h0A2.5,2.5,0,0,1,51,29.5Zm4-1V23.5A1.5,1.5,0,0,0,53.5,22h0A1.5,1.5,0,0,0,52,23.5V25" transform="translate(-6 -2.095)" fill="none" stroke="#3d3935" stroke-miterlimit="10" stroke-width="2"/>
    <line id="Line_7" data-name="Line 7" y1="2" transform="translate(47.5 18.443)" fill="none" stroke="#3d3935" stroke-linecap="round" stroke-miterlimit="10" stroke-width="1"/>
    <line id="Line_8" data-name="Line 8" x1="1.21" y1="1.21" transform="translate(45 19.357)" fill="none" stroke="#3d3935" stroke-linecap="round" stroke-miterlimit="10" stroke-width="1"/>
    <line id="Line_9" data-name="Line 9" y1="1.21" x2="1.21" transform="translate(48.79 19.357)" fill="none" stroke="#3d3935" stroke-linecap="round" stroke-miterlimit="10" stroke-width="1"/>
    <path id="Path_212" data-name="Path 212" d="M11,22,5,14,15,6l2,3" fill="none" stroke="#3d3935" stroke-linecap="round" stroke-linejoin="round" stroke-width="2"/>
    <line id="Line_10" data-name="Line 10" x2="6" transform="translate(8 20.286)" fill="none" stroke="#3d3935" stroke-linecap="round" stroke-linejoin="round" stroke-width="2"/>
    <path id="Path_213" data-name="Path 213" d="M17,9h0a3,3,0,0,1,3,3v2H14V12A3,3,0,0,1,17,9Z" transform="translate(-1.2)" fill="none" stroke="#3d3935" stroke-linecap="round" stroke-linejoin="round" stroke-width="2"/>
    <line id="Line_11" data-name="Line 11" y2="3" transform="translate(50 37.034)" fill="none" stroke="#3d3935" stroke-linecap="round" stroke-miterlimit="10" stroke-width="2"/>
  </g>
</svg>
