<svg xmlns="http://www.w3.org/2000/svg" width="38.169" height="49.983" viewBox="0 0 38.169 49.983">
  <path id="Khost" d="M39.448,32.276l-5.619.708a96.381,96.381,0,0,1-23.871,0l-5.619-.708a1.041,1.041,0,0,0-1.186,1.041v4.558a1.041,1.041,0,0,0,1.041,1.041c5.515,0,14.319,4.579,14.319,10.011a1.041,1.041,0,0,0,1.041,1.041h4.683a1.041,1.041,0,0,0,1.041-1.041c0-5.432,8.783-10.011,14.319-10.011a1.041,1.041,0,0,0,1.041-1.041V33.317a1.041,1.041,0,0,0-1.165-1.041Zm-.916,4.6c-6.077.479-14.4,4.995-15.276,11.01H20.509c-.874-6.036-9.2-10.531-15.276-11.01V34.5l4.454.562a98.483,98.483,0,0,0,24.392,0l4.454-.562ZM9.4,27.677h.416a17.357,17.357,0,0,0,9.532-3.7h4.995a17.357,17.357,0,0,0,9.532,3.7h.5a5.141,5.141,0,0,0,4.162-1.936,11.717,11.717,0,0,0,2.5-7.18,11.842,11.842,0,0,0-2.664-7.409h0L28.688.372a1.041,1.041,0,1,0-1.561,1.374l7.409,8.325c-4.7,1.956-9.3,8.679-10.573,11.8H19.655c-1.249-3.018-5.661-9.8-10.406-11.7l7.43-8.325A1.105,1.105,0,1,0,15.035.372L5.566,11.111h0A11.842,11.842,0,0,0,2.86,18.561a11.717,11.717,0,0,0,2.5,7.18A5.161,5.161,0,0,0,9.4,27.677ZM35.327,12.089a1.082,1.082,0,0,1,1.228.354,9.782,9.782,0,0,1,2.206,6.119,9.636,9.636,0,0,1-2.081,5.911A3.018,3.018,0,0,1,34.016,25.6a15.4,15.4,0,0,1-7.971-2.976C27.044,20.538,30.686,13.9,35.327,12.089ZM7.147,12.5h0a1.124,1.124,0,0,1,.874-.416.978.978,0,0,1,.354,0c4.475,1.727,8.221,8.2,9.345,10.531A15.4,15.4,0,0,1,9.645,25.6a3.059,3.059,0,0,1-2.664-1.124A9.657,9.657,0,0,1,4.9,18.561,9.8,9.8,0,0,1,7.147,12.5Z" transform="translate(-2.86 0.016)" fill="#3d3935"/>
</svg>
