<svg xmlns="http://www.w3.org/2000/svg" width="52.544" height="45.047" viewBox="0 0 52.544 45.047">
  <g id="kids" transform="translate(-164.72 -194.858)">
    <path id="Path_139" data-name="Path 139" d="M385.26,328.85v0h0Z" transform="translate(-193.117 -117.331)" fill="#3d3935"/>
    <path id="Path_140" data-name="Path 140" d="M210.225,276.222l6.343-8.453a3.589,3.589,0,0,0,.7-2.159,3.653,3.653,0,0,0-1.007-2.556l-.016-.016-.025-.027.022.023a3.429,3.429,0,0,0-4.64-.191h0l-5.541,4.789a9.594,9.594,0,0,1-1.377.995,4.6,4.6,0,0,1-.54.275,1.251,1.251,0,0,1-.153.053l-.013,0h-4.027a1.461,1.461,0,0,1-.261-.112,7.46,7.46,0,0,1-1.671-1.308l-4.794-4.914a3.18,3.18,0,0,0-4.557,0l-4.825,4.921a8.6,8.6,0,0,1-1.275,1.074,3.734,3.734,0,0,1-.5.292.982.982,0,0,1-.127.051h-4.1a1.782,1.782,0,0,1-.25-.1,9.135,9.135,0,0,1-1.754-1.229l-5.484-4.806a3.367,3.367,0,0,0-4.619.207l-.017.018a3.743,3.743,0,0,0-.992,2.577,3.673,3.673,0,0,0,.678,2.16l5.687,7.809a11.064,11.064,0,0,1,.9,1.472,5.309,5.309,0,0,1,.255.578,1.457,1.457,0,0,1,.053.174l.006.031c0,.509.033,1.925.074,3.215l.442,14.134a3.565,3.565,0,0,0,.84,2.211,2.75,2.75,0,0,0,2.071,1h8.5a2.7,2.7,0,0,0,2.046-1.006,3.6,3.6,0,0,0,.82-2.2l.442-14.173c.04-1.3.074-2.75.074-3.264a2.007,2.007,0,0,1,.072-.33,12.323,12.323,0,0,1,.939-2.213l.732-1.359c.3-.55.637-1.129.94-1.606.152-.239.294-.452.414-.621.1-.137.183-.244.23-.3.039.052.088.116.14.189.346.482.9,1.35,1.365,2.168l1.226,2.138a6.975,6.975,0,0,1,.563,1.26,3.333,3.333,0,0,1,.194.934l0,.065c-.1.286-.265.763-.452,1.334s-.4,1.255-.6,1.879l-1.5,4.88c-.144.468-.258.9-.339,1.287a5.137,5.137,0,0,0-.134,1,1.406,1.406,0,0,0,.064.443.975.975,0,0,0,.232.383.934.934,0,0,0,.29.2.924.924,0,0,0,.374.079H195.6a6.224,6.224,0,0,1,.154,1.472v4.122a4.028,4.028,0,0,0,.575,2.136,2.6,2.6,0,0,0,.728.767,1.921,1.921,0,0,0,1.071.336H205.3a2.187,2.187,0,0,0,1.11-.307,2.866,2.866,0,0,0,1.1-1.228,3.871,3.871,0,0,0,.383-1.7v-4.122a6.753,6.753,0,0,1,.14-1.461s0-.008,0-.012h3.1a.93.93,0,0,0,.795-.447,1.066,1.066,0,0,0,.144-.4,1.651,1.651,0,0,0,.019-.258,5.2,5.2,0,0,0-.132-1c-.08-.382-.192-.821-.334-1.29l-2-6.6a3.185,3.185,0,0,1-.117-.9,4.965,4.965,0,0,1,.2-1.362,3.463,3.463,0,0,1,.511-1.086Zm-15.791,1.839v0S194.434,278.06,194.434,278.061Zm1.085,11.259,13.294-14.158a5.2,5.2,0,0,0-.8,1.654,6.723,6.723,0,0,0-.269,1.857,4.938,4.938,0,0,0,.192,1.412l2,6.6c.125.414.224.8.29,1.117h-2.661a1.058,1.058,0,0,0-.693.266,1.322,1.322,0,0,0-.269.33,2.415,2.415,0,0,0-.23.55,7.791,7.791,0,0,0-.247,2.094v4.122a1.978,1.978,0,0,1-.333,1.145.932.932,0,0,1-.274.263.426.426,0,0,1-.217.064H202.63v-7.655a.884.884,0,1,0-1.767,0v7.655h-2.735c-.012,0-.03,0-.086-.036a1.087,1.087,0,0,1-.336-.47,2.494,2.494,0,0,1-.184-.967v-4.122a8.03,8.03,0,0,0-.2-1.877,2.811,2.811,0,0,0-.281-.739,1.4,1.4,0,0,0-.308-.372,1.074,1.074,0,0,0-.681-.251h-2.779c.068-.314.167-.7.293-1.109l1.5-4.88c.188-.614.4-1.278.587-1.852s.351-1.059.437-1.292v0a1.882,1.882,0,0,0,.1-.652,4.958,4.958,0,0,0-.283-1.486,8.711,8.711,0,0,0-.709-1.586l-1.226-2.138c-.332-.577-.693-1.165-1.014-1.658-.161-.247-.311-.469-.447-.658a5.12,5.12,0,0,0-.371-.473,1.572,1.572,0,0,0-1.167-.509,1.793,1.793,0,0,0-1.3.579,5.038,5.038,0,0,0-.408.516,24.984,24.984,0,0,0-1.47,2.413l-.732,1.359a15.639,15.639,0,0,0-.837,1.832,8.507,8.507,0,0,0-.267.81,2.951,2.951,0,0,0-.118.736c0,.459-.033,1.925-.072,3.211l-.443,14.173a1.841,1.841,0,0,1-.405,1.121.933.933,0,0,1-.7.377h-3.39V288.98a.884.884,0,0,0-1.767,0v7.656h-3.346a.983.983,0,0,1-.732-.385,1.8,1.8,0,0,1-.412-1.114L174.142,281c-.04-1.286-.074-2.738-.074-3.178a1.8,1.8,0,0,0-.051-.408,5.974,5.974,0,0,0-.558-1.359,13.051,13.051,0,0,0-.947-1.51l-5.686-7.809a1.922,1.922,0,0,1-.339-1.12,1.988,1.988,0,0,1,.5-1.358l.018-.019a1.6,1.6,0,0,1,2.175-.1l5.485,4.807a12.071,12.071,0,0,0,1.6,1.187,6.142,6.142,0,0,0,.735.39,2.879,2.879,0,0,0,.36.131,1.6,1.6,0,0,0,.43.064h4.187a1.623,1.623,0,0,0,.452-.07,3.3,3.3,0,0,0,.651-.286,9.576,9.576,0,0,0,2.015-1.59l4.825-4.923a1.417,1.417,0,0,1,2.032,0l4.794,4.914a10.013,10.013,0,0,0,1.564,1.309,5.424,5.424,0,0,0,.76.432,2.832,2.832,0,0,0,.385.144,1.686,1.686,0,0,0,.453.067H204a1.722,1.722,0,0,0,.43-.06,5.288,5.288,0,0,0,1.341-.635,11.52,11.52,0,0,0,1.439-1.062l5.541-4.789h0a1.6,1.6,0,0,1,1.055-.38,1.626,1.626,0,0,1,1.165.473l.02.022a1.9,1.9,0,0,1,.5,1.317,1.835,1.835,0,0,1-.344,1.1Z" transform="translate(0 -58.495)" fill="#3d3935"/>
    <path id="Path_141" data-name="Path 141" d="M239.571,208.4a6.772,6.772,0,1,0-6.772-6.772A6.771,6.771,0,0,0,239.571,208.4Zm0-11.778a5.005,5.005,0,1,1-5.005,5.005A5.011,5.011,0,0,1,239.571,196.624Z" transform="translate(-59.614)" fill="#3d3935"/>
    <path id="Path_142" data-name="Path 142" d="M281.579,374.008a.883.883,0,1,1-.883-.884.883.883,0,0,1,.883.884" transform="translate(-100.781 -156.1)" fill="#3d3935"/>
    <path id="Path_143" data-name="Path 143" d="M281.579,407.161a.883.883,0,1,1-.883-.883.883.883,0,0,1,.883.883" transform="translate(-100.781 -185.131)" fill="#3d3935"/>
    <path id="Path_144" data-name="Path 144" d="M456.81,374.008a.883.883,0,1,1-.884-.884.883.883,0,0,1,.884.884" transform="translate(-254.222 -156.1)" fill="#3d3935"/>
    <path id="Path_145" data-name="Path 145" d="M456.81,407.161a.883.883,0,1,1-.884-.883.884.884,0,0,1,.884.883" transform="translate(-254.222 -185.131)" fill="#3d3935"/>
    <path id="Path_146" data-name="Path 146" d="M362.64,200.674a7.074,7.074,0,0,0,3.252.843,5.364,5.364,0,0,0,1.8-.3c.1-.036.188-.083.282-.123-.014.18-.027.359-.027.543a6.772,6.772,0,1,0,13.544,0c0-.2-.013-.388-.03-.578.119.053.232.114.358.159a5.366,5.366,0,0,0,1.8.3,7.074,7.074,0,0,0,3.252-.843.731.731,0,0,0,.3-.851,6.585,6.585,0,0,0-3.583-3.6,5.355,5.355,0,0,0-1.8-.3,7.026,7.026,0,0,0-2.681.568,6.756,6.756,0,0,0-8.763-.022,7.025,7.025,0,0,0-2.63-.546,5.354,5.354,0,0,0-1.8.3,6.585,6.585,0,0,0-3.583,3.6.73.73,0,0,0,.3.85Zm19.153-2.988a3.59,3.59,0,0,1,1.208.2,4.258,4.258,0,0,1,2.015,1.651,4.967,4.967,0,0,1-1.4.213,3.6,3.6,0,0,1-1.21-.2,4.255,4.255,0,0,1-2.014-1.65A4.961,4.961,0,0,1,381.793,197.686Zm-7.075-1.056a5.005,5.005,0,1,1-5.005,5.005A5.011,5.011,0,0,1,374.718,196.63Zm-8.207,1.256a3.587,3.587,0,0,1,1.208-.2,4.894,4.894,0,0,1,1.359.2c-.066.1-.125.2-.185.307a4.066,4.066,0,0,1-1.791,1.354,3.592,3.592,0,0,1-1.209.2,4.964,4.964,0,0,1-1.4-.213,4.237,4.237,0,0,1,2.013-1.652Z" transform="translate(-173.009 -0.005)" fill="#3d3935"/>
  </g>
</svg>
