<svg xmlns="http://www.w3.org/2000/svg" width="49.826" height="24.543" viewBox="0 0 49.826 24.543">
  <path id="Lloyds_Shoes_Womens" data-name="Lloyds Shoes Womens" d="M49.839,149.61l-.416-1.576a4.781,4.781,0,0,0-4.8-4.9c-4-.035-7.78-.068-10.8-2.23a38.14,38.14,0,0,1-8.511-8.028,1.833,1.833,0,0,0-1.854-.732l-1.191-1.509a1.578,1.578,0,0,0-2.688.117,6.316,6.316,0,0,0-.81,4.033A13.819,13.819,0,0,1,4.8,133.651,2.245,2.245,0,0,0,1.5,134.7a16.454,16.454,0,0,0-.587,11.773c.011,2.612.014,4.46.016,5.761a2.189,2.189,0,0,0,2.188,2.182H13.5a2.191,2.191,0,0,0,2.188-2.189v-.695a78.469,78.469,0,0,1,8.078,1.985c3.3.991,8.141,1.074,11.583.9a55.045,55.045,0,0,0,13.012-2.146A2.187,2.187,0,0,0,49.839,149.61Zm-5.22-5.437a3.768,3.768,0,0,1,3.772,3.519h0c-7.922,2.732-18.921,2.994-23.6,1.6-.9-.272-1.8-.522-2.7-.763a79.082,79.082,0,0,0-8.246-1.747c2.246-3.867,5.553-5.139,10.626-4.112a7.324,7.324,0,0,0,6.762-2.438c.63.5,1.293,1,2,1.516C36.51,144.1,40.633,144.138,44.619,144.173ZM20.48,131.278c.247-.419.676-.378.979,0l1.05,1.331a23.623,23.623,0,0,1-2.726,1.683A5.251,5.251,0,0,1,20.48,131.278Zm-18.015,3.8a1.207,1.207,0,0,1,1.776-.553c6.232,3.981,12.479,3.58,19.1-1.227a.811.811,0,0,1,1.137.184,33.747,33.747,0,0,0,5.933,6.1,6.087,6.087,0,0,1-5.74,2.072c-5.662-1.146-9.463.43-11.933,4.962a74.083,74.083,0,0,0-10.929-.745A15.525,15.525,0,0,1,2.465,135.08Zm45.593,16.193a53.973,53.973,0,0,1-12.759,2.1c-3.311.171-8.06.1-11.232-.855a77.87,77.87,0,0,0-8.9-2.134.519.519,0,0,0-.519.519v1.318a1.152,1.152,0,0,1-1.15,1.15H3.117a1.15,1.15,0,0,1-1.15-1.145c0-1.223,0-2.93-.014-5.3,3.825.212,9.48-.168,19.862,2.6a31.958,31.958,0,0,0,6.2,1.415c.054,0,10.594,1.159,20.523-2.2l.3,1.132A1.152,1.152,0,0,1,48.058,151.274Z" transform="translate(-0.087 -129.942)" fill="#3d3935"/>
</svg>
