<svg xmlns="http://www.w3.org/2000/svg" width="121.332" height="38.051" viewBox="0 0 121.332 38.051">
  <g id="Group_150" data-name="Group 150" transform="translate(-40 -42)">
    <path id="Path_31" data-name="Path 31" d="M7.744-854.987c0,.013-1.74,8.394-3.872,18.629S0-817.719,0-817.683c0,.058.16.067,1.13.067,1.041,0,1.135,0,1.157-.08.013-.04,1.429-6.876,3.142-15.185s3.133-15.14,3.146-15.176.049-.009.1.111c.045.1,2.884,7.112,6.306,15.585l6.222,15.412.258-.009.263-.013L28-832.436c3.445-8.5,6.293-15.514,6.32-15.576l.053-.111.036.111c.018.062,1.442,6.925,3.164,15.252L40.7-817.617H43l-.018-.1c-.013-.053-1.762-8.465-3.89-18.687L35.225-855H34.98l-.245,0L28.109-838.64c-3.645,8.994-6.644,16.338-6.662,16.32s-3-7.374-6.618-16.346L8.238-854.978l-.245-.013A.85.85,0,0,0,7.744-854.987Z" transform="translate(40 897)" fill="#535353"/>
    <path id="Path_32" data-name="Path 32" d="M1416.882-853.736a20.018,20.018,0,0,0-4.664.948,18.981,18.981,0,0,0-4.682,2.3,19.1,19.1,0,0,0-8.206,12.35,19.012,19.012,0,0,0-.116,5.9,19.269,19.269,0,0,0,10.214,14.126,19.451,19.451,0,0,0,6.676,2.083,27.768,27.768,0,0,0,4.3,0,18.632,18.632,0,0,0,5.9-1.749,19.537,19.537,0,0,0,3.805-2.372l.432-.338v-3.271l-.721.725c-.4.4-.957.9-1.237,1.117a18.716,18.716,0,0,1-8.79,3.658,17.8,17.8,0,0,1-3.115.027,17.045,17.045,0,0,1-5.594-1.7,17.263,17.263,0,0,1-8.02-7.828,15.348,15.348,0,0,1-1.5-4.762,11.5,11.5,0,0,1-.1-2.092,11.936,11.936,0,0,1,.1-2.136,17.254,17.254,0,0,1,3.9-8.7,16.861,16.861,0,0,1,10.837-5.964,16.582,16.582,0,0,1,12.172,3.689,19.893,19.893,0,0,1,1.882,1.829l.187.223V-849l-.187-.169a17.637,17.637,0,0,0-4.019-2.7,18.4,18.4,0,0,0-5.906-1.785C1419.953-853.723,1417.385-853.781,1416.882-853.736Z" transform="translate(-1295.773 895.808)" fill="#535353"/>
    <path id="Path_33" data-name="Path 33" d="M989.139-575.618a5.04,5.04,0,0,0-4.179,4.094c-.285,1.656.231,3.146,1.869,5.385a2.277,2.277,0,0,1,.347.561c-.018.022-.356.24-.748.49a16.7,16.7,0,0,0-5.114,4.473,6.786,6.786,0,0,0-1.17,4.126,6.591,6.591,0,0,0,7.365,6.306c2.221-.24,4.629-1.469,7.548-3.859l.441-.361,1.429,1.887,1.429,1.887h1.282c.7,0,1.277-.009,1.277-.022s-.854-1.157-1.9-2.537-1.9-2.541-1.909-2.568a17.943,17.943,0,0,1,1.362-1.3c.756-.685,1.451-1.322,1.54-1.415l.165-.165-.685-.708a9.9,9.9,0,0,0-.734-.712c-.022,0-.7.565-1.5,1.264s-1.478,1.268-1.5,1.268-5.252-7.085-5.4-7.325c-.018-.036.156-.187.472-.409a14.762,14.762,0,0,0,1.949-1.607,5.337,5.337,0,0,0,1.833-4.01,4.68,4.68,0,0,0-1.429-3.48,4.525,4.525,0,0,0-2.092-1.175A5.629,5.629,0,0,0,989.139-575.618Zm1.251,2.172a2.566,2.566,0,0,1,1.5,1.046,2.867,2.867,0,0,1-.062,3.235,8.03,8.03,0,0,1-2.163,1.972L989-566.7l-.561-.832a6.124,6.124,0,0,1-1.268-2.684,2.992,2.992,0,0,1,2.319-3.28A2.446,2.446,0,0,1,990.39-573.446Zm.943,13.418c1.513,2.052,2.768,3.752,2.786,3.783a19.147,19.147,0,0,1-2.773,2.181,9.359,9.359,0,0,1-4.152,1.74,4.3,4.3,0,0,1-4.584-3.173,4.705,4.705,0,0,1,.125-3.138,7.414,7.414,0,0,1,2.247-2.7c.405-.325,3.489-2.417,3.565-2.417C988.565-563.753,989.816-562.075,991.333-560.028Z" transform="translate(-895.518 630.097)" fill="#535353"/>
    <path id="Path_34" data-name="Path 34" d="M2136.494-566.8a12.7,12.7,0,0,0-11.771,10.054,10.044,10.044,0,0,0-.223,2.492,10.376,10.376,0,0,0,.579,3.765,12.013,12.013,0,0,0,3.022,4.9,11.923,11.923,0,0,0,3.369,2.439,13.025,13.025,0,0,0,3.868,1.237,10.481,10.481,0,0,0,2,.1,11.113,11.113,0,0,0,2.959-.272,13,13,0,0,0,5.741-2.826,12.184,12.184,0,0,0,4.206-8.109,19.632,19.632,0,0,0-.062-3.169,12.393,12.393,0,0,0-2.524-5.83,15.586,15.586,0,0,0-1.833-1.851,13.078,13.078,0,0,0-6.4-2.8,20.909,20.909,0,0,0-2.243-.169C2137.112-566.842,2136.8-566.824,2136.494-566.8Zm1.371,2.221a10.946,10.946,0,0,1,4.321,1.139,10,10,0,0,1,5.434,6.92,11.791,11.791,0,0,1,.156,3.587,10.044,10.044,0,0,1-3.636,6.511,10.95,10.95,0,0,1-5.839,2.363,12.825,12.825,0,0,1-2.969-.111,10,10,0,0,1-5.514-2.991,10.288,10.288,0,0,1-2.853-6.137,12.268,12.268,0,0,1,.093-2.644,10.4,10.4,0,0,1,4.917-7.245,10.025,10.025,0,0,1,4.428-1.389A6.965,6.965,0,0,1,2137.865-564.581Z" transform="translate(-1988.951 621.668)" fill="#535353"/>
  </g>
</svg>
