<svg xmlns="http://www.w3.org/2000/svg" width="48" height="48" viewBox="0 0 48 48">
  <path id="toys-volleyball" d="M51,27A24.093,24.093,0,0,0,43.883,9.952H43.8A23.709,23.709,0,0,0,27,3,24.017,24.017,0,0,0,3,27a23.543,23.543,0,0,0,7.2,17.048v.083h0A24.138,24.138,0,0,0,27,51a22.819,22.819,0,0,0,7.531-1.241h0A24.044,24.044,0,0,0,51,27ZM35.607,47.607c1.572-5.462,2.152-12,1.738-20.359a8.148,8.148,0,0,0,5.048-7.531V19.3c1.986.331,3.972.662,6.041.993a21.727,21.727,0,0,1,.993,6.621A22.576,22.576,0,0,1,35.607,47.607ZM27.662,19.8A6.538,6.538,0,1,1,34.2,26.338,6.552,6.552,0,0,1,27.662,19.8ZM47.69,18.559c-1.9-.331-3.807-.662-5.628-.91a7.649,7.649,0,0,0-1.738-3.228L43.3,11.69A23.74,23.74,0,0,1,47.69,18.559Zm-8.607-5.3a8.023,8.023,0,0,0-3.31-1.49c-.248-1.9-.5-3.724-.745-5.628a20.612,20.612,0,0,1,7.034,4.386ZM27,4.655a22.659,22.659,0,0,1,6.29.91c.248,1.986.579,4.055.828,6.041a8.091,8.091,0,0,0-7.283,4.634,68.882,68.882,0,0,0-20.524,2.4A22.344,22.344,0,0,1,27,4.655ZM5.566,20.545A68.774,68.774,0,0,1,26.172,17.9a6.893,6.893,0,0,0-.248,1.821,8,8,0,0,0,1.407,4.552A211.353,211.353,0,0,0,10.614,42.228,22.578,22.578,0,0,1,4.655,27,23.848,23.848,0,0,1,5.566,20.545Zm6.29,22.841A207.05,207.05,0,0,1,28.407,25.593a7.934,7.934,0,0,0,5.71,2.317,9.119,9.119,0,0,0,1.49-.166c.414,8.607-.248,15.145-1.986,20.524A21.726,21.726,0,0,1,27,49.262,21.546,21.546,0,0,1,11.855,43.386Z" transform="translate(-3 -3)" fill="#3d3935"/>
</svg>
