<svg xmlns="http://www.w3.org/2000/svg" width="48.326" height="43.599" viewBox="0 0 48.326 43.599">
  <path id="nightwear" d="M197.386,207.031l-8.072-31.279a3.162,3.162,0,0,0-1.881-2.139L180.889,171l-2.025-2.025a.524.524,0,0,0-.361-.153H167.977a.525.525,0,0,0-.362.153L165.59,171l-6.544,2.617a3.162,3.162,0,0,0-1.881,2.138l-8.072,31.28a.525.525,0,0,0,.364.636l7.354,2.1h0a.524.524,0,0,0,.648-.357l1.6-5.43v7.909a.525.525,0,0,0,.525.525H186.9a.525.525,0,0,0,.525-.525v-7.909l1.6,5.43a.524.524,0,0,0,.648.357l7.354-2.1h0a.526.526,0,0,0,.364-.636Zm-19.343-30.065.719,1.2h0a.975.975,0,0,1-.424,1.386l-5.07,2.366,5.386-11.67,1.488,1.488.965,2.573h0a.976.976,0,0,1-.646,1.281l-2.113.6a.525.525,0,0,0-.306.775Zm-9.567-.463a.526.526,0,0,0-.344-.312l-2.113-.6h0a.976.976,0,0,1-.646-1.281l.965-2.573,1.488-1.488,4.835,10.477-.356.77-4.163-1.943a.976.976,0,0,1-.424-1.386l.719-1.2a.525.525,0,0,0,.038-.463Zm.332-6.636h8.864l-4.432,9.6ZM156.6,208.615l-6.36-1.817.4-1.568,6.413,1.832Zm3.509-8.287V187.2a.525.525,0,1,0-1.05,0v13.057l-1.7,5.8-6.447-1.842,7.277-28.2h0a2.107,2.107,0,0,1,1.254-1.426l5.539-2.216-.587,1.565h0a2.026,2.026,0,0,0,1.341,2.66l1.454.416-.367.611a2.027,2.027,0,0,0,.88,2.879l4.167,1.945-.153.332,0,0h0a.5.5,0,0,0-.025.069l0,.01h0c-.005.021-.01.042-.013.063a.12.12,0,0,1,0,.012h0a.49.49,0,0,0,0,.061v28.365H160.108ZM186.9,186.676a.526.526,0,0,0-.525.525v24.164H172.714V183.334l6.067-2.831h0a2.027,2.027,0,0,0,.88-2.879l-.367-.611,1.455-.416h0a2.026,2.026,0,0,0,1.341-2.66l-.587-1.565,5.539,2.216h0a2.107,2.107,0,0,1,1.254,1.425l7.277,28.2-6.447,1.842-1.7-5.8V187.2a.525.525,0,0,0-.525-.525Zm2.983,21.939-.457-1.554,6.413-1.832.4,1.568ZM174.815,185.1a.525.525,0,1,1-.525-.525.525.525,0,0,1,.525.525Zm0,5.778h0a.525.525,0,1,1-.525-.525.525.525,0,0,1,.525.525Zm0,5.778h0a.525.525,0,1,1-.525-.525.526.526,0,0,1,.525.525Zm0,5.778h0a.525.525,0,1,1-.525-.525.526.526,0,0,1,.525.525Zm0,5.778h0a.525.525,0,1,1-.525-.525.525.525,0,0,1,.525.525Zm9.455-23.639h-6.3a.525.525,0,0,0-.525.525v6.3h0a.525.525,0,0,0,.234.437,5.759,5.759,0,0,0,6.886,0h0a.525.525,0,0,0,.234-.437v-6.3a.525.525,0,0,0-.525-.525Zm-.525,6.542a4.651,4.651,0,0,1-5.253,0v-5.491h5.253Z" transform="translate(-149.076 -168.817)" fill="#3d3935"/>
</svg>
