<svg xmlns="http://www.w3.org/2000/svg" width="33.599" height="47.999" viewBox="0 0 33.599 47.999">
  <path id="petite" d="M121.591,51.874l-4.8-30.4h0a.8.8,0,0,0-.57-.644l-6.361-1.817-1.128-2.538A.8.8,0,0,0,108,16h-6.4a.8.8,0,0,0-.731.475l-1.128,2.538-6.361,1.817a.8.8,0,0,0-.57.644h0l-4.8,30.4a.8.8,0,0,0,.79.925h3.883l-1.466,7.037a.8.8,0,0,0,.425.879C91.912,60.849,98.288,64,104.8,64s12.89-3.15,13.158-3.284a.8.8,0,0,0,.425-.879L116.919,52.8H120.8a.8.8,0,0,0,.79-.925Zm-6.485-29.7L112.913,36.8h-4.308l-1.7-5.967,4.933-6.342a.8.8,0,0,0,.1-.816l-1.225-2.755ZM105.6,40V38.4h7.2V40Zm-8.8-1.6h4V40h-4Zm5.6,0H104V40h-1.6ZM99.317,23.91l2.178-4.9,2.542,7.627,1.9,6.652Zm6.405,2.8.023-.08,2.384-7.574,2.146,4.829-3.92,5.04Zm-.851-2.631-2.16-6.48h4.2ZM98.9,20.92l-1.225,2.755a.8.8,0,0,0,.077.786l6.568,9.3a.8.8,0,0,0,.921,1.305l1.221,1.729H96.691L94.5,22.176ZM89.738,51.2l3.844-24.341,1.62,10.8v3.058L93.018,51.2Zm3.176,8.343L96.652,41.6H107.2V62.254a20.9,20.9,0,0,1-2.4.145A31.834,31.834,0,0,1,92.914,59.542ZM108.8,62.016V41.6h4.15l3.738,17.943A35.782,35.782,0,0,1,108.8,62.016ZM116.585,51.2,114.4,40.717V37.659l1.62-10.8L119.865,51.2ZM104,44a.8.8,0,1,1,.8.8A.8.8,0,0,1,104,44Zm1.6,4.8a.8.8,0,1,1-.8-.8A.8.8,0,0,1,105.6,48.8Zm0,4.8a.8.8,0,1,1-.8-.8A.8.8,0,0,1,105.6,53.6Z" transform="translate(-88.002 -16)" fill="#3d3935"/>
</svg>
