<svg id="Layer_1" data-name="Layer 1" xmlns="http://www.w3.org/2000/svg" viewBox="0 0 100 100"><defs><style>.cls-1,.cls-2{fill:none;stroke:#000;stroke-miterlimit:10;stroke-width:3px;}.cls-2{stroke-linecap:round;}</style></defs><path class="cls-1" d="M21.59,89.94a1.09,1.09,0,0,1-1.08-1c-.35-3.43-.69-6.73-1-10-.85-8.35-1.69-16.7-2.58-25a1.27,1.27,0,0,0-.59-.95c-1.2-.7-2.5-1.22-3.69-1.94a1.84,1.84,0,0,1-.85-1.29c0-6.2-.06-12.4.08-18.61.11-4.7,3-7.46,7.08-9a17.54,17.54,0,0,1,11.38-.29C36,23.52,39,27,39,32.24q0,8.55,0,17.09a1.65,1.65,0,0,1-1.09,1.84c-1.35.58-3.06,1-3.82,2.08s-.56,2.81-.72,4.27C32.16,67.78,31,78.05,29.89,88.33c-.13,1.26-.48,1.71-1.8,1.65C26,89.88,23.82,89.93,21.59,89.94Z"/><path class="cls-1" d="M73.93,62.48c-5.59-.3-10.3-.26-14.76-2-.35-.14-.7-.29-1-.45a2.63,2.63,0,0,1-1.36-2.92c1.36-6.46,2.6-13,4-19.4,1.07-4.87,2.75-9.52,6-13.42A8.09,8.09,0,0,1,79.06,24a17.23,17.23,0,0,1,1.74,2.17c2.71,4.08,4,8.7,5,13.42,1.32,6.13,2.52,12.3,3.84,18.43a1.23,1.23,0,0,1-.89,1.56,31.64,31.64,0,0,1-6,2C79.6,62.12,76.3,62.26,73.93,62.48Z"/><path d="M68.55,68.28c1.49.13,3,.2,4.48.2s3-.06,4.61-.2L74.57,87.71H71.62L68.55,68.28M66.23,65a1.05,1.05,0,0,0-1,1.21l3.74,23.62a1.05,1.05,0,0,0,1,.89h6.26a1,1,0,0,0,1-.89L81,66.23A1.06,1.06,0,0,0,80,65h-.14a51.6,51.6,0,0,1-6.78.46A47,47,0,0,1,66.39,65l-.16,0Z"/><path class="cls-1" d="M25.25,6.13a5.53,5.53,0,0,1,5.61,6.05,5.57,5.57,0,0,1-11.13-.5A5.54,5.54,0,0,1,25.25,6.13Z"/><path class="cls-1" d="M72,6.72a5.59,5.59,0,0,1,6.39,7.33A5.51,5.51,0,0,1,75,17.47,5.58,5.58,0,1,1,72,6.72Z"/><line class="cls-2" x1="49.02" y1="4.96" x2="49.02" y2="89.76"/></svg>