<svg xmlns="http://www.w3.org/2000/svg" width="44.27" height="47.221" viewBox="0 0 44.27 47.221">
  <g id="Pussycat" transform="translate(-221 -300)">
    <path id="Path_268" data-name="Path 268" d="M48.327,41.8h-.038a.738.738,0,0,0-.738.738.738.738,0,0,1-1.474.038l0-.076a.738.738,0,0,0-1.474.038,2.213,2.213,0,1,0,4.427,0A.738.738,0,0,0,48.327,41.8Z" transform="translate(211.816 286.606)" fill="#3d3935" fill-rule="evenodd"/>
    <path id="Path_269" data-name="Path 269" d="M448.845,60.3a.7.7,0,0,0,.457-.182.738.738,0,0,1,1.313.673,1.861,1.861,0,0,1-1.77.985h0a1.861,1.861,0,0,1-1.77-.985.738.738,0,0,1,1.313-.673A.7.7,0,0,0,448.845,60.3Z" transform="translate(-191.322 262.944)" fill="#3d3935" fill-rule="evenodd"/>
    <path id="Path_270" data-name="Path 270" d="M448.845,60.3a.7.7,0,0,0,.457-.182.738.738,0,0,1,1.313.673,1.861,1.861,0,0,1-1.77.985h0a1.861,1.861,0,0,1-1.77-.985.738.738,0,0,1,1.313-.673A.7.7,0,0,0,448.845,60.3Z" transform="translate(-196.487 262.944)" fill="#3d3935" fill-rule="evenodd"/>
    <circle id="Ellipse_10" data-name="Ellipse 10" cx="0.738" cy="0.738" r="0.738" transform="translate(247.562 307.59)" fill="#3d3935"/>
    <circle id="Ellipse_11" data-name="Ellipse 11" cx="0.738" cy="0.738" r="0.738" transform="translate(257.891 316.601)" fill="#3d3935"/>
    <circle id="Ellipse_12" data-name="Ellipse 12" cx="0.738" cy="0.738" r="0.738" transform="translate(255.678 314.757)" fill="#3d3935"/>
    <circle id="Ellipse_13" data-name="Ellipse 13" cx="0.738" cy="0.738" r="0.738" transform="translate(253.464 312.912)" fill="#3d3935"/>
    <path id="Path_271" data-name="Path 271" d="M63.068,58.526A1.476,1.476,0,0,0,61.9,56.143H60.429a1.476,1.476,0,0,0-1.2,2.338l1.285,1.782a.736.736,0,0,0,.6.307l.582-.284ZM61.9,57.619H60.429l.708.983Z" transform="translate(193.826 269.312)" fill="#3d3935" fill-rule="evenodd"/>
    <path id="Path_272" data-name="Path 272" d="M48.327,41.8h-.038a.738.738,0,0,0-.738.738.738.738,0,0,1-1.474.038l0-.076a.738.738,0,0,0-1.474.038,2.213,2.213,0,1,0,4.427,0A.738.738,0,0,0,48.327,41.8Z" transform="translate(206.651 286.606)" fill="#3d3935" fill-rule="evenodd"/>
    <path id="Path_273" data-name="Path 273" d="M48.327,41.8h-.038a.738.738,0,0,0-.738.738.738.738,0,0,1-1.474.038l0-.076a.738.738,0,0,0-1.474.038,2.213,2.213,0,1,0,4.427,0A.738.738,0,0,0,48.327,41.8Z" transform="translate(209.602 286.606)" fill="#3d3935" fill-rule="evenodd"/>
    <path id="Path_274" data-name="Path 274" d="M65.074,46.671a.738.738,0,0,0,1.43.043l1.651-5.773a.737.737,0,0,0-.912-.912l-4.635,1.325a.738.738,0,0,0-.22,1.315A6.655,6.655,0,0,1,65.074,46.671Zm.618-2.486a8.142,8.142,0,0,0-1.348-1.791l2.027-.58-.678,2.372ZM54.8,42.669a.738.738,0,0,0-.22-1.315l-4.635-1.325a.737.737,0,0,0-.912.912l1.651,5.773a.738.738,0,0,0,1.43-.043A6.649,6.649,0,0,1,54.8,42.669Zm-1.956-.276a8.12,8.12,0,0,0-1.348,1.791s-.679-2.371-.679-2.371Z" transform="translate(196.348 278.445)" fill="#3d3935" fill-rule="evenodd"/>
    <path id="Path_275" data-name="Path 275" d="M43.951,52H41.738a.738.738,0,1,0,0,1.476h2.213a.738.738,0,1,0,0-1.476Z" transform="translate(203.61 273.824)" fill="#3d3935" fill-rule="evenodd"/>
    <path id="Path_276" data-name="Path 276" d="M43.951,52H41.738a.738.738,0,1,0,0,1.476h2.213a.738.738,0,1,0,0-1.476Z" transform="translate(220.58 273.824)" fill="#3d3935" fill-rule="evenodd"/>
    <path id="Path_277" data-name="Path 277" d="M51.32,52H48.738a.738.738,0,1,0,0,1.476H51.32a.738.738,0,1,0,0-1.476Z" transform="translate(196.61 276.775)" fill="#3d3935" fill-rule="evenodd"/>
    <path id="Path_278" data-name="Path 278" d="M51.32,52H48.738a.738.738,0,1,0,0,1.476H51.32a.738.738,0,1,0,0-1.476Z" transform="translate(213.211 276.775)" fill="#3d3935" fill-rule="evenodd"/>
    <path id="Path_279" data-name="Path 279" d="M378.6,71.333a2.214,2.214,0,0,1,2.214,2.213.738.738,0,1,0,1.476,0,3.69,3.69,0,0,0-3.689-3.689.738.738,0,0,0,0,1.476Z" transform="translate(-145.79 257.442)" fill="#3d3935" fill-rule="evenodd"/>
    <path id="Path_280" data-name="Path 280" d="M331.738,68.476h2.213a.738.738,0,0,1,.738.738V70.32a.738.738,0,1,0,1.476,0V69.213A2.214,2.214,0,0,0,333.951,67h-2.213a.738.738,0,1,0,0,1.476Z" transform="translate(-95.981 263.251)" fill="#3d3935" fill-rule="evenodd"/>
    <path id="Path_281" data-name="Path 281" d="M440.415,94.689V93.582A2.582,2.582,0,0,0,437.832,91v1.476a.738.738,0,1,1,0-1.476,2.582,2.582,0,0,0-2.582,2.582v1.107a.738.738,0,0,0,.738.738h3.689A.738.738,0,0,0,440.415,94.689Zm-1.476-1.107v.369h-2.213v-.369a1.107,1.107,0,1,1,2.213,0Z" transform="translate(-188.426 239.251)" fill="#3d3935" fill-rule="evenodd"/>
    <path id="Path_282" data-name="Path 282" d="M440.415,94.689V93.582A2.582,2.582,0,0,0,437.832,91h0a2.581,2.581,0,0,0-2.581,2.581v1.108a.738.738,0,0,0,.738.738h3.689A.738.738,0,0,0,440.415,94.689Zm-1.476-1.107v.369h-2.213v-.37a1.105,1.105,0,0,1,1.1-1.106h0A1.107,1.107,0,0,1,438.939,93.582Z" transform="translate(-177.359 239.251)" fill="#3d3935" fill-rule="evenodd"/>
    <path id="Path_283" data-name="Path 283" d="M349.689,65.391h0V65.5l.011.011c.052.3.469.7.357.63a8.117,8.117,0,0,0,8.118,0l-.087.024a.688.688,0,0,0,.455-.665V65.39h0v0a1.106,1.106,0,0,1,1.105-1.105l.208.019a.74.74,0,0,0,.725-.278,8.116,8.116,0,1,0-12.93,0,.738.738,0,0,0,.725.279,1.108,1.108,0,0,1,1.313,1.088Zm9.947-2.586a2.583,2.583,0,0,0-2.548,2.249,6.645,6.645,0,0,1-5.945,0,2.583,2.583,0,0,0-2.548-2.25,6.64,6.64,0,1,1,11.041,0Z" transform="translate(-99.176 267.446)" fill="#3d3935" fill-rule="evenodd"/>
    <path id="Path_284" data-name="Path 284" d="M325.813,71h-2.6A2.213,2.213,0,0,0,321,73.213v2.951a2.214,2.214,0,0,0,2.213,2.213h.738a.738.738,0,0,1,.738.738v5.165a.738.738,0,1,0,1.476,0V79.116a2.214,2.214,0,0,0-2.213-2.213h-.738a.738.738,0,0,1-.738-.738V73.213a.738.738,0,0,1,.738-.738h2.6a.738.738,0,1,0,0-1.476Z" transform="translate(-97.787 262.202)" fill="#3d3935" fill-rule="evenodd"/>
    <path id="Path_285" data-name="Path 285" d="M344.4,75.165c0-.5.147-1.808.147-1.808l-.806-2.821a.739.739,0,0,0-.71-.535h-7.484C323,70,323,82.543,323,82.543a.738.738,0,0,0,.738.738h19.921a.738.738,0,0,0,.738-.738V81.436a1.107,1.107,0,0,1,.9-1.088.737.737,0,0,0,.451-1.172A6.61,6.61,0,0,1,344.4,75.165Zm-1.322-1.577a8.164,8.164,0,0,0-.153,1.577,8.07,8.07,0,0,0,1.133,4.135,2.579,2.579,0,0,0-1.133,2.137v.369h-18.4c.231-2.475,1.7-10.33,11.024-10.33h6.928Z" transform="translate(-96.097 251.397)" fill="#3d3935" fill-rule="evenodd"/>
    <path id="Path_286" data-name="Path 286" d="M267.552,263.521a.737.737,0,0,0,.39.836,5.187,5.187,0,0,1,1.378.989.739.739,0,0,0,.7.2l2.671-.65a3.638,3.638,0,0,0,1.712-6.108l0,0a3.638,3.638,0,0,0-6.108,1.712Zm1.566-.2.6-2.48a2.163,2.163,0,0,1,3.632-1.018l0,0a2.163,2.163,0,0,1-1.018,3.632l-2.283.555A6.654,6.654,0,0,0,269.118,263.321Z" transform="translate(-18.102 42.286)" fill="#3d3935" fill-rule="evenodd"/>
    <path id="Path_288" data-name="Path 288" d="M248.364,262.278c-.118-.421-.336-2.149-.336-2.149A10.33,10.33,0,0,0,233,269.33a.738.738,0,0,0,.738.738h28.775a.738.738,0,0,0,.738-.738,6.641,6.641,0,0,0-9.571-5.959.738.738,0,0,0-.391.837l.1.43-3.458-.841A2.163,2.163,0,0,1,248.364,262.278Zm-1.522-1.077a3.637,3.637,0,0,0,2.745,4.028l4.637,1.128a.738.738,0,0,0,.891-.891l-.243-1a5.168,5.168,0,0,1,6.852,4.126H234.506a8.856,8.856,0,0,1,12.336-7.391Z" transform="translate(-9.049 41.949)" fill="#3d3935" fill-rule="evenodd"/>
    <path id="Path_289" data-name="Path 289" d="M243.165,271.689v-1.107A2.582,2.582,0,0,0,240.582,268h0A2.582,2.582,0,0,0,238,270.581v1.108a.738.738,0,0,0,.738.738h3.689A.738.738,0,0,0,243.165,271.689Zm-1.476-1.107v.369h-2.213v-.37a1.106,1.106,0,0,1,1.105-1.105h0A1.107,1.107,0,0,1,241.689,270.582Z" transform="translate(-10.36 39.589)" fill="#3d3935" fill-rule="evenodd"/>
    <path id="Path_290" data-name="Path 290" d="M243.165,271.689v-1.107A2.582,2.582,0,0,0,240.582,268h0A2.582,2.582,0,0,0,238,270.581v1.108a.738.738,0,0,0,.738.738h3.689A.738.738,0,0,0,243.165,271.689Zm-1.476-1.107v.369h-2.213v-.37a1.106,1.106,0,0,1,1.105-1.105h0A1.107,1.107,0,0,1,241.689,270.582Z" transform="translate(-2.244 39.589)" fill="#3d3935" fill-rule="evenodd"/>
    <path id="Path_291" data-name="Path 291" d="M232.689,268.592h-1.476a.738.738,0,0,1-.738-.738v-8.116a.738.738,0,0,0-1.476,0v8.116a2.214,2.214,0,0,0,2.213,2.214h1.476a.738.738,0,1,0,0-1.476Z" transform="translate(-8 41.949)" fill="#3d3935" fill-rule="evenodd"/>
  </g>
</svg>
