<svg xmlns="http://www.w3.org/2000/svg" width="49.466" height="35.333" viewBox="0 0 49.466 35.333">
  <path id="raffaella" d="M52.583,42.033H51.7V33.2a6.183,6.183,0,0,0-6.183-6.183h-7.95A4.417,4.417,0,0,0,33.15,22.6V19.95a.883.883,0,0,0-.883-.883h-.883V17.3h2.65a2.65,2.65,0,1,0,0-5.3h-10.6a2.65,2.65,0,0,0,0,5.3h2.65v1.767H25.2a.883.883,0,0,0-.883.883V22.6A4.417,4.417,0,0,0,19.9,27.017H9.3v-.883a.883.883,0,0,0-.883-.883H5.767v-.883a.883.883,0,1,0-1.767,0V38.5a.883.883,0,0,0,1.767,0v-.883h2.65a.883.883,0,0,0,.883-.883V35.85H19.9a4.417,4.417,0,0,0,4.417,4.417H33.15a4.417,4.417,0,0,0,4.417-4.417h4.417a.883.883,0,0,1,.883.883v5.3h-.883a.883.883,0,0,0-.883.883V46.45a.883.883,0,0,0,.883.883h10.6a.883.883,0,0,0,.883-.883V42.916A.883.883,0,0,0,52.583,42.033ZM22.55,14.65a.883.883,0,0,1,.883-.883h10.6a.883.883,0,1,1,0,1.767h-10.6A.883.883,0,0,1,22.55,14.65Zm5.3,2.65h1.767v1.767H27.85Zm-1.767,3.533h5.3V22.6h-5.3ZM7.533,35.85H5.767V27.017H7.533ZM9.3,34.083v-5.3H19.9v5.3ZM35.8,35.85a2.65,2.65,0,0,1-2.65,2.65H24.316a2.65,2.65,0,0,1-2.65-2.65V27.017a2.65,2.65,0,0,1,2.65-2.65H33.15a2.65,2.65,0,0,1,2.65,2.65Zm6.183-1.767H37.566v-5.3h7.95A4.417,4.417,0,0,1,49.933,33.2v8.833h-5.3v-5.3A2.65,2.65,0,0,0,41.983,34.083ZM51.7,45.566H42.866V43.8H51.7Z" transform="translate(-4 -12)" fill="#3d3935"/>
</svg>
