<svg xmlns="http://www.w3.org/2000/svg" width="45.931" height="52.278" viewBox="0 0 45.931 52.278">
  <g id="rattle" transform="translate(-6.854 -2.869)">
    <path id="Path_294" data-name="Path 294" d="M30.625,32.094,27.6,35.811a42.371,42.371,0,0,0-5.42,8.638L19.01,51.225a4.19,4.19,0,0,1-3.976,2.416h0a7.132,7.132,0,0,1-6.4-4.76h0a4.2,4.2,0,0,1,1.159-4.457l5.572-4.992a42.032,42.032,0,0,0,6.7-7.756l2.719-4m20.637,2.059A14.406,14.406,0,0,1,22.887,12.955m3.958-5.242A14.406,14.406,0,0,1,49.328,24.419" fill="none" stroke="#3d3935" stroke-linecap="round" stroke-linejoin="round" stroke-width="3"/>
    <rect id="Rectangle_106" data-name="Rectangle 106" width="31.54" height="6.588" rx="1" transform="translate(25.369 6.612) rotate(36.61)" fill="none" stroke="#3d3935" stroke-linecap="round" stroke-linejoin="round" stroke-width="3"/>
  </g>
</svg>
