<svg xmlns="http://www.w3.org/2000/svg" width="42" height="42.005" viewBox="0 0 42 42.005">
  <g id="Rectella" transform="translate(-3 -2.995)">
    <path id="Path_292" data-name="Path 292" d="M44.37,11.07h0l-20-8a.95.95,0,0,0-.74,0l-20,8A1,1,0,0,0,3,12V26.5a1,1,0,0,0,2,0V12.68l19-7.6,19,7.6V26.5a1,1,0,0,0,2,0V12A1,1,0,0,0,44.37,11.07Z" fill="#3d3935"/>
    <path id="Path_293" data-name="Path 293" d="M9,23v7a4,4,0,0,0-4,4v7a1,1,0,0,0,1,1H7v2a1,1,0,0,0,1,1h4a1,1,0,0,0,1-1V42H35v2a1,1,0,0,0,1,1h4a1,1,0,0,0,1-1V42h1a1,1,0,0,0,1-1V34a4,4,0,0,0-4-4V23a3.009,3.009,0,0,0-3-3H12A3.009,3.009,0,0,0,9,23Zm2,20H9V42h2Zm28,0H37V42h2Zm2-3H7V38H41Zm-2-8a2.006,2.006,0,0,1,2,2v2H7V34a2.006,2.006,0,0,1,2-2ZM14,30V28h6v2Zm14,0V28h6v2Zm9-7v7H36V28a2.006,2.006,0,0,0-2-2H28a2.006,2.006,0,0,0-2,2v2H22V28a2.006,2.006,0,0,0-2-2H14a2.006,2.006,0,0,0-2,2v2H11V23a1,1,0,0,1,1-1H36A1,1,0,0,1,37,23ZM28.9,10.47l-2.77-.4L24.9,7.56a1.057,1.057,0,0,0-1.79,0l-1.24,2.51-2.77.4a1,1,0,0,0-.56,1.7l2,1.95-.47,2.75a1.01,1.01,0,0,0,.4.98.967.967,0,0,0,.59.19.929.929,0,0,0,.46-.12l2.47-1.3,2.47,1.3a1,1,0,0,0,1.05-.08,1.01,1.01,0,0,0,.4-.98l-.47-2.75,2-1.95a.994.994,0,0,0,.25-1.02h0A.935.935,0,0,0,28.9,10.47Zm-3.22,2.59a1,1,0,0,0-.29.88l.22,1.28-1.14-.6a1.017,1.017,0,0,0-.93,0l-1.15.6.22-1.28a.964.964,0,0,0-.29-.88l-.93-.9,1.28-.19a.977.977,0,0,0,.75-.55L24,10.26l.57,1.16a1.011,1.011,0,0,0,.75.55l1.28.19Z" fill="#3d3935"/>
  </g>
</svg>
