<svg xmlns="http://www.w3.org/2000/svg" width="49.181" height="49.183" viewBox="0 0 49.181 49.183">
  <path id="regatta" d="M20.308,1.06a.875.875,0,0,0-.434.154c-.018.012-.036.026-.053.039L18.1,2.446l-.057.014a13.107,13.107,0,0,0-5.173,2.256,37.338,37.338,0,0,0-5.421,5.22C5.3,12.286,3.024,14.985,1.254,17.2a.879.879,0,0,0,.1,1.213l7.028,6.146a.88.88,0,0,0,1.2-.039l3.763-3.757c0,6.316-.061,20.461-.866,28.516a.878.878,0,0,0,.868.966H37.942a.878.878,0,0,0,.875-.966c-.805-8.053-.864-22.206-.866-28.525l3.765,3.765a.878.878,0,0,0,1.2.039l7.021-6.146a.879.879,0,0,0,.112-1.213c-1.77-2.212-4.057-4.911-6.2-7.261a37.335,37.335,0,0,0-5.419-5.22A13.115,13.115,0,0,0,33.256,2.46L33.2,2.441,31.472,1.247l-.026-.019-.026-.014a.879.879,0,0,0-.772-.11,15.35,15.35,0,0,1-10,0,.875.875,0,0,0-.343-.045ZM31.252,3.232l1.3.894-2.017,7.333L28.444,8.851Zm-11.21.005,2.813,5.614-2.088,2.607L18.753,4.126Zm9.227.051-2.407,4.8H24.437L22.039,3.3a16.007,16.007,0,0,0,7.23-.007ZM17.037,4.525l2.5,9.06a.878.878,0,0,0,1.53.317l1.952-2.438v8.913a.879.879,0,0,0,.875.883h3.515a.879.879,0,0,0,.875-.883V11.466l1.95,2.438a.878.878,0,0,0,1.53-.317l2.5-9.061a11.862,11.862,0,0,1,3.194,1.655,39.976,39.976,0,0,1,5.095,4.94c1.923,2.109,3.928,4.458,5.6,6.518l-5.772,5.055L37.69,18a.878.878,0,0,0-1.5.623c0,5.106-.021,20.8.787,29.863H14.315c.808-9.067.8-24.757.794-29.863a.878.878,0,0,0-1.5-.623L8.924,22.694,3.15,17.639c1.669-2.061,3.676-4.409,5.6-6.518a39.953,39.953,0,0,1,5.1-4.94,11.86,11.86,0,0,1,3.192-1.655Zm7.731,5.319h1.757V19.5H24.768Zm6.153,7.021a.878.878,0,1,0,0,1.757h1.757a.878.878,0,1,0,0-1.757Z" transform="translate(-1.059 -1.058)" fill="#3d3935"/>
</svg>
