<svg xmlns="http://www.w3.org/2000/svg" width="28.087" height="52" viewBox="0 0 28.087 52">
  <g id="scarlett---jo" transform="translate(-11)">
    <path id="Path_229" data-name="Path 229" d="M24.7,25.652A11.957,11.957,0,0,0,32.3,22.391c0-3.261-1.087-3.261-1.087-5.435,0-3.261,2.174-3.261,2.174-7.609a4.348,4.348,0,0,0-8.7,0,4.348,4.348,0,0,0-8.7,0c0,4.348,2.174,4.348,2.174,7.609,0,2.174-1.087,2.174-1.087,5.435A11.957,11.957,0,0,0,24.7,25.652Z" transform="translate(0.348 0.348)" fill="none" stroke="#3d3935" stroke-linejoin="round" stroke-width="2"/>
    <path id="Path_230" data-name="Path 230" d="M17.435,18a11.957,11.957,0,0,0,7.609,3.261A11.957,11.957,0,0,0,32.652,18m0,3.261C38.087,29.543,38.087,43,38.087,43c0,1.2-5.837,2.174-13.043,2.174S12,44.2,12,43c0,0,0-13.457,5.435-21.739" transform="translate(0 1.478)" fill="none" stroke="#3d3935" stroke-linejoin="round" stroke-width="2"/>
    <path id="Path_231" data-name="Path 231" d="M20.7,43.3a4.348,4.348,0,1,1-8.7,0V42.217m17.391,2.174a4.348,4.348,0,0,1-8.7,0m-.228,0S17.837,36.783,21.783,27M29.62,44.391S32.25,36.783,28.3,27" transform="translate(0 2.261)" fill="none" stroke="#3d3935" stroke-linejoin="round" stroke-width="2"/>
    <path id="Path_232" data-name="Path 232" d="M28,42.087a4.348,4.348,0,1,0,8.7,0V41" transform="translate(1.391 3.478)" fill="none" stroke="#3d3935" stroke-linejoin="round" stroke-width="2"/>
    <path id="Path_233" data-name="Path 233" d="M18.174,6.435,16,1h4.348V5.348" transform="translate(0.348)" fill="none" stroke="#3d3935" stroke-linejoin="round" stroke-width="2"/>
    <path id="Path_234" data-name="Path 234" d="M30.174,6.435,32.348,1H28V5.348" transform="translate(1.391)" fill="none" stroke="#3d3935" stroke-linejoin="round" stroke-width="2"/>
  </g>
</svg>
