<svg xmlns="http://www.w3.org/2000/svg" width="42.482" height="39.159" viewBox="0 0 42.482 39.159">
  <g id="download_7_" data-name="download (7)" transform="translate(0)">
    <path id="Path_22" data-name="Path 22" d="M228.519,224.752h-3.593v-32h2.179a.511.511,0,0,0,.531-.489v-5.205a.511.511,0,0,0-.531-.489H188.512a.511.511,0,0,0-.531.489v5.205a.511.511,0,0,0,.531.489h2.179v32H187.1a.491.491,0,1,0,0,.979h41.42a.491.491,0,1,0,0-.979Zm-39.476-37.2h37.53v4.226h-37.53Zm2.71,5.205h32.111v32h-8.253v-12.5a.511.511,0,0,0-.531-.489H200.539a.511.511,0,0,0-.531.489v12.5h-8.253Zm9.316,24.319h13.479v3.349H201.069Zm13.479-.979H201.069v-3.35h13.479ZM201.069,221.4h13.479v3.349H201.07Z" transform="translate(-186.568 -186.572)" fill="#3d3935"/>
    <path id="Path_23" data-name="Path 23" d="M366,535.03h-1.675a.491.491,0,1,0,0,.979H366a.491.491,0,1,0,0-.979Z" transform="translate(-343.925 -499.013)" fill="#3d3935"/>
    <path id="Path_24" data-name="Path 24" d="M266.694,319.89a.511.511,0,0,0,.531-.489v-3.768a3.229,3.229,0,0,0-6.437,0V319.4a.511.511,0,0,0,.531.489Zm-4.844-4.257a2.163,2.163,0,0,1,4.313,0v3.278H261.85Z" transform="translate(-252.466 -299.633)" fill="#3d3935"/>
    <path id="Path_25" data-name="Path 25" d="M347.837,319.89h5.375a.511.511,0,0,0,.531-.489v-3.768a3.229,3.229,0,0,0-6.437,0V319.4a.511.511,0,0,0,.531.489Zm.531-4.257a2.163,2.163,0,0,1,4.313,0v3.278h-4.313Z" transform="translate(-329.283 -299.633)" fill="#3d3935"/>
    <path id="Path_26" data-name="Path 26" d="M434.337,319.89h5.375a.511.511,0,0,0,.531-.489v-3.768a3.229,3.229,0,0,0-6.437,0V319.4a.511.511,0,0,0,.531.489Zm.531-4.257a2.163,2.163,0,0,1,4.313,0v3.278h-4.313Z" transform="translate(-406.083 -299.633)" fill="#3d3935"/>
  </g>
</svg>
