<svg xmlns="http://www.w3.org/2000/svg" width="43.75" height="50" viewBox="0 0 43.75 50">
  <path id="steel---jelly" d="M41.844,4.688H38.521L34.062.229a.73.73,0,0,0-.084-.056.713.713,0,0,0-.086-.057A.774.774,0,0,0,33.509,0H14.241a.775.775,0,0,0-.382.116.713.713,0,0,0-.086.057.73.73,0,0,0-.084.056L9.229,4.688H5.906A3.91,3.91,0,0,0,2,8.594v37.5A3.91,3.91,0,0,0,5.906,50H41.844a3.91,3.91,0,0,0,3.906-3.906V8.594a3.91,3.91,0,0,0-3.906-3.906ZM31.623,1.563,23.875,9.312,16.127,1.563ZM20.75,48.438H5.906a2.346,2.346,0,0,1-2.344-2.344V8.594A2.346,2.346,0,0,1,5.906,6.25H8.968L17.4,14.682a2.347,2.347,0,0,0,3.314,0l.035-.035Zm.206-36.207L19.61,13.577a.782.782,0,0,1-1.1,0L10.527,5.6l3.714-3.713,4.265,4.265,4.265,4.265-1.759,1.759a.75.75,0,0,0-.055.055Zm4.481,36.207H22.313V13.084l1.563-1.563,1.563,1.563Zm1.3-36.262L24.98,10.416l4.265-4.265,4.265-4.265L37.223,5.6l-7.979,7.978a.781.781,0,0,1-1.1,0l-1.346-1.347a.75.75,0,0,0-.055-.055ZM44.188,46.094a2.346,2.346,0,0,1-2.344,2.344H27V14.647l.035.035a2.347,2.347,0,0,0,3.314,0L38.782,6.25h3.062a2.346,2.346,0,0,1,2.344,2.344ZM38.719,20.313h-6.25a2.346,2.346,0,0,0-2.344,2.344v6.25a5.469,5.469,0,1,0,10.938,0v-6.25a2.346,2.346,0,0,0-2.344-2.344Zm.781,8.594a3.906,3.906,0,1,1-7.812,0V25H39.5Zm0-5.469H31.688v-.781a.782.782,0,0,1,.781-.781h6.25a.782.782,0,0,1,.781.781ZM23.875,42.969a.781.781,0,1,0,.781.781A.781.781,0,0,0,23.875,42.969ZM23.094,18.75a.781.781,0,1,0,.781-.781A.781.781,0,0,0,23.094,18.75Zm.781,5.469a.781.781,0,1,0,.781.781A.781.781,0,0,0,23.875,24.219Zm0,12.5a.781.781,0,1,0,.781.781A.781.781,0,0,0,23.875,36.719Zm0-6.25a.781.781,0,1,0,.781.781A.781.781,0,0,0,23.875,30.469Z" transform="translate(-2)" fill="#3d3935"/>
</svg>
