<svg xmlns="http://www.w3.org/2000/svg" width="47.742" height="51.894" viewBox="0 0 47.742 51.894">
  <g id="download_20_" data-name="download (20)" transform="translate(-191.015 -191.017)">
    <path id="Path_189" data-name="Path 189" d="M240.6,487a5.19,5.19,0,1,0,5.19,5.19A5.2,5.2,0,0,0,240.6,487Zm0,8.3a3.114,3.114,0,1,1,3.114-3.114A3.118,3.118,0,0,1,240.6,495.3Z" transform="translate(-38.168 -254.468)" fill="#3d3935"/>
    <path id="Path_190" data-name="Path 190" d="M447.79,487a5.19,5.19,0,1,0,5.19,5.19A5.2,5.2,0,0,0,447.79,487Zm0,8.3a3.114,3.114,0,1,1,3.114-3.114A3.118,3.118,0,0,1,447.79,495.3Z" transform="translate(-216.297 -254.468)" fill="#3d3935"/>
    <path id="Path_191" data-name="Path 191" d="M237.72,273.307H197.242v-7.265A1.038,1.038,0,0,0,196.2,265h-4.151a1.038,1.038,0,1,0,0,2.075h3.114v7.265a21.8,21.8,0,0,0,43.59,0,1.039,1.039,0,0,0-1.038-1.038Zm-20.759,20.759a19.745,19.745,0,0,1-19.693-18.683h39.385A19.745,19.745,0,0,1,216.961,294.066Z" transform="translate(0 -63.61)" fill="#3d3935"/>
    <path id="Path_192" data-name="Path 192" d="M428.84,205.547h12.455a1.037,1.037,0,0,0,1.038-1.038,13.508,13.508,0,0,0-13.492-13.492,1.037,1.037,0,0,0-1.038,1.038v12.455a1.037,1.037,0,0,0,1.038,1.038Zm1.038-12.408a11.435,11.435,0,0,1,10.332,10.332H429.877Z" transform="translate(-203.575)" fill="#3d3935"/>
  </g>
</svg>
