<svg xmlns="http://www.w3.org/2000/svg" width="24.993" height="48.183" viewBox="0 0 24.993 48.183">
  <g id="stylist-pick" transform="translate(-258.895 -42.881)">
    <path id="Path_235" data-name="Path 235" d="M288.27,73.455c1,2.5,3.1,8.3-1,25.893,0,0-1.395,1.3-5.973,1-4.579.294-5.973-1-5.973-1-4.1-17.6-2-23.394-1-25.893s1.4-4.3,1-5.7-1.6-5.4-1.6-5.4l-4.4-2.7s.7-.3,1.1-3a3.1,3.1,0,0,1,.843-1.69,6.952,6.952,0,0,1,3.354-1.71c.422,1.25,2.678,2.1,6.675,2.1,4.4,0,5.9-1.139,6.681-2.1.186.036,3.8.768,4.191,3.4.4,2.7,1.1,3,1.1,3l-4.4,2.7s-1.2,4-1.6,5.4S287.27,70.956,288.27,73.455Z" transform="translate(-9.906 -9.858)" fill="none"/>
    <path id="Path_236" data-name="Path 236" d="M277.854,63.738c.234.586.448,1.179.623,1.786.119.413.221.83.309,1.25.051.243.1.487.139.732q.032.189.061.379.015.1.029.2l.014.1c.021.153-.009-.068,0,.029a40.7,40.7,0,0,1-.147,9.942,100.251,100.251,0,0,1-2.033,11.2l.136-.233-.031.026c.174-.14.05-.038-.013,0a3.367,3.367,0,0,1-.471.255l-.081.036c.148-.064.041-.017.01,0-.064.026-.129.05-.194.074-.165.06-.333.111-.5.157-.188.052-.378.095-.569.134-.216.044-.5.088-.66.109a14.8,14.8,0,0,1-1.826.1c-.357,0-.715-.013-1.072-.032-.4-.021-.8.022-1.2.03a11.913,11.913,0,0,1-3.177-.306,6.756,6.756,0,0,1-.734-.229c-.052-.019-.1-.04-.153-.061.159.066,0,0-.037-.018-.076-.035-.151-.072-.225-.112a2.644,2.644,0,0,1-.275-.168c-.127-.089.106.1.01.007l.136.233a85.542,85.542,0,0,1-2.359-15.063,37.375,37.375,0,0,1,.039-4.717q.036-.47.089-.939.024-.21.051-.42c.016-.122-.017.126,0,0l.014-.1q.016-.115.034-.23.111-.736.277-1.463a16.89,16.89,0,0,1,.637-2.121,14.887,14.887,0,0,0,1.39-5.348,9.742,9.742,0,0,0-.569-2.561q-.411-1.394-.828-2.786l-.289-.967a.911.911,0,0,0-.329-.6l-1.164-.714-3.233-1.984v.912a1.575,1.575,0,0,0,.606-.707,10.654,10.654,0,0,0,.785-2.859,3.541,3.541,0,0,1,2.109-2.22,6.836,6.836,0,0,1,1.671-.559l-.65-.369a2.831,2.831,0,0,0,1.492,1.532,9.488,9.488,0,0,0,3.117.815,21.241,21.241,0,0,0,4.335.071,10.81,10.81,0,0,0,3.123-.656,5.287,5.287,0,0,0,2.172-1.527l-.514.136a7.438,7.438,0,0,1,1.3.393l.124.05c-.114-.047.028.013.042.019.087.038.173.079.258.121a6.452,6.452,0,0,1,.567.315,3.753,3.753,0,0,1,.932.787,2.671,2.671,0,0,1,.548,1.056c.157.6.207,1.231.38,1.835a3.352,3.352,0,0,0,.843,1.637.816.816,0,0,0,.176.13v-.912l-3.156,1.936-1.235.758a.826.826,0,0,0-.32.55l-.276.922c-.423,1.414-.849,2.828-1.255,4.247a5.887,5.887,0,0,0-.044,2.614,16.878,16.878,0,0,0,1.044,3.365.54.54,0,0,0,.65.369.529.529,0,0,0,.369-.65,14.655,14.655,0,0,1-1.106-3.823,4.621,4.621,0,0,1,.053-1.384c.08-.372.206-.739.313-1.1q.659-2.249,1.336-4.492l0-.012-.243.316,4.4-2.7a.532.532,0,0,0,0-.912.239.239,0,0,1-.04-.024c.175.123.033.023-.025-.041-.1-.11.067.1-.009-.011-.032-.045-.061-.091-.089-.138s-.066-.117-.1-.177c-.018-.034-.034-.069-.05-.1-.061-.13,0,.013-.033-.074a8.217,8.217,0,0,1-.425-1.571,5.565,5.565,0,0,0-.459-1.629,5.966,5.966,0,0,0-3.924-2.62c-.088-.022-.177-.043-.267-.061a.53.53,0,0,0-.514.136,4.619,4.619,0,0,1-.517.539c-.05.045-.1.087-.155.129-.1.076.1-.072,0,0l-.088.064a4.756,4.756,0,0,1-.427.268c-.152.086-.309.161-.468.232-.141.063.1-.04-.047.02l-.136.053c-.112.043-.225.081-.339.119a9.727,9.727,0,0,1-1.477.342,19.17,19.17,0,0,1-4.183.128,11.28,11.28,0,0,1-3.288-.617l-.146-.058c.1.039-.054-.025-.059-.027-.1-.046-.2-.1-.3-.15-.078-.042-.154-.089-.228-.136-.036-.023-.07-.047-.1-.071-.12-.084.011.013-.054-.04s-.115-.1-.17-.153c-.026-.025-.051-.052-.076-.079s-.124-.152-.029-.029a1.664,1.664,0,0,1-.127-.2c-.016-.028-.03-.058-.044-.087-.041-.085.043.117-.006-.022a.542.542,0,0,0-.65-.369,8.068,8.068,0,0,0-1.8.609,4.843,4.843,0,0,0-2.508,2.315,9.835,9.835,0,0,0-.44,1.859q-.079.356-.189.7c-.032.1-.068.2-.1.3-.017.044-.034.088-.052.132.046-.114-.007.014-.015.031a2.925,2.925,0,0,1-.177.332c-.027.043-.056.085-.086.126.114-.154.027-.036-.005,0-.056.062-.163.133,0,.015a.228.228,0,0,1-.04.024.532.532,0,0,0,0,.912l4.4,2.7-.243-.316q.644,2.148,1.28,4.3.162.549.32,1.1a3.554,3.554,0,0,1,.113.566,5.089,5.089,0,0,1,.013.775,12.453,12.453,0,0,1-.982,3.712c-.263.684-.534,1.359-.741,2.063a18.94,18.94,0,0,0-.578,2.746,40,40,0,0,0,.06,9.851c.283,2.588.709,5.16,1.215,7.713q.224,1.13.47,2.255.124.568.253,1.135.066.29.133.58a.766.766,0,0,0,.183.43,2.879,2.879,0,0,0,.754.46,8.065,8.065,0,0,0,2.238.6,39.532,39.532,0,0,0,4.1.127,14.141,14.141,0,0,0,3.487-.282,6.146,6.146,0,0,0,1.711-.624,2.956,2.956,0,0,0,.374-.259l.031-.026a1.181,1.181,0,0,0,.226-.623q.077-.336.153-.673.5-2.226.921-4.47c.454-2.443.824-4.906,1.057-7.38a36.859,36.859,0,0,0-.124-9.336,18.522,18.522,0,0,0-1.1-3.924.54.54,0,0,0-.65-.369A.529.529,0,0,0,277.854,63.738Z" transform="translate(0)" fill="#3d3935"/>
    <path id="Path_237" data-name="Path 237" d="M388.015,53.286c-.78.959-2.283,2.61-6.681,2.61-4,0-6.252-1.33-6.675-2.587h0a1.173,1.173,0,0,1,.182.017,46.823,46.823,0,0,0,12.982-.006c.06-.01.121-.023.182-.033A.008.008,0,0,1,388.015,53.286Z" transform="translate(-109.944 -9.881)" fill="none"/>
    <path id="Path_238" data-name="Path 238" d="M381.042,46.073a5.885,5.885,0,0,1-3.495,2.19,13.191,13.191,0,0,1-4.032.282,10.122,10.122,0,0,1-3.458-.765,4.67,4.67,0,0,1-1.2-.738,2.75,2.75,0,0,1-.371-.4,1.653,1.653,0,0,1-.214-.393l-.339.446a4.918,4.918,0,0,1,.659.089q.416.058.834.106c.546.063,1.094.111,1.643.151,1.191.086,2.387.121,3.581.121q1.75,0,3.5-.125a22.87,22.87,0,0,0,3.236-.377c.443-.1.255-.776-.187-.679a22.085,22.085,0,0,1-3.129.357c-1.165.083-2.333.119-3.5.119s-2.333-.039-3.5-.121q-.823-.058-1.643-.151-.36-.041-.719-.091a5.763,5.763,0,0,0-.774-.1.354.354,0,0,0-.339.446,3.205,3.205,0,0,0,1.395,1.571,8.237,8.237,0,0,0,2.968,1.053,15.221,15.221,0,0,0,4.277.137,9.379,9.379,0,0,0,3.093-.831,6.52,6.52,0,0,0,2.211-1.8C381.824,46.223,381.329,45.721,381.042,46.073Z" transform="translate(-103.219 -2.918)" fill="#3d3935"/>
    <line id="Line_12" data-name="Line 12" x2="9.297" transform="translate(266.695 60.148)" fill="none" stroke="#3d3935" stroke-linecap="round" stroke-miterlimit="10" stroke-width="0.7" stroke-dasharray="1 1.2"/>
    <path id="Path_239" data-name="Path 239" d="M276.706,95.141l-4.4-2.7s.7-.3,1.1-3a3.1,3.1,0,0,1,.843-1.69A22.061,22.061,0,0,1,276.706,95.141Z" transform="translate(-12.738 -42.616)" fill="none"/>
    <path id="Path_240" data-name="Path 240" d="M270.279,88.2l-4.4-2.7V86.1c.36-.16.574-.682.712-1.012a8.242,8.242,0,0,0,.46-1.655,7,7,0,0,1,.26-1.185,2.808,2.808,0,0,1,.583-.892l-.553-.071a16.291,16.291,0,0,1,1.882,4.7,23.426,23.426,0,0,1,.538,2.6.352.352,0,0,0,.433.246.361.361,0,0,0,.246-.433,23.961,23.961,0,0,0-.554-2.662,16.732,16.732,0,0,0-1.938-4.81.356.356,0,0,0-.553-.071,3.562,3.562,0,0,0-.934,1.845,11.206,11.206,0,0,1-.445,1.929,3.422,3.422,0,0,1-.2.469c-.033.064-.07.126-.109.187-.014.022-.029.043-.043.064-.057.082.022-.025-.012.017a.929.929,0,0,1-.135.137c.11-.089.043-.029.01-.014a.355.355,0,0,0,0,.608l4.4,2.7C270.311,89.042,270.665,88.433,270.279,88.2Z" transform="translate(-6.133 -35.974)" fill="#3d3935"/>
    <path id="Path_241" data-name="Path 241" d="M655,95.141l4.4-2.7s-.7-.3-1.1-3a3.1,3.1,0,0,0-.843-1.69A22.061,22.061,0,0,0,655,95.141Z" transform="translate(-376.186 -42.616)" fill="none"/>
    <path id="Path_242" data-name="Path 242" d="M648.665,88.8l4.4-2.7a.355.355,0,0,0,0-.608.264.264,0,0,1-.047-.029c.126.092-.032-.038-.066-.078-.014-.016-.057-.073,0,.006-.015-.019-.028-.039-.042-.059-.039-.055-.073-.113-.106-.172a3.186,3.186,0,0,1-.217-.479,9.7,9.7,0,0,1-.448-1.882,3.637,3.637,0,0,0-.948-1.94.355.355,0,0,0-.553.071,16.84,16.84,0,0,0-1.938,4.81,23.5,23.5,0,0,0-.554,2.662.361.361,0,0,0,.246.433.353.353,0,0,0,.433-.246,23.89,23.89,0,0,1,.538-2.6,16.188,16.188,0,0,1,1.882-4.7l-.553.071a3.233,3.233,0,0,1,.556.828,4.532,4.532,0,0,1,.271,1.163,8.364,8.364,0,0,0,.458,1.7c.138.341.357.889.729,1.053V85.5l-4.4,2.7C647.923,88.433,648.276,89.042,648.665,88.8Z" transform="translate(-369.673 -35.975)" fill="#3d3935"/>
  </g>
</svg>
