<svg xmlns="http://www.w3.org/2000/svg" width="35" height="49.096" viewBox="0 0 35 49.096">
  <g id="tigi" transform="translate(-73.5)">
    <path id="Path_214" data-name="Path 214" d="M367.631,108.24a.719.719,0,0,0-1.07,0c-.511.57-3.061,3.5-3.061,5.274a3.6,3.6,0,0,0,7.192,0C370.692,111.741,368.142,108.81,367.631,108.24Zm-.535,7.432a2.159,2.159,0,0,1-2.158-2.158c0-.767,1.132-2.438,2.158-3.689,1.026,1.251,2.158,2.923,2.158,3.689a2.159,2.159,0,0,1-2.158,2.158Z" transform="translate(-262.192 -97.645)" fill="#3d3935"/>
    <path id="Path_215" data-name="Path 215" d="M90.281,15.6V12.9a2.641,2.641,0,0,0-2.637-2.637h-1.2V5.274h15.342V8.39a.719.719,0,0,0,.719.719H107.3a.719.719,0,0,0,.719-.719V4.555A4.561,4.561,0,0,0,103.466,0H76.137a2.637,2.637,0,1,0,0,5.274h5.034V10.26h-1.2A2.641,2.641,0,0,0,77.336,12.9V15.6l-3.76,7.52a.719.719,0,0,0-.076.321V46.459A2.641,2.641,0,0,0,76.137,49.1H91.479a2.641,2.641,0,0,0,2.637-2.637V23.445a.719.719,0,0,0-.076-.321Zm12.945-7.933v-2.4h3.356v2.4ZM74.938,2.637a1.2,1.2,0,0,1,1.2-1.2h27.329a3.122,3.122,0,0,1,3.033,2.4H76.137A1.2,1.2,0,0,1,74.938,2.637ZM82.61,5.274h2.4V10.26h-2.4ZM79.973,11.7h7.671a1.2,1.2,0,0,1,1.2,1.2v2.158H78.774V12.9A1.2,1.2,0,0,1,79.973,11.7ZM78.5,16.493H89.117l3.116,6.233H75.383ZM74.938,28.959H85.007v13.9H74.938Zm16.541,18.7H76.137a1.2,1.2,0,0,1-1.2-1.2V44.3H85.726a.719.719,0,0,0,.719-.719V28.24a.719.719,0,0,0-.719-.719H74.938V24.164h17.74V46.459a1.2,1.2,0,0,1-1.2,1.2Z" fill="#3d3935"/>
    <path id="Path_216" data-name="Path 216" d="M164.219,317a.719.719,0,0,0-.719.719v4.267a.719.719,0,1,0,1.438,0v-4.267A.719.719,0,0,0,164.219,317Z" transform="translate(-81.37 -286.603)" fill="#3d3935"/>
  </g>
</svg>
