<svg xmlns="http://www.w3.org/2000/svg" width="41.654" height="43.653" viewBox="0 0 41.654 43.653">
  <path id="download_22_" data-name="download (22)" d="M199.315,204.929a2.554,2.554,0,1,0,3.613,0,2.556,2.556,0,0,0-3.613,0Zm2.92,2.92a1.571,1.571,0,1,1,0-2.223,1.573,1.573,0,0,1,0,2.223Zm-23.991-10.391a5.173,5.173,0,1,0,7.313,0,5.181,5.181,0,0,0-7.313,0Zm6.621,6.621a4.191,4.191,0,1,1,0-5.929,4.2,4.2,0,0,1,0,5.929Zm26.626-2.8H207a1.476,1.476,0,0,1-1.355-.893l-2.6-6.12a.09.09,0,0,1-.015-.019,2.55,2.55,0,0,0,1.07-2.351,2.621,2.621,0,0,0-2.292-2.267v-3.843c0-1.708-2.012-3.1-4.491-3.1H188.17c-2.474,0-4.491,1.389-4.491,3.1V189.6h-2.223a1.349,1.349,0,0,1-1.35-1.35V172.162a2.835,2.835,0,0,0-.736-1.924,2.455,2.455,0,0,0-1.821-.82,2.419,2.419,0,0,0-1.664.677v-.2a2.6,2.6,0,0,0-2.8-2.327h-2.257a.491.491,0,1,0,0,.981h2.267c1,0,1.821.6,1.821,1.345v15.961a.439.439,0,0,0,.088.26v6.032a2.548,2.548,0,0,0,.344,1.261c-.221.187-.417.363-.594.54a10.118,10.118,0,1,0,17.149,5.659h8.736v2.518a.487.487,0,0,0,.049.206,4.426,4.426,0,1,0,.883,0,.488.488,0,0,0,.049-.206v-7.416a2.153,2.153,0,0,0,.53-.069l2.6,6.12A2.443,2.443,0,0,0,207,202.259h4.5a.491.491,0,0,0,0-.981Zm-26.822-15.49c0-1.148,1.6-2.115,3.509-2.115h9.149c1.9,0,3.509.967,3.509,2.115V189.6H184.67v-3.809Zm3.7,21.786a9.11,9.11,0,0,1-6.464,2.67c-.137,0-.27-.015-.407-.019-.157,0-.314-.01-.471-.025s-.334-.044-.5-.074c-.123-.019-.25-.03-.373-.054-.191-.034-.378-.088-.564-.137-.1-.025-.2-.044-.289-.069a8.715,8.715,0,0,1-1.364-.54c-.093-.044-.191-.083-.28-.132-.108-.054-.211-.123-.314-.187-.157-.088-.314-.172-.466-.275-.083-.059-.167-.123-.25-.182a9.266,9.266,0,0,1-1.183-.987,9,9,0,0,1-2-3.023,9.162,9.162,0,0,1,2-9.9c.167-.167.344-.319.52-.471.108-.093.216-.182.344-.285a9.161,9.161,0,0,1,11.975.677l.132.132a9.149,9.149,0,0,1-.049,12.869Zm12.27-8.942H191.7a10,10,0,0,0-1.948-3.907v-.01h10.881v3.917Zm2.925,5.669a3.448,3.448,0,1,1-2.435-1.006,3.419,3.419,0,0,1,2.435,1.006Zm-2-10.567H188.822c-.059-.054-.118-.1-.176-.152-.157-.143-.319-.285-.486-.417a1,1,0,0,0-.088-.064,10.129,10.129,0,0,0-9.561-1.512c-.034.015-.074.025-.108.039q-.346.125-.677.28l-.162.074c-.216.1-.427.211-.638.329-.054.03-.1.064-.157.093-.211.123-.422.255-.623.4,0,0-.015.01-.019.015a1.48,1.48,0,0,1-.147-.658v-20a1.84,1.84,0,0,1,.481-1.257,1.487,1.487,0,0,1,2.2,0,1.854,1.854,0,0,1,.476,1.257v16.083a2.334,2.334,0,0,0,2.331,2.331h20a1.654,1.654,0,0,1,1.669,1.414,1.583,1.583,0,0,1-1.57,1.738Z" transform="translate(-170.334 -167.573)" fill="#3d3935"/>
</svg>
