<svg xmlns="http://www.w3.org/2000/svg" width="56.468" height="47.29" viewBox="0 0 56.468 47.29">
  <g id="download_18_" data-name="download (18)" transform="translate(-165.267 -197.934)">
    <path id="Path_185" data-name="Path 185" d="M362.587,514.782a2.845,2.845,0,1,1-2.844-2.845,2.845,2.845,0,0,1,2.844,2.845" transform="translate(-166.243 -272.403)" fill="#3d3935"/>
    <path id="Path_186" data-name="Path 186" d="M241.45,293.889a31.688,31.688,0,0,0-20.477,7.519,1.228,1.228,0,1,0,1.589,1.873,29.186,29.186,0,0,1,37.784.005,1.227,1.227,0,1,0,1.587-1.872,31.693,31.693,0,0,0-20.485-7.525Z" transform="translate(-47.95 -83.243)" fill="#3d3935"/>
    <path id="Path_187" data-name="Path 187" d="M221.276,207.758a44.181,44.181,0,0,0-55.553,0,1.227,1.227,0,0,0,1.542,1.91,41.729,41.729,0,0,1,52.471,0,1.227,1.227,0,1,0,1.541-1.911Z" fill="#3d3935"/>
    <path id="Path_188" data-name="Path 188" d="M289.728,389.83a18.889,18.889,0,0,0-13.161,5.317,1.228,1.228,0,0,0,1.7,1.77,16.489,16.489,0,0,1,22.971.055,1.228,1.228,0,0,0,1.711-1.761,18.877,18.877,0,0,0-13.225-5.382Z" transform="translate(-96.228 -166.473)" fill="#3d3935"/>
  </g>
</svg>
