<svg xmlns="http://www.w3.org/2000/svg" width="44.424" height="44.424" viewBox="0 0 44.424 44.424">
  <path id="women" d="M230.745,216.342a.559.559,0,0,0-.522-.051,3.064,3.064,0,0,1-2.837-.241c-.875-.735-1.674-2.708-.507-7.936.044-.2.18-.671.353-1.269.732-2.542,2.256-7.832,2.076-10.521a8.537,8.537,0,0,0-4.05-6.191,6.678,6.678,0,0,0-5.984-.607,6.582,6.582,0,0,0-6.85-2.82l-2.517.531a5.418,5.418,0,0,1-2.254,0l-2.517-.531a6.569,6.569,0,0,0-7.824,5.276L196.19,198.2c-3.661.921-5.522,2.167-5.522,3.709s2.079,2.761,5.2,3.61l-.049,1.96a12.955,12.955,0,0,0,6.353,11.16v6.63c-7.782.2-15.019,4.5-15.33,4.692a.555.555,0,1,0,.573.951c.075-.045,7.54-4.486,15.176-4.539a12.745,12.745,0,0,0,6.28,1.527,12.9,12.9,0,0,0,6.306-1.527c7.622.052,14.9,4.491,14.973,4.536a.555.555,0,0,0,.584-.944c-.3-.187-7.36-4.495-15.137-4.695v-6.738c.211-.13.414-.272.616-.413.512,3.173,3.5,5.463,7.349,5.463,4.1,0,7.435-3.038,7.435-6.771a.556.556,0,0,0-.247-.462Zm-30.017-27.734a5.41,5.41,0,0,1,3.038-.935,5.5,5.5,0,0,1,1.141.12l2.517.531a6.533,6.533,0,0,0,2.712,0l2.517-.531a5.459,5.459,0,0,1,6.5,4.386v0l.341,1.888c-8.107,2.192-18.935.42-21.422-.04l.334-1.849a5.413,5.413,0,0,1,2.322-3.571Zm-3.5,10.093.646-3.578a69.429,69.429,0,0,0,12.136,1.145,38.282,38.282,0,0,0,9.682-1.107l.652,3.609a1.261,1.261,0,0,1-.951,1.456c-8.543,1.994-17.653.62-21.171-.064a1.261,1.261,0,0,1-.993-1.46Zm-5.45,3.2c0-.336.335-1.482,4.365-2.548a2.37,2.37,0,0,0,1.866,1.9,62.752,62.752,0,0,0,11.6,1.12,44.54,44.54,0,0,0,10.034-1.065,2.362,2.362,0,0,0,1.793-1.944c3.189.871,4.342,1.9,4.342,2.542,0,1.647-6.468,3.944-17,3.944s-17-2.3-17-3.944Zm5.146,5.584.043-1.7a60.21,60.21,0,0,0,23.668-.01v1.7a11.852,11.852,0,0,1-8.14,11.279,14.851,14.851,0,0,1-7.422,0,11.851,11.851,0,0,1-8.148-11.268Zm17.556,18a12.622,12.622,0,0,1-11.2,0v-6.271a13.174,13.174,0,0,0,1.479.6,15.694,15.694,0,0,0,4.032.518,14.614,14.614,0,0,0,4.048-.528,13.052,13.052,0,0,0,1.646-.679Zm9.076-3.024c-3.534,0-6.209-2.2-6.315-5.146a12.972,12.972,0,0,0,4.5-9.845V205.5c3.09-.848,5.146-2.056,5.146-3.6,0-1.87-2.925-3.038-5.523-3.708l-1.122-6.213a6.652,6.652,0,0,0-.452-1.478,5.565,5.565,0,0,1,4.884.576,7.368,7.368,0,0,1,3.52,5.317c.167,2.494-1.32,7.658-2.035,10.139-.185.64-.318,1.1-.369,1.335-1.034,4.634-.739,7.672.877,9.029a3.716,3.716,0,0,0,3.154.654,6.142,6.142,0,0,1-6.269,4.911Z" transform="translate(-186.568 -186.562)" fill="#3d3935"/>
</svg>
