<svg xmlns="http://www.w3.org/2000/svg" width="50" height="50" viewBox="0 0 50 50">
  <g id="wraptz" transform="translate(-2 -2)">
    <circle id="Ellipse_8" data-name="Ellipse 8" cx="1.5" cy="1.5" r="1.5" transform="translate(34 28.999)" fill="#3d3935"/>
    <path id="Path_225" data-name="Path 225" d="M40.437,49.8a.845.845,0,0,0,.458,0c.263-.076,6.438-1.9,6.438-6.635a4.151,4.151,0,0,0-6.667-3.318A4.151,4.151,0,0,0,34,43.167C34,47.907,40.175,49.726,40.437,49.8Zm-2.271-9.135a2.462,2.462,0,0,1,1.873.865.862.862,0,0,0,1.255,0,2.462,2.462,0,0,1,1.872-.865,2.5,2.5,0,0,1,2.5,2.5c0,3.059-3.993,4.614-5,4.958-1.01-.342-5-1.888-5-4.958A2.5,2.5,0,0,1,38.167,40.667Z" transform="translate(-5.333 -6.167)" fill="#3d3935"/>
    <path id="Path_226" data-name="Path 226" d="M51.167,12H41.512l2.744-2.744a.833.833,0,0,0-.589-1.422H39.5v-5a.833.833,0,0,0-1.354-.651L31.155,7.775A.828.828,0,0,0,30.333,7H23.667a.828.828,0,0,0-.822.775L15.854,2.182a.833.833,0,0,0-1.354.651v5H10.333a.833.833,0,0,0-.589,1.422L12.488,12H2.833A.833.833,0,0,0,2,12.833v7.5a.833.833,0,0,0,.833.833h2.5v30A.833.833,0,0,0,6.167,52H47.833a.833.833,0,0,0,.833-.833v-30h2.5A.833.833,0,0,0,52,20.333v-7.5A.833.833,0,0,0,51.167,12Zm-12.5-2.5h2.988l-2.5,2.5H36.512l1.077-1.077L36.411,9.744,34.155,12H31.167V9.9l6.667-5.333v4.1A.833.833,0,0,0,38.667,9.5ZM33.9,21.167a1.679,1.679,0,0,0,.6.6v2.387l-3.333,3.333V21.167Zm1.435,4.512,7.5,7.5V46.167h-15V33.178ZM31.167,19.5H22.833V13.667h8.333ZM29.5,8.667V12h-5V8.667ZM12.345,9.5h2.988a.833.833,0,0,0,.833-.833v-4.1L22.833,9.9V12H19.827L17.592,9.75l-1.183,1.167L17.48,12H14.845ZM3.667,13.667h17.5V19.5H3.667ZM7,40.333H17.833V38.667H7V35.333H17.833V33.667H7v-12.5H22.833V50.333H7Zm24.167,10V48.667H29.5v1.667h-5V21.167h5v7.988l-3.089,3.089a.833.833,0,0,0-.244.589V47a.833.833,0,0,0,.833.833H43.667A.833.833,0,0,0,44.5,47V40.333H47v10Zm13.333-15H47v3.333H44.5ZM47,33.667H44.5v-.833a.833.833,0,0,0-.244-.589l-8.089-8.089V21.768a1.679,1.679,0,0,0,.6-.6H47ZM50.333,19.5H36.768a1.652,1.652,0,0,0-2.87,0H32.833V13.667h17.5Z" fill="#3d3935"/>
    <rect id="Rectangle_103" data-name="Rectangle 103" width="1" height="1" transform="translate(20 33.999)" fill="#3d3935"/>
    <rect id="Rectangle_104" data-name="Rectangle 104" width="1" height="1" transform="translate(20 38.999)" fill="#3d3935"/>
  </g>
</svg>
