<?xml version="1.0" encoding="utf-8"?>
<!-- Generator: Adobe Illustrator 24.2.1, SVG Export Plug-In . SVG Version: 6.00 Build 0)  -->
<svg version="1.1" id="Layer_1" xmlns="http://www.w3.org/2000/svg" xmlns:xlink="http://www.w3.org/1999/xlink" x="0px" y="0px"
	 viewBox="0 0 38 24" style="enable-background:new 0 0 38 24;" xml:space="preserve">
<style type="text/css">
	.st0{opacity:7.000000e-02;}
	.st1{fill:#FFFFFF;}
</style>
<path class="st0" d="M34.6,0H3.4C3.3,0,3.1,0,3,0C2.9,0,2.8,0,2.7,0C2.4,0,2.2,0,2,0.1c-0.2,0-0.5,0.1-0.7,0.2c-0.4,0.2-0.8,0.6-1,1
	C0.2,1.5,0.1,1.7,0.1,1.9C0,2.2,0,2.4,0,2.6C0,2.8,0,2.9,0,3c0,0.1,0,0.3,0,0.4v17.3c0,0.1,0,0.3,0,0.4c0,0.1,0,0.2,0,0.3
	c0,0.2,0,0.5,0.1,0.7c0,0.2,0.1,0.5,0.2,0.7c0.1,0.2,0.3,0.4,0.4,0.6c0.2,0.2,0.4,0.3,0.6,0.4c0.2,0.1,0.4,0.2,0.7,0.2
	C2.2,24,2.4,24,2.7,24c0.1,0,0.2,0,0.3,0c0.1,0,0.3,0,0.4,0h31.2c0.1,0,0.3,0,0.4,0c0.1,0,0.2,0,0.3,0c0.2,0,0.5,0,0.7-0.1
	c0.2,0,0.5-0.1,0.7-0.2c0.4-0.2,0.8-0.6,1-1c0.1-0.2,0.2-0.4,0.2-0.7c0-0.2,0.1-0.5,0.1-0.7c0-0.1,0-0.2,0-0.3c0-0.1,0-0.3,0-0.4
	V3.4c0-0.1,0-0.3,0-0.4c0-0.1,0-0.2,0-0.3c0-0.2,0-0.5-0.1-0.7c0-0.2-0.1-0.5-0.2-0.7c-0.2-0.4-0.6-0.8-1-1
	c-0.2-0.1-0.4-0.2-0.7-0.2C35.8,0,35.6,0,35.3,0c-0.1,0-0.2,0-0.3,0C34.9,0,34.7,0,34.6,0z"/>
<path class="st1" d="M34.4,1l0.4,0c0.1,0,0.2,0,0.3,0c0.2,0,0.4,0,0.6,0c0.2,0,0.3,0.1,0.5,0.1c0.3,0.1,0.5,0.4,0.6,0.6
	c0.1,0.1,0.1,0.3,0.1,0.4c0,0.2,0,0.4,0,0.6c0,0.1,0,0.2,0,0.3c0,0.1,0,0.2,0,0.4v17c0,0.1,0,0.2,0,0.4c0,0.1,0,0.2,0,0.3
	c0,0.2,0,0.4-0.1,0.6c0,0.2-0.1,0.3-0.1,0.4c-0.1,0.3-0.4,0.5-0.6,0.6c-0.1,0.1-0.3,0.1-0.4,0.1c-0.2,0-0.4,0-0.6,0
	c-0.1,0-0.2,0-0.3,0c-0.1,0-0.3,0-0.4,0H3.6c-0.1,0-0.2,0-0.4,0c-0.1,0-0.2,0-0.3,0c-0.2,0-0.4,0-0.6,0c-0.2,0-0.3-0.1-0.5-0.1
	c-0.1-0.1-0.3-0.2-0.4-0.3c-0.1-0.1-0.2-0.2-0.3-0.4c-0.1-0.1-0.1-0.3-0.1-0.4c0-0.2,0-0.4,0-0.6c0-0.1,0-0.2,0-0.3l0-0.3V3.4l0-0.3
	C1,3,1,2.9,1,2.8c0-0.2,0-0.4,0.1-0.6c0-0.2,0.1-0.3,0.1-0.4c0.1-0.1,0.2-0.3,0.3-0.4c0.1-0.1,0.2-0.2,0.4-0.3
	C2,1.1,2.1,1.1,2.3,1.1c0.2,0,0.4,0,0.6,0C3,1,3.1,1,3.2,1l0.4,0H34.4"/>
<g>
	<g>
		<path d="M10.1,8.1c0.3-0.4,0.5-0.9,0.5-1.5c-0.5,0-1,0.3-1.4,0.7C8.9,7.7,8.7,8.2,8.7,8.7C9.3,8.8,9.8,8.5,10.1,8.1"/>
		<path d="M10.6,8.9c-0.8,0-1.4,0.4-1.8,0.4c-0.4,0-0.9-0.4-1.5-0.4c-0.8,0-1.5,0.5-1.9,1.2c-0.8,1.4-0.2,3.5,0.6,4.6
			c0.4,0.6,0.8,1.2,1.5,1.2c0.6,0,0.8-0.4,1.5-0.4c0.7,0,0.9,0.4,1.5,0.4c0.6,0,1-0.6,1.4-1.1c0.4-0.6,0.6-1.3,0.6-1.3
			c0,0-1.2-0.5-1.2-1.9c0-1.2,1-1.7,1-1.8C11.7,9,10.9,8.9,10.6,8.9"/>
	</g>
	<g>
		<path d="M18.1,7.3c1.6,0,2.8,1.1,2.8,2.8c0,1.7-1.2,2.8-2.8,2.8h-1.8v2.9H15V7.3C15,7.3,18.1,7.3,18.1,7.3z M16.3,11.8h1.5
			c1.1,0,1.8-0.6,1.8-1.7c0-1.1-0.7-1.7-1.8-1.7h-1.5C16.3,8.4,16.3,11.8,16.3,11.8z"/>
		<path d="M21.3,14c0-1.1,0.8-1.7,2.4-1.8l1.6-0.1v-0.5c0-0.7-0.5-1.1-1.3-1.1c-0.7,0-1.1,0.3-1.2,0.9h-1.2c0-1.1,1.1-1.9,2.5-1.9
			c1.5,0,2.5,0.8,2.5,2v4.2h-1.2v-1h0c-0.3,0.7-1.1,1.1-1.9,1.1C22.1,15.8,21.3,15.1,21.3,14z M25.3,13.5V13l-1.5,0.1
			c-0.8,0.1-1.3,0.4-1.3,0.9c0,0.5,0.4,0.9,1.1,0.9C24.6,14.8,25.3,14.3,25.3,13.5z"/>
		<path d="M27.7,18v-1c0.1,0,0.3,0,0.4,0c0.6,0,0.9-0.2,1.1-0.9l0.1-0.4L27,9.6h1.4l1.6,5h0l1.6-5h1.3l-2.3,6.5
			c-0.5,1.5-1.1,2-2.4,2C28.1,18.1,27.7,18.1,27.7,18z"/>
	</g>
</g>
</svg>
