<svg xmlns="http://www.w3.org/2000/svg" width="41.949" height="36.915" viewBox="0 0 41.949 36.915">
  <path id="download_5_" data-name="download (5)" d="M239.516,254.951h-2.4V244.6h.951a.86.86,0,0,0,.839-.839V235.6a.86.86,0,0,0-.839-.839h-.951v-5.2h.951a.86.86,0,0,0,.839-.839v-8.165a.86.86,0,0,0-.839-.839H200.7a.86.86,0,0,0-.839.839v8.166a.86.86,0,0,0,.839.839h.951v5.2H200.7a.86.86,0,0,0-.839.839v8.165a.861.861,0,0,0,.839.839h.951v10.347h-2.4a.839.839,0,1,0,0,1.678h40.271a.839.839,0,0,0,0-1.678ZM201.65,236.438h35.46v6.488H201.65Zm0-15.045h35.46v6.488H201.65Zm1.678,8.166h32.105v5.2H203.328Zm27.687,25.392h-2.8V247.4h2.8Zm-7.215,0V247.4h2.8v7.551Zm11.634,0h-2.741v-8.389a.861.861,0,0,0-.839-.839H222.9a.86.86,0,0,0-.839.839v8.389H203.328V244.6h32.105Z" transform="translate(-198.406 -219.714)" fill="#3d3935"/>
</svg>
