<svg id="Layer_1" data-name="Layer 1" xmlns="http://www.w3.org/2000/svg" viewBox="0 0 100 100"><defs><style>.cls-1{fill:#fff;stroke:#000;stroke-miterlimit:10;stroke-width:5px;}.cls-2{font-size:10px;font-family:UniversLTPro-65Bold, Univers LT Pro;font-weight:700;}.cls-3{letter-spacing:-0.02em;}.cls-4{letter-spacing:0em;}.cls-5{letter-spacing:-0.04em;}.cls-6{letter-spacing:-0.04em;}.cls-7{letter-spacing:0em;}</style></defs><rect class="cls-1" x="30" y="7.85" width="40" height="40" rx="8"/><path d="M49.81,17.37a12.37,12.37,0,0,1,4.73.68,5.38,5.38,0,0,1,3.34,5.34A7.11,7.11,0,0,1,57,26.93c-1.29,2.23-3.32,2.82-5.85,2.82H47.73v7.9H43.31V17.37Zm-.14,9.14c2.62,0,3.71-1,3.71-3.09,0-1.86-1-2.76-3.29-2.76H47.62v5.85Z"/><path d="M38.14,80.3c-.13-.3-.25-.6-.37-.9l-.6-1.47-.54-1.35c-.2-.49-.39-1-.59-1.46s-.35-.86-.52-1.29l-.6-1.47L34.38,71c0-.06-.05-.13-.08-.19h0L32.36,80.1h-.7L34,68.73h0c.12,0,.12,0,.16.1.26.63.5,1.25.76,1.87.33.84.67,1.67,1,2.51.21.52.43,1,.64,1.58l.73,1.8c.22.55.44,1.1.67,1.65.06.15.12.31.19.47q.09-.24.18-.45c.22-.53.43-1.06.64-1.58l.59-1.44.63-1.57.56-1.37c.21-.52.42-1.05.64-1.57L42,69.28l.21-.52c0-.07.08,0,.13,0s0,0,0,.06c.1.49.21,1,.31,1.47s.19.94.29,1.41.21,1,.32,1.51.16.82.25,1.22l.3,1.45c.11.52.21,1,.32,1.54l.27,1.27c.1.48.19,1,.3,1.45h-.66s0,0,0,0c-.06-.26-.11-.53-.17-.79l-.24-1.16c-.08-.4-.16-.81-.25-1.21s-.16-.76-.23-1.14-.14-.69-.22-1l-.24-1.14-.24-1.22-.27-1.26-.06-.31,0,0-.75,1.87-.82,2-.6,1.5c-.28.67-.55,1.34-.82,2s-.56,1.36-.83,2a0,0,0,0,0,0,0Z"/><path d="M68.34,76.75a.8.8,0,0,0,0,.15,3.29,3.29,0,0,1-.25,1,3.62,3.62,0,0,1-.7,1.1,3.87,3.87,0,0,1-2,1.15,5.62,5.62,0,0,1-.7.1,3.39,3.39,0,0,1-.45,0,3.73,3.73,0,0,1-1.39-.3,3.94,3.94,0,0,1-1.15-.73,3.62,3.62,0,0,1-1.06-1.65,3.2,3.2,0,0,1-.17-.87,3.67,3.67,0,0,1,.43-2,3.57,3.57,0,0,1,.8-1,3.93,3.93,0,0,1,1.81-.93,3.09,3.09,0,0,1,.52-.07l.52,0a3.89,3.89,0,0,1,1,.17,3.81,3.81,0,0,1,1.3.66,3.61,3.61,0,0,1,1,1.14,3.89,3.89,0,0,1,.41,1.14c0,.12,0,.24,0,.36s0,0,0,0Zm-.74-.29h0c0-.21,0-.42-.07-.63a3,3,0,0,0-1.28-2,3.29,3.29,0,0,0-1.89-.58,3.6,3.6,0,0,0-.66.07,2.94,2.94,0,0,0-1.47.74,3.14,3.14,0,0,0-.6,3.92,3.21,3.21,0,0,0,1.2,1.17,3.12,3.12,0,0,0,2.18.31,3.17,3.17,0,0,0,1.76-1,2.75,2.75,0,0,0,.48-.69A3,3,0,0,0,67.6,76.46Z"/><path d="M60.24,71.17l-.28-.3a5.37,5.37,0,0,0-2.68-1.39,4.61,4.61,0,0,0-1.11-.07,4.87,4.87,0,0,0-1.83.48,5.75,5.75,0,0,0-1.1.71A5.55,5.55,0,0,0,52,72a5.06,5.06,0,0,0-.59,1.6c0,.23-.06.47-.08.72a4.41,4.41,0,0,0,.2,1.57,5,5,0,0,0,.85,1.61,5.13,5.13,0,0,0,1.13,1,5.71,5.71,0,0,0,1.61.78,3.39,3.39,0,0,0,.84.17,5.31,5.31,0,0,0,.69,0,5,5,0,0,0,1-.18,5.9,5.9,0,0,0,1.22-.5,4.29,4.29,0,0,0,.84-.57l.46-.44v.91s0,.08-.05.1a6.21,6.21,0,0,1-1.19.77,5.43,5.43,0,0,1-1.52.5,4.64,4.64,0,0,1-.64.07,3.11,3.11,0,0,1-.61,0A5.83,5.83,0,0,1,53,79a5.69,5.69,0,0,1-1.05-1,5.93,5.93,0,0,1-.74-1.17,4.65,4.65,0,0,1-.41-1.26c0-.26-.07-.51-.09-.77a4.43,4.43,0,0,1,0-.52,5.79,5.79,0,0,1,1-3,6.15,6.15,0,0,1,.61-.74,5.47,5.47,0,0,1,1.31-1,5.8,5.8,0,0,1,1.7-.67,5.32,5.32,0,0,1,.88-.12c.22,0,.43,0,.65,0a5.13,5.13,0,0,1,1.29.22,5.61,5.61,0,0,1,1.61.79,6.4,6.4,0,0,1,.51.4.12.12,0,0,1,0,.08v.94Z"/><path d="M48.06,75.79l1.65,2.26.92-.8.43.44-1,.87,1.18,1.57h-.72a.11.11,0,0,1-.08,0c-.27-.37-.55-.73-.82-1.09l0,0-.31.25a6.21,6.21,0,0,1-1.16.75,3.21,3.21,0,0,1-.86.28,2,2,0,0,1-1.58-.41,2,2,0,0,1-.55-2.51,3.07,3.07,0,0,1,.67-.85,8,8,0,0,1,.82-.62l.45-.29c-.13-.18-.26-.37-.38-.56a1.87,1.87,0,0,1-.31-.79,1.37,1.37,0,0,1,.23-1,1.47,1.47,0,0,1,1-.67,1.42,1.42,0,0,1,1.7,1.22,1.5,1.5,0,0,1-.15.91,1.81,1.81,0,0,1-.47.59Zm-.53.33-.59.38a4.37,4.37,0,0,0-1,.83,1.42,1.42,0,0,0-.3.7,1.55,1.55,0,0,0,.19.92,1.29,1.29,0,0,0,1.33.66,2.4,2.4,0,0,0,.9-.34,7.83,7.83,0,0,0,.94-.65l.23-.19Zm.13-.88.24-.18a2.85,2.85,0,0,0,.56-.48.93.93,0,0,0,.2-.85.77.77,0,0,0-.93-.55.84.84,0,0,0-.58.55.88.88,0,0,0-.06.36,1.26,1.26,0,0,0,.2.6Z"/><text class="cls-2" transform="translate(24.82 64.14)">Dedica<tspan class="cls-3" x="32.23" y="0">t</tspan><tspan class="cls-4" x="35.92" y="0">ed </tspan></text><text class="cls-2" transform="translate(32.34 93.6)"><tspan class="cls-5">P</tspan><tspan x="5.71" y="0">a</tspan><tspan class="cls-6" x="11.27" y="0">r</tspan><tspan class="cls-7" x="14.76" y="0">king</tspan></text></svg>