<svg xmlns="http://www.w3.org/2000/svg" width="46.791" height="50" viewBox="0 0 46.791 50">
  <path id="footwear" d="M12.515,0H11.52A9.349,9.349,0,0,0,3.042,5.41a25.31,25.31,0,0,0-1.1,18.47l.477,1.451q.435,1.368.746,2.736v.1a34.036,34.036,0,0,1,.788,5.1l.684,8.913A8.167,8.167,0,1,0,20.89,40.712L20.372,35.7A34.016,34.016,0,0,1,21.512,22.8v-.269a27.839,27.839,0,0,0-.166-15.878A9.287,9.287,0,0,0,12.515,0Zm5.8,35.923.518,5.016a6.094,6.094,0,1,1-12.126,1.1l-.663-8.872A36.214,36.214,0,0,0,5.24,27.88c1.741-10.675,4.851-15.443,7.193-15.443s4.975,4.747,6.55,12.106a36.006,36.006,0,0,0-.663,11.38Zm1.658-15.692c-1.223-4.146-3.234-8.582-6.219-9.618V7.255a1.036,1.036,0,1,0-2.073,0v3.109c-4.146.746-6.467,7.587-7.711,13v-.207A23.237,23.237,0,0,1,4.929,6.219,7.276,7.276,0,0,1,11.52,2.073h.995a7.214,7.214,0,0,1,6.944,5.12,25.766,25.766,0,0,1,.518,13.038ZM45.2,5.41A9.349,9.349,0,0,0,36.727,0h-.995a9.287,9.287,0,0,0-8.913,6.592,27.8,27.8,0,0,0-.166,15.878v.269a34,34,0,0,1,1.119,12.976l-.518,5.016A8.167,8.167,0,1,0,43.505,42.2l.684-8.913a34.058,34.058,0,0,1,.788-5.1v-.1q.311-1.4.746-2.736L46.2,23.9A25.31,25.31,0,0,0,45.2,5.41ZM42.2,33.166l-.684,8.913a6.094,6.094,0,1,1-12.126-1.1l.518-5.016a36.006,36.006,0,0,0-.643-11.38c1.575-7.359,4.146-12.106,6.55-12.106s5.452,4.768,7.193,15.4a36.212,36.212,0,0,0-.808,5.286ZM44.272,23.3v.207c-1.244-5.452-3.565-12.292-7.711-13.142V7.255a1.036,1.036,0,0,0-2.073,0v3.358c-3.026,1.036-5.016,5.472-6.219,9.618a25.787,25.787,0,0,1,.56-13.038,7.214,7.214,0,0,1,6.9-5.12h1.016a7.276,7.276,0,0,1,6.592,4.146,23.237,23.237,0,0,1,.995,17.039Z" transform="translate(-0.7)" fill="#3d3935"/>
</svg>
