<svg id="Layer_1" data-name="Layer 1" xmlns="http://www.w3.org/2000/svg" viewBox="0 0 100 100"><defs><style>.cls-1{fill:none;stroke:#000;stroke-linecap:round;stroke-miterlimit:10;stroke-width:5px;}.cls-2{font-size:12px;font-family:UniversLTPro-65Bold, Univers LT Pro;font-weight:700;}.cls-3{letter-spacing:-0.02em;}.cls-4{letter-spacing:-0.03em;}.cls-5{letter-spacing:-0.12em;}</style></defs><path class="cls-1" d="M23.85,28.85a36.94,36.94,0,0,1,52.3,0"/><path class="cls-1" d="M29.5,34.5a29,29,0,0,1,41,0"/><path class="cls-1" d="M35.16,40.16a21,21,0,0,1,29.68,0"/><path class="cls-1" d="M40.81,45.81a13,13,0,0,1,18.38,0"/><path d="M55,53a5,5,0,1,1-1.46-3.54A5,5,0,0,1,55,53Z"/><text class="cls-2" transform="translate(24.04 75.36)"><tspan class="cls-3">F</tspan><tspan class="cls-4" x="6.43" y="0">r</tspan><tspan x="10.74" y="0">ee</tspan><tspan class="cls-5" x="24.08" y="0"> </tspan><tspan x="25.92" y="0">WiFi</tspan></text></svg>