<svg xmlns="http://www.w3.org/2000/svg" xmlns:xlink="http://www.w3.org/1999/xlink" width="114" height="114" viewBox="0 0 114 114">
  <defs>
    <filter id="Ellipse_42" x="0" y="0" width="114" height="114" filterUnits="userSpaceOnUse">
      <feOffset dy="3" input="SourceAlpha"/>
      <feGaussianBlur stdDeviation="3" result="blur"/>
      <feFlood flood-opacity="0.161"/>
      <feComposite operator="in" in2="blur"/>
      <feComposite in="SourceGraphic"/>
    </filter>
  </defs>
  <g id="Group_321" data-name="Group 321" transform="translate(-415 -1543)">
    <g transform="matrix(1, 0, 0, 1, 415, 1543)" filter="url(#Ellipse_42)">
      <circle id="Ellipse_42-2" data-name="Ellipse 42" cx="48" cy="48" r="48" transform="translate(9 6)" fill="#da261b"/>
    </g>
    <g id="Group_320" data-name="Group 320" transform="translate(64 181.532)">
      <g id="business" transform="translate(382 1391.565)">
        <path id="Path_284" data-name="Path 284" d="M55.964,54.149a.51.51,0,0,0,.51,0L68.2,47.377a.509.509,0,0,0,.255-.442V33.392a.508.508,0,0,0-.255-.442l-11.73-6.773a.512.512,0,0,0-.51,0L44.234,32.95a.508.508,0,0,0-.255.442V46.936a.508.508,0,0,0,.255.442Zm.255-26.941L66.875,33.36l-5.328,3.076a.51.51,0,0,0,.256.952.5.5,0,0,0,.255-.068l5.383-3.108V46.641L56.73,52.824V48.831a.51.51,0,0,0-1.02,0v3.993L45,46.641v-12.3l5.382,3.107a.51.51,0,1,0,.511-.883l-5.436-3.139Z" transform="translate(-22.58 -24.534)" fill="#fff"/>
        <path id="Path_285" data-name="Path 285" d="M58.957,36.431a.51.51,0,1,0,0-1.02H56.689V33.691a.51.51,0,0,0-1.02,0v1.721h-.3a2.466,2.466,0,1,0,0,4.933h.3v2.882H53.388a.51.51,0,0,0,0,1.02h2.281v2.292a.51.51,0,0,0,1.02,0V44.246h.318a2.457,2.457,0,0,0,.1-4.912.434.434,0,0,0-.05-.01h-.368V36.43h2.268Zm-1.95,3.913a1.441,1.441,0,0,1,0,2.883h-.318V40.345h.318Zm-1.338-1.02h-.3a1.446,1.446,0,1,1,0-2.893h.3Zm.51-7.1a1.53,1.53,0,1,0-1.53-1.53A1.532,1.532,0,0,0,56.179,32.225Zm0-2.04a.51.51,0,1,1-.51.51A.51.51,0,0,1,56.179,30.185Zm-7.9,13.465a1.532,1.532,0,1,0,.711.928A1.526,1.526,0,0,0,48.275,43.65Zm-.323,1.579a.508.508,0,0,1-.7.187h0a.512.512,0,0,1-.187-.7.5.5,0,0,1,.309-.238.538.538,0,0,1,.133-.017.519.519,0,0,1,.255.068A.512.512,0,0,1,47.952,45.229Zm16.5,1.223a1.517,1.517,0,0,0,1.161-.153h0a1.53,1.53,0,1,0-1.529-2.65,1.53,1.53,0,0,0,.368,2.8Zm.142-1.919a.51.51,0,1,1,.51.882h0a.512.512,0,0,1-.387.051.509.509,0,0,1-.122-.933Z" transform="translate(-22.54 -24.473)" fill="#fff"/>
        <circle id="Ellipse_22" data-name="Ellipse 22" cx="0.51" cy="0.51" r="0.51" transform="translate(24.48 16.932)" fill="#fff"/>
        <circle id="Ellipse_23" data-name="Ellipse 23" cx="0.51" cy="0.51" r="0.51" transform="translate(24.48 14.892)" fill="#fff"/>
        <circle id="Ellipse_24" data-name="Ellipse 24" cx="0.51" cy="0.51" r="0.51" transform="translate(24.48 12.852)" fill="#fff"/>
        <circle id="Ellipse_25" data-name="Ellipse 25" cx="0.51" cy="0.51" r="0.51" transform="translate(41.82 16.932)" fill="#fff"/>
        <circle id="Ellipse_26" data-name="Ellipse 26" cx="0.51" cy="0.51" r="0.51" transform="translate(41.82 14.892)" fill="#fff"/>
        <circle id="Ellipse_27" data-name="Ellipse 27" cx="0.51" cy="0.51" r="0.51" transform="translate(41.82 12.852)" fill="#fff"/>
        <circle id="Ellipse_28" data-name="Ellipse 28" cx="0.51" cy="0.51" r="0.51" transform="translate(26.605 9.228) rotate(-29.939)" fill="#fff"/>
        <circle id="Ellipse_29" data-name="Ellipse 29" cx="0.51" cy="0.51" r="0.51" transform="matrix(0.867, -0.499, 0.499, 0.867, 28.371, 8.214)" fill="#fff"/>
        <circle id="Ellipse_30" data-name="Ellipse 30" cx="0.51" cy="0.51" r="0.51" transform="matrix(0.867, -0.499, 0.499, 0.867, 30.139, 7.193)" fill="#fff"/>
        <circle id="Ellipse_31" data-name="Ellipse 31" cx="0.51" cy="0.51" r="0.51" transform="translate(35.258 24.253) rotate(-29.939)" fill="#fff"/>
        <circle id="Ellipse_32" data-name="Ellipse 32" cx="0.51" cy="0.51" r="0.51" transform="translate(37.026 23.236) rotate(-29.939)" fill="#fff"/>
        <circle id="Ellipse_33" data-name="Ellipse 33" cx="0.51" cy="0.51" r="0.51" transform="translate(38.794 22.217) rotate(-29.939)" fill="#fff"/>
        <circle id="Ellipse_34" data-name="Ellipse 34" cx="0.51" cy="0.51" r="0.51" transform="matrix(0.499, -0.867, 0.867, 0.499, 39.294, 9.608)" fill="#fff"/>
        <circle id="Ellipse_35" data-name="Ellipse 35" cx="0.51" cy="0.51" r="0.51" transform="matrix(0.499, -0.867, 0.867, 0.499, 37.526, 8.59)" fill="#fff"/>
        <circle id="Ellipse_36" data-name="Ellipse 36" cx="0.51" cy="0.51" r="0.51" transform="matrix(0.499, -0.867, 0.867, 0.499, 35.758, 7.571)" fill="#fff"/>
        <circle id="Ellipse_37" data-name="Ellipse 37" cx="0.51" cy="0.51" r="0.51" transform="translate(30.639 24.627) rotate(-60.061)" fill="#fff"/>
        <circle id="Ellipse_38" data-name="Ellipse 38" cx="0.51" cy="0.51" r="0.51" transform="matrix(0.499, -0.867, 0.867, 0.499, 28.87, 23.615)" fill="#fff"/>
        <circle id="Ellipse_39" data-name="Ellipse 39" cx="0.51" cy="0.51" r="0.51" transform="translate(27.104 22.591) rotate(-60.061)" fill="#fff"/>
        <path id="Path_286" data-name="Path 286" d="M70.279,56.717l-9.686,4.536a3.012,3.012,0,0,0,.147-.887,3.064,3.064,0,0,0-3.06-3.06H49.218a7.106,7.106,0,0,0-6.838-5.1H33.2v-1.53a.51.51,0,0,0-.51-.51H23.51a.51.51,0,0,0-.51.51v17.34a.51.51,0,0,0,.51.51h9.18a.51.51,0,0,0,.51-.51V66.344l16.824,5.692a6.433,6.433,0,0,0,1.9.283,6.048,6.048,0,0,0,3.546-1.1L72.2,62.136l.333-.227a2.843,2.843,0,0,0-2.256-5.191ZM32.18,67.506H24.02V51.186h8.16Zm39.844-6.479-17.1,9.331a5.29,5.29,0,0,1-4.585.706L33.2,65.267V53.226h9.18a6.093,6.093,0,0,1,5.95,4.707.508.508,0,0,0,.5.393H57.68a2.04,2.04,0,0,1,0,4.08H47.961a.51.51,0,1,0,0,1.02H57.68a3.031,3.031,0,0,0,1.281-.29c.014-.005.03,0,.044-.01l11.651-5.461a1.776,1.776,0,0,1,2.208,1.12A1.812,1.812,0,0,1,72.024,61.027ZM26.549,47.106a1.532,1.532,0,0,0,1.53-1.53,1.512,1.512,0,0,0-.309-.912l2.487-3.729a1.463,1.463,0,0,0,1.176-.183l2.857,2.286a1.528,1.528,0,1,0,2.594-.495L39.537,37.9a1.493,1.493,0,0,0,.271.028,1.53,1.53,0,1,0-1.53-1.53,1.515,1.515,0,0,0,.375.992L36,42.033a1.492,1.492,0,0,0-.271-.028,1.515,1.515,0,0,0-.8.234l-2.857-2.286a1.5,1.5,0,0,0,.091-.5,1.53,1.53,0,1,0-3.06,0,1.512,1.512,0,0,0,.309.912L26.921,44.1a1.505,1.505,0,0,0-.373-.051,1.531,1.531,0,0,0,0,3.061Zm13.26-11.22a.51.51,0,1,1-.51.51A.51.51,0,0,1,39.809,35.886Zm-4.08,7.14a.51.51,0,1,1-.51.51A.51.51,0,0,1,35.729,43.026Zm-5.1-4.08a.51.51,0,1,1-.51.51A.51.51,0,0,1,30.629,38.946Zm-4.08,6.12a.51.51,0,1,1-.51.51A.51.51,0,0,1,26.549,45.066Zm43.787-13.69a.512.512,0,0,0,.722,0l.395-.395.395.395a.51.51,0,0,0,.722-.721l-.395-.395.395-.395a.51.51,0,1,0-.721-.721l-.4.395-.395-.395a.51.51,0,1,0-.721.721l.395.395-.395.395A.509.509,0,0,0,70.335,31.375Zm-5.073-4.67h.558v.558a.51.51,0,0,0,1.02,0v-.558H67.4a.51.51,0,1,0,0-1.02H66.84v-.558a.51.51,0,0,0-1.02,0v.558h-.558a.51.51,0,0,0,0,1.02ZM47.968,27.728a.512.512,0,0,0,.361-.149l2.04-2.04a.51.51,0,0,0-.721-.721l-2.04,2.04a.51.51,0,0,0,0,.721A.5.5,0,0,0,47.968,27.728Zm-7.186,3.058h2.136a.51.51,0,1,0,0-1.02H40.782a.51.51,0,0,0,0,1.02Z" transform="translate(-23 -24.564)" fill="#fff"/>
        <circle id="Ellipse_40" data-name="Ellipse 40" cx="0.51" cy="0.51" r="0.51" transform="matrix(0.707, -0.707, 0.707, 0.707, 26.178, 2.514)" fill="#fff"/>
        <circle id="Ellipse_41" data-name="Ellipse 41" cx="0.51" cy="0.51" r="0.51" transform="matrix(0.707, -0.707, 0.707, 0.707, 24.386, 0.721)" fill="#fff"/>
      </g>
    </g>
  </g>
</svg>
