<svg xmlns="http://www.w3.org/2000/svg" xmlns:xlink="http://www.w3.org/1999/xlink" width="114" height="114" viewBox="0 0 114 114">
  <defs>
    <filter id="Ellipse_42" x="0" y="0" width="114" height="114" filterUnits="userSpaceOnUse">
      <feOffset dy="3" input="SourceAlpha"/>
      <feGaussianBlur stdDeviation="3" result="blur"/>
      <feFlood flood-opacity="0.161"/>
      <feComposite operator="in" in2="blur"/>
      <feComposite in="SourceGraphic"/>
    </filter>
  </defs>
  <g id="Group_325" data-name="Group 325" transform="translate(-415 -1563)">
    <g id="Group_321" data-name="Group 321" transform="translate(0 20)">
      <g transform="matrix(1, 0, 0, 1, 415, 1543)" filter="url(#Ellipse_42)">
        <circle id="Ellipse_42-2" data-name="Ellipse 42" cx="48" cy="48" r="48" transform="translate(9 6)" fill="#da261b"/>
      </g>
    </g>
    <path id="communication" d="M27.668,0a4.989,4.989,0,0,0-4.854,6.223l-12.2,7.047a5.007,5.007,0,1,0-5.048,7.789V35.715A5.007,5.007,0,1,0,9.54,44.621l13.4,7.742a5.016,5.016,0,1,0,9.611.522L46.89,44.6a5,5,0,1,0,3.936-8.891V21.07a5.009,5.009,0,1,0-5.012-7.779L32.63,5.675A4.969,4.969,0,0,0,27.668,0Zm4.365,7.461,13.032,7.526a4.843,4.843,0,0,0,.1,2.679l-9.532,5.405V24.6l0,.029a5.317,5.317,0,0,1-.083.616l10.49-5.949a5.009,5.009,0,0,0,2.942,1.765V35.715a5.009,5.009,0,0,0-3,1.851l-3.363-1.977a9.262,9.262,0,0,1,.695,2.546l1.822,1.073a4.959,4.959,0,0,0,.5,3.986L31.813,51.182a5.005,5.005,0,0,0-7.969-.426L10.8,43.22a4.926,4.926,0,0,0,.454-4.2l1.9-1.077a9.341,9.341,0,0,1,.735-2.539L10.35,37.415a5.009,5.009,0,0,0-2.942-1.707V21.07a5.009,5.009,0,0,0,3.255-2.117l10.2,5.992c-.009-.085-.034-.162-.04-.249l0-.061V22.78L11.4,17.246a4.789,4.789,0,0,0-.018-2.287L23.588,7.9a5,5,0,0,0,8.445-.443ZM22,14.484a.624.624,0,0,0-.447.594V19.32a2.41,2.41,0,0,0,1.113,2.02v3.234a5.528,5.528,0,0,0,1.912,4.105A2.72,2.72,0,0,1,23.358,30.7a17.022,17.022,0,0,1-3.237,1.6,9.784,9.784,0,0,0-3.579,2.294,7.081,7.081,0,0,0-1.671,4.977v.414l.349.14c8.558,4.941,16.468,5.513,26.018,0l.346-.14v-.414A6.864,6.864,0,0,0,39.912,34.7a9.772,9.772,0,0,0-3.547-2.189,15.193,15.193,0,0,1-3.2-1.6,3,3,0,0,1-1.25-2.643,4.931,4.931,0,0,0,1.876-3.687V19.147A3.442,3.442,0,0,0,30.455,15.6h-6.68a1.99,1.99,0,0,1-.835-.14c-.138-.077-.173-.092-.173-.385A.64.64,0,0,0,22,14.484ZM28.23,30.721a1.626,1.626,0,0,1,1.624,1.631,1.7,1.7,0,0,1-.49,1.2s-.4.2-.23.846l1.322,7.382L28.23,42.889l-2.186-1.127,1.343-7.368a.751.751,0,0,0-.241-.846,1.569,1.569,0,0,1-.547-1.2A1.632,1.632,0,0,1,28.23,30.721Z" transform="translate(443.49 1588)" fill="#fff"/>
  </g>
</svg>
