<svg xmlns="http://www.w3.org/2000/svg" width="37.821" height="49.942" viewBox="0 0 37.821 49.942">
  <g id="izabel-curve" transform="translate(-12.403 -5.475)">
    <path id="Path_243" data-name="Path 243" d="M38.639,24.4a.785.785,0,0,0-.182-.766,8.8,8.8,0,0,1-.129-1.866l.844-4.779a10.18,10.18,0,0,1,.819-2.16s-1.022-4.233.358-7.607l-.537-.508-2.717-.487a4.708,4.708,0,0,1,.053,1.557A6.646,6.646,0,0,1,36.534,9.7c-.331.381-.861,2.031-4.387,2.121A4.837,4.837,0,0,1,27.8,9.855a7.8,7.8,0,0,1-1.355-3.629L24.5,6.812a1,1,0,0,0-1.151.409s1.738,1.534.816,7.363a14.63,14.63,0,0,1,.785,3.647l.615,4.089a8.66,8.66,0,0,0-.409,2.521l-1.73,4.883s2.2,4.316,4.892,2.971,2.714,2.4,6.062.256,4.084,1.205,6.808-2.621L38.639,24.4Z" transform="translate(-0.657 0)" fill="none" stroke="#3d3935" stroke-linecap="round" stroke-linejoin="round" stroke-miterlimit="10" stroke-width="1.5"/>
    <path id="Path_244" data-name="Path 244" d="M46.472,44.6s4.852,5.215,2.164,7.139L41.6,53.127V53.4l-4.676.452a9.867,9.867,0,0,0-2.447.321c-.159.868-4.892.314-4.892.314v-.623a4.143,4.143,0,0,0-2.444-.246c-.946.555-4.814,0-4.814,0v-.553c-.317-.628-3.709-.62-5.206-.855a4.486,4.486,0,0,1-2.128-.79c-4.608-1.774.913-8.442.913-8.442l.332-.264c.031-2.708,3.448-5.788,3.448-5.788-.459-2.8,2.74-7.257,2.74-7.257.075-.107.351.055.351.055l1.73-4.883a8.62,8.62,0,0,1,.409-2.521L24.3,18.23a14.613,14.613,0,0,0-.785-3.647C24.436,8.755,22.7,7.22,22.7,7.22a1,1,0,0,1,1.151-.409l1.939-.586a7.8,7.8,0,0,0,1.355,3.629,4.835,4.835,0,0,0,4.35,1.969c3.528-.09,4.057-1.739,4.388-2.121a6.658,6.658,0,0,0,.612-1.922,4.691,4.691,0,0,0-.052-1.557l2.718.487.537.508c-1.381,3.374-.36,7.607-.36,7.607a10.145,10.145,0,0,0-.817,2.16l-.844,4.779a8.749,8.749,0,0,0,.128,1.866.78.78,0,0,1,.181.766l2.553,5.933s4.44,4.379,3.155,6.765a8.669,8.669,0,0,1,3,6.719,1.469,1.469,0,0,1-.186.746l-.029.04Z" transform="translate(0)" fill="none" stroke="#3d3935" stroke-linecap="round" stroke-linejoin="round" stroke-miterlimit="10" stroke-width="1.5"/>
    <path id="Path_245" data-name="Path 245" d="M23.218,31.338s2.2,4.316,4.892,2.971,2.714,2.4,6.062.256,4.083,1.205,6.807-2.621c0,0,5.465,5.388,2.515,7.471-1.543,1.089-2.926.382-4.96,1.242s-1.315.384-4.091.958a7.589,7.589,0,0,1-3.35.287c-1.243,0-2.3.384-3.925,0s-.636-.646-2.549-.646a5.519,5.519,0,0,1-3.1-.883c-3.9-1.8,1.344-9.092,1.344-9.092l.354.055Z" transform="translate(-0.446 -1.614)" fill="none" stroke="#3d3935" stroke-linecap="round" stroke-linejoin="round" stroke-miterlimit="10" stroke-width="1.5"/>
    <path id="Path_246" data-name="Path 246" d="M19.893,39.04a2.559,2.559,0,0,0,1.4,1.835,5.519,5.519,0,0,0,3.1.883c1.913,0,.922.263,2.549.646s2.681,0,3.925,0a7.569,7.569,0,0,0,3.349-.287c2.776-.574,2.055-.1,4.091-.958s3.416-.153,4.96-1.242a2.051,2.051,0,0,0,.641-.705,8.9,8.9,0,0,1,3,6.719c-.065,2.513-3.891.509-6.6,1.657s-1.75.507-5.441,1.271-2.8.384-4.459.384-3.057.51-5.221,0-1.471-.951-4.018-.951S17.665,47.2,17.665,47.2c-3.7-2.8,2.228-8.163,2.228-8.163Z" transform="translate(-0.213 -2.114)" fill="none" stroke="#3d3935" stroke-linecap="round" stroke-linejoin="round" stroke-miterlimit="10" stroke-width="1.5"/>
    <path id="Path_247" data-name="Path 247" d="M15.9,45.491s-5.52,6.668-.913,8.442a4.492,4.492,0,0,0,2.128.79c1.5.235,4.89.227,5.206.855v.555s3.868.556,4.814,0a4.145,4.145,0,0,1,2.444.247V57s4.733.554,4.892-.312a9.861,9.861,0,0,1,2.447-.322l4.675-.451v-.272l7.039-1.387c2.687-1.925-2.164-7.139-2.164-7.139-.813,1.314-4.015-.135-6.384.871-2.709,1.144-1.75.507-5.441,1.271s-2.8.383-4.459.383-3.057.511-5.221,0-1.471-.949-4.018-.949S17.45,47.6,17.45,47.6a2.8,2.8,0,0,1-1.213-2.375l-.337.264Z" transform="translate(0 -2.513)" fill="none" stroke="#3d3935" stroke-linecap="round" stroke-linejoin="round" stroke-miterlimit="10" stroke-width="1.5"/>
  </g>
</svg>
