<svg xmlns="http://www.w3.org/2000/svg" width="35.027" height="49.869" viewBox="0 0 35.027 49.869">
  <g id="izabel" transform="translate(-0.807 -0.783)">
    <path id="Path_264" data-name="Path 264" d="M12.815,12.253a.383.383,0,0,1,.023-.278c.008-.015.015-.046.023-.062m16.525.062a.261.261,0,0,1,.039.147m-16.61.131a.383.383,0,0,1,.023-.278c.008-.015.015-.046.023-.062" transform="translate(-2.732 -2.535)" fill="#3d3935"/>
    <path id="Path_265" data-name="Path 265" d="M26.655,9.439c0-.008-.008-.008-.008-.015a12.324,12.324,0,0,1-.664-7.745c.054-.193.093-.286.093-.3a.444.444,0,0,0-.417-.595H23.968l-.131.17c-1.869,2.371-3.792,3.521-5.722,3.436-3.042-.139-5.158-3.367-5.189-3.4L12.794.783H11.1a.486.486,0,0,0-.147.023.444.444,0,0,0-.27.571c0,.015.039.108.085.3a12.232,12.232,0,0,1-.641,7.7c-.008.015-.015.046-.023.062a.383.383,0,0,0-.023.278c0,.015,0,.023.015.031l.232.726.347,1.081,2.3,7.089C11.481,19.933,3.944,27.277.84,46.783v.008c-.116.216.093.417.309.533.093.054,6.34,3.328,16.44,3.328a51.422,51.422,0,0,0,17.954-3.344.449.449,0,0,0,.263-.579c-3.143-19.274-10.564-26.8-12.046-28.085L25.4,13.609l1.019-3.135.185-.6V9.864l.093-.255V9.586l-.039-.147ZM23.79,2.381c-.517,1.266-1.49,3.112-2.826,3.444a2.2,2.2,0,0,1-1.946-.587A7.941,7.941,0,0,0,23.79,2.381ZM17.667,5.239a2.2,2.2,0,0,1-1.946.587c-1.328-.332-2.293-2.154-2.819-3.413a7.958,7.958,0,0,0,4.764,2.826Zm-6.61,4.6.649.131h.039a.191.191,0,0,0,.039-.378l-.726-.147A13.036,13.036,0,0,0,11.7,1.679h.363c.355,1.081,1.544,4.17,3.529,4.672a2.223,2.223,0,0,0,.548.069,3.263,3.263,0,0,0,2.2-1.05,3.248,3.248,0,0,0,2.2,1.05,2.248,2.248,0,0,0,.556-.069c1.985-.5,3.174-3.591,3.537-4.672h.432A12.981,12.981,0,0,0,25.7,9.455l-.973.193a.2.2,0,0,0-.147.232.19.19,0,0,0,.185.154.058.058,0,0,0,.039-.008l.865-.178L22.894,18.42a21.851,21.851,0,0,1-9.042.008l-2.8-8.587Zm-9.29,36.8C4.887,27.6,12.408,20.343,13.612,19.292c.263.062.734.162,1.382.263C13.45,21.647,7.25,30.914,6.47,46.072a.218.218,0,0,0,.208.232h.015a.226.226,0,0,0,.224-.208c.8-15.637,7.405-24.927,8.579-26.471.378.046.8.093,1.259.124A159.3,159.3,0,0,0,14.624,36.76a.224.224,0,0,0,.208.239h.008a.222.222,0,0,0,.224-.208A160.64,160.64,0,0,1,17.2,19.771q1.027.044,2.054,0c2.124,5.22,1.73,26.564,1.73,26.788a.212.212,0,0,0,.216.224h.008a.228.228,0,0,0,.224-.216c.015-.9.386-21.251-1.707-26.819.456-.023.934-.07,1.421-.131.988,1.946,6.981,14.046,6.981,22.193a.224.224,0,0,0,.448,0c0-8.062-5.768-19.9-6.965-22.255.486-.07.988-.162,1.506-.27,1.181,1.019,8.71,8.209,11.838,27.282-18.355,6.7-31.46.9-33.189.069Z" fill="#3d3935"/>
  </g>
</svg>
