<svg xmlns="http://www.w3.org/2000/svg" width="49.253" height="49.098" viewBox="0 0 49.253 49.098">
  <path id="school" d="M24.626,1.125,12.18,10.459H0V18.4H1.589V50.182l46.109.04-.034-4.807V18.4h1.589V10.459H37.07l-.844-.633Zm0,1.986,8.735,6.554H15.891Zm-7.15,8.143h14.3V45.413H30.187V32.42L24.763,27.5l-5.7,4.717V45.413H17.477Zm-15.888.794h14.3v4.766H1.589Zm23.038,0a5.561,5.561,0,1,0,5.561,5.561A5.573,5.573,0,0,0,24.626,12.048Zm8.738,0h14.3v4.766h-14.3Zm-8.738,1.589a3.972,3.972,0,1,1-3.972,3.972A3.96,3.96,0,0,1,24.626,13.637Zm-.794.86V18.4H27.91V16.814H25.421V14.5ZM3.178,18.4h12.71v27.01H3.178Zm30.187,0h12.71v27.01H33.365Zm-27.8,3.178a.794.794,0,0,0-.794.794v7.944a.794.794,0,0,0,.794.794H13.5a.794.794,0,0,0,.794-.794V22.375a.794.794,0,0,0-.794-.794Zm30.187,0a.794.794,0,0,0-.794.794v7.944a.794.794,0,0,0,.794.794h7.944a.794.794,0,0,0,.794-.794V22.375a.794.794,0,0,0-.794-.794ZM6.355,23.17H12.71v6.355H6.355Zm30.187,0H42.9v6.355H36.542ZM24.716,29.609l2.538,2.3H21.936ZM5.561,32.7a.794.794,0,0,0-.794.794v7.944a.794.794,0,0,0,.794.794H13.5a.794.794,0,0,0,.794-.794V33.5A.794.794,0,0,0,13.5,32.7Zm30.187,0a.794.794,0,0,0-.794.794v7.944a.794.794,0,0,0,.794.794h7.944a.794.794,0,0,0,.794-.794V33.5a.794.794,0,0,0-.794-.794ZM20.654,33.5H28.6V45.413H20.654Zm-14.3.794H12.71v6.355H6.355Zm30.187,0H42.9v6.355H36.542ZM3.178,47H46.085l.012,1.632L3.178,48.6Z" transform="translate(0 -1.125)" fill="#3d3935"/>
</svg>
