<svg xmlns="http://www.w3.org/2000/svg" width="50" height="49.134" viewBox="0 0 50 49.134">
  <g id="Kylie" transform="translate(-3 -4)">
    <path id="Path_204" data-name="Path 204" d="M11.606,37.441C11.171,38.228,9,42.261,9,44.429a4.57,4.57,0,0,0,2.466,4.409v2.037a.924.924,0,0,0,.822,1,.924.924,0,0,0,.822-1V48.838a4.57,4.57,0,0,0,2.466-4.409c0-2.168-2.171-6.2-2.606-6.988a.769.769,0,0,0-1.365,0Zm1.5,9.2V44a.924.924,0,0,0-.822-1,.924.924,0,0,0-.822,1v2.642a3.04,3.04,0,0,1-.822-2.213,15.042,15.042,0,0,1,1.644-4.56,15.042,15.042,0,0,1,1.644,4.56,3.04,3.04,0,0,1-.822,2.213ZM28.895,45.4c-.439.714-2.631,4.378-2.631,6.385a4.162,4.162,0,0,0,2.466,4.064V57a.838.838,0,1,0,1.644,0V55.85a4.161,4.161,0,0,0,2.466-4.064c0-2.007-2.191-5.671-2.631-6.385a.761.761,0,0,0-1.315,0Zm1.48,8.292V52a.838.838,0,1,0-1.644,0v1.692a2.426,2.426,0,0,1-.822-1.906,12.714,12.714,0,0,1,1.644-4.052A12.714,12.714,0,0,1,31.2,51.786a2.426,2.426,0,0,1-.822,1.906ZM41.884,36.85V38a.838.838,0,1,0,1.644,0V36.85A4.161,4.161,0,0,0,46,32.786c0-2.007-2.191-5.671-2.631-6.385a.761.761,0,0,0-1.315,0c-.439.714-2.631,4.378-2.631,6.385A4.161,4.161,0,0,0,41.884,36.85Zm.822-8.116a12.714,12.714,0,0,1,1.644,4.052,2.426,2.426,0,0,1-.822,1.906V33a.838.838,0,1,0-1.644,0v1.692a2.426,2.426,0,0,1-.822-1.906,12.714,12.714,0,0,1,1.644-4.052Z" transform="translate(0 -7.866)" fill="#3d3935"/>
    <path id="Path_205" data-name="Path 205" d="M53,13.918a.85.85,0,0,0-.22-.66.866.866,0,0,0-.642-.28H34.894a.865.865,0,0,0-.639.281.85.85,0,0,0-.218.659l.431,4.272,1.207,11.953a4.333,4.333,0,0,0-.78-.078H29.722a2.117,2.117,0,0,1-1.664-.495,1.231,1.231,0,0,1-.1-.94.851.851,0,0,0-.365-1,.868.868,0,0,0-1.063.123l-.532.527a12.049,12.049,0,0,1-3.341,2.221,4.241,4.241,0,0,0-2.318,2.977h-.1V27.5a2.575,2.575,0,0,0-2.586-2.563h-.862V18.959a.858.858,0,0,0-.862-.854h-.862V14.687a.858.858,0,0,0-.862-.854H12.482V11.27h9.482a.861.861,0,0,0,.818-.584.85.85,0,0,0-.3-.954L19.033,7.158a.872.872,0,0,0-.517-.171h0L9.034,7a.858.858,0,0,0-.862.854v2.563a.858.858,0,0,0,.862.854h1.724v2.563H9.034a.858.858,0,0,0-.862.854V18.1H7.31a.858.858,0,0,0-.862.854V24.94H5.586A2.575,2.575,0,0,0,3,27.5V50.571a2.575,2.575,0,0,0,2.586,2.563H17.654a2.541,2.541,0,0,0,.842-.163,2.583,2.583,0,0,0,.882.163H46.962a2.575,2.575,0,0,0,2.586-2.563v-2.52L52.565,18.19ZM9.9,8.707l8.332-.01,1.159.865H9.9Zm41.29,5.981-.259,2.563H36.1l-.259-2.563ZM20.24,36.9V35.192H39.2V36.9Zm3.173-4.866a15.547,15.547,0,0,0,3.017-1.846,2.407,2.407,0,0,0,.224.375,3.562,3.562,0,0,0,3.068,1.211h5.172a2.577,2.577,0,0,1,1.315.366c.005,0,.008.009.014.013a2.608,2.608,0,0,1,.923.932h0a2.5,2.5,0,0,1,.161.4H22.11A2.554,2.554,0,0,1,23.413,32.035ZM9.9,15.542h3.448V18.1H9.9ZM8.172,19.814h6.9V24.94h-6.9ZM5.586,51.425a.858.858,0,0,1-.862-.854V27.5a.858.858,0,0,1,.862-.854H17.654a.858.858,0,0,1,.862.854v9.544a2.585,2.585,0,0,0-1.724,2.417V50.571a3.208,3.208,0,0,0,.151.854Zm13.27-.192a.814.814,0,0,1-.34-.662V39.464a.858.858,0,0,1,.862-.854H40.066a.858.858,0,0,1,.862.854V50.571a.858.858,0,0,1-.862.854H19.378a.849.849,0,0,1-.522-.192Zm28.968-.662a.858.858,0,0,1-.862.854H42.5a2.76,2.76,0,0,0,.147-.854V48.862h5.172Zm.082-3.417H42.652V39.464a2.636,2.636,0,0,0-1.724-2.417V34.338a.858.858,0,0,0-.862-.854h-.948a4.512,4.512,0,0,0-1.631-2.545L36.277,18.959H50.754Z" fill="#3d3935"/>
    <path id="Path_206" data-name="Path 206" d="M32.033,8.967c.108,1.739.5,3.033.967,3.033s.859-1.294.967-3.033C35.706,8.859,37,8.468,37,8s-1.294-.859-3.033-.967C33.859,5.294,33.468,4,33,4s-.859,1.294-.967,3.033C30.294,7.141,29,7.532,29,8S30.294,8.859,32.033,8.967ZM23,24c0,.468,1.294.859,3.033.967.108,1.739.5,3.033.967,3.033s.859-1.294.967-3.033C29.706,24.859,31,24.468,31,24s-1.294-.859-3.033-.967C27.859,21.294,27.468,20,27,20s-.859,1.294-.967,3.033C24.294,23.141,23,23.532,23,24ZM55.033,8.967c.108,1.739.5,3.033.967,3.033s.859-1.294.967-3.033C58.706,8.859,60,8.468,60,8s-1.294-.859-3.033-.967C56.859,5.294,56.468,4,56,4s-.859,1.294-.967,3.033C53.294,7.141,52,7.532,52,8S53.294,8.859,55.033,8.967Z" transform="translate(-8.005)" fill="#3d3935"/>
  </g>
</svg>
