<svg xmlns="http://www.w3.org/2000/svg" width="50" height="39.45" viewBox="0 0 50 39.45">
  <g id="Lingerie" transform="translate(-9.33 -16.66)">
    <path id="Path_200" data-name="Path 200" d="M59.127,38.479c.317-4.429-1.363-6.3-3.051-7.076L57.735,19h0a2.02,2.02,0,0,0-.4-1.529,2.092,2.092,0,0,0-1.4-.8h-.245a2.084,2.084,0,0,0-2.056,1.8L51.95,30.992a4.457,4.457,0,0,0-.447.094c-8.093,1.8-15.226,10.394-17.073,12.767-1.839-2.373-8.973-10.963-17.073-12.767a6.664,6.664,0,0,0-.721-.144L14.949,18.456a2.084,2.084,0,0,0-2.056-1.8h-.274a2.077,2.077,0,0,0-1.774,2.33l1.681,12.536c-1.551.844-3.087,2.69-2.791,6.924a16.358,16.358,0,0,0,6.693,17.094l.094.05a7.213,7.213,0,0,0,3.065.5,16.855,16.855,0,0,0,1.7-.094c3.123-.346,7.465-2.669,7.645-2.77h.05l5.467-3.541,5.424,3.541h.05c.188.1,4.522,2.423,7.645,2.77a15.1,15.1,0,0,0,1.709.094h0a7.213,7.213,0,0,0,3.065-.5.512.512,0,0,0,.13-.087,18.364,18.364,0,0,0,6.65-17.029ZM55.087,18.651a.62.62,0,0,1,.6-.527h.079a.606.606,0,0,1,.4.238.591.591,0,0,1,.115.44L54.647,30.97l-.353-.058H53.45Zm-42.671-.3a.57.57,0,0,1,.389-.231h.087a.62.62,0,0,1,.6.527l1.637,12.218h-.873l-.317.065L12.3,18.809A.591.591,0,0,1,12.417,18.348Zm15.8,33.611c-.353.18-4.328,2.279-7.083,2.582a8.655,8.655,0,0,1-3.917-.245,14.9,14.9,0,0,1-6.008-15.63.721.721,0,0,0,0-.216q-.357-4.685,2.387-5.77a5.4,5.4,0,0,1,2.33-.31,6.362,6.362,0,0,1,1.06.159h.043C25.075,34.317,32.468,43.7,33.55,45.136v3.383Zm28.851-5.626a17.311,17.311,0,0,1-5.431,7.934,8.655,8.655,0,0,1-3.895.238c-2.726-.3-6.722-2.395-7.083-2.582l-5.6-3.635h0V45.453a.577.577,0,0,0,.151-.144c.079-.108,7.992-10.87,16.669-12.8h0a5.546,5.546,0,0,1,.8-.137,5.684,5.684,0,0,1,2.359.209c1.991.649,2.885,2.625,2.618,5.871a.642.642,0,0,0,0,.166,17.065,17.065,0,0,1-.591,7.71Z" fill="#3d3935"/>
    <path id="Path_201" data-name="Path 201" d="M21.513,42.68a32.455,32.455,0,0,0-2.8-2.25c-.325-.229-.706,0-.851.52a1.316,1.316,0,0,0,.328,1.35q1.38,1,2.7,2.15c.308.276.7.1.873-.385a1.379,1.379,0,0,0-.243-1.385ZM44.4,45.33c-.372.4-.744.83-1.1,1.27-.473.56-.939,1.15-1.393,1.76a1.464,1.464,0,0,0-.072,1.435c.23.428.635.48.9.115.435-.58.882-1.14,1.336-1.69.347-.42.7-.82,1.059-1.22a1.43,1.43,0,0,0,.161-1.415C45.087,45.124,44.688,45.01,44.4,45.33Zm5.439-4.9a27.659,27.659,0,0,0-2.811,2.25,1.379,1.379,0,0,0-.243,1.385c.174.489.565.661.873.385a30.421,30.421,0,0,1,2.7-2.15,1.316,1.316,0,0,0,.328-1.35c-.144-.516-.525-.749-.851-.52ZM39.563,51.74q-1.1,1.79-2.1,3.71a1.423,1.423,0,0,0-.15.75,1.239,1.239,0,0,0,.238.69.515.515,0,0,0,.4.23.589.589,0,0,0,.5-.38c.63-1.24,1.311-2.43,2.023-3.57a1.44,1.44,0,0,0,0-1.44.552.552,0,0,0-.458-.306A.561.561,0,0,0,39.563,51.74ZM25.282,46.6c-.359-.44-.731-.86-1.1-1.27-.291-.323-.691-.211-.895.25A1.436,1.436,0,0,0,23.441,47c.359.39.718.81,1.065,1.22.454.55.9,1.11,1.336,1.7a.518.518,0,0,0,.416.24h0a.584.584,0,0,0,.492-.37,1.421,1.421,0,0,0,.15-.743,1.251,1.251,0,0,0-.232-.687C26.221,47.75,25.748,47.16,25.282,46.6Zm5.792,8.85c-.63-1.28-1.368-2.53-2.1-3.71a.494.494,0,0,0-.908-.01,1.473,1.473,0,0,0-.006,1.44q1.059,1.71,2.017,3.57a.589.589,0,0,0,.5.38.537.537,0,0,0,.41-.23,1.239,1.239,0,0,0,.238-.69A1.423,1.423,0,0,0,31.074,55.45Z" transform="translate(0 -9.522)" fill="#3d3935"/>
  </g>
</svg>
