<svg xmlns="http://www.w3.org/2000/svg" width="49.334" height="42.201" viewBox="0 0 49.334 42.201">
  <g id="lloyds" transform="translate(-28.611 -61.2)">
    <path id="Path_297" data-name="Path 297" d="M84.117,159.734h1.96v3.183a.617.617,0,0,0,.617.617.61.61,0,0,0,.617-.617v-3.183h2.306v1.472a.617.617,0,0,0,.617.617.61.61,0,0,0,.617-.617v-1.472h2.425v3.183a.617.617,0,0,0,.617.617.61.61,0,0,0,.617-.617v-3.183h1.851a.617.617,0,0,0,.617-.617.61.61,0,0,0-.617-.617H84.128a.617.617,0,0,0-.617.617A.608.608,0,0,0,84.117,159.734Zm0,26.752H96.351a.617.617,0,0,0,.617-.617.61.61,0,0,0-.617-.617H94.5v-3.735a.617.617,0,0,0-.617-.617.61.61,0,0,0-.617.617v3.735H90.84v-2.014a.617.617,0,0,0-.617-.617.61.61,0,0,0-.617.617v2.025H87.289v-3.735a.617.617,0,0,0-.617-.617.61.61,0,0,0-.617.617v3.735H84.117a.617.617,0,0,0-.617.617A.608.608,0,0,0,84.117,186.486ZM114.03,179.5a.6.6,0,0,0-.866,0l-2.956,2.956a.6.6,0,0,0,0,.866l2.956,2.956a.6.6,0,0,0,.866,0l2.956-2.956a.614.614,0,0,0,0-.866Zm-.433,5.489-2.089-2.089,2.089-2.089,2.089,2.089ZM110.739,169.1a.614.614,0,0,0-.866,0l-2.956,2.956a.6.6,0,0,0,0,.866l2.956,2.956a.6.6,0,0,0,.866,0l2.956-2.956a.614.614,0,0,0,0-.866Zm-.433,5.489-2.089-2.089,2.089-2.089L112.4,172.5Zm10.447-1.786a.614.614,0,0,0-.866,0l-2.956,2.956a.6.6,0,0,0,0,.866l2.956,2.956a.6.6,0,0,0,.866,0l2.956-2.956a.614.614,0,0,0,0-.866Zm-.433,5.489-2.089-2.089,2.089-2.089,2.089,2.089Z" transform="translate(-48.946 -86.766)" fill="#3d3935"/>
    <path id="Path_298" data-name="Path 298" d="M77.945,89.424a6.466,6.466,0,0,0-4.7-6.2V63.647c0-.022-.011-.043-.011-.065V63.56c0-.022-.011-.032-.011-.054s0-.011-.011-.022-.011-.032-.022-.043a.011.011,0,0,0-.011-.011.728.728,0,0,0-.076-.119A.011.011,0,0,0,73.1,63.3l-.032-.032c-.011,0-.011-.011-.022-.011A.15.15,0,0,0,73,63.225l-.011-.011a.237.237,0,0,1-.054-.032h0a.183.183,0,0,0-.054-.022.011.011,0,0,1-.011-.011c-.022-.011-.032-.011-.054-.022h-.022c-.022,0-.032-.011-.054-.011H51.93l-.011-.032A3,3,0,0,0,49.126,61.2H33.385a3,3,0,0,0-2.793,1.884l-1.938,4.807a.63.63,0,0,0-.011.422v34.471a.617.617,0,0,0,.617.617H53.3a.617.617,0,0,0,.617-.617V98.973h4.926a6.455,6.455,0,0,0,11.584,0h2.209a.617.617,0,0,0,.617-.617V95.627A6.436,6.436,0,0,0,77.945,89.424ZM71.731,64.34,70.67,66.97a3.881,3.881,0,0,1-3.616,2.447H53.933V68.15a.591.591,0,0,0-.119-.357L52.428,64.34Zm-39.992-.8a1.777,1.777,0,0,1,1.646-1.115H49.126a1.775,1.775,0,0,1,1.656,1.115l.173.422h0l1.44,3.573H30.126ZM52.7,102.167H29.877V68.757H52.7Zm1.234-4.417V70.641H67.054a5.088,5.088,0,0,0,4.753-3.215l.217-.541V82.993c-.173-.011-.346-.022-.52-.022a6.5,6.5,0,0,0-3.865,1.288,6.45,6.45,0,1,0-7.914,7.708A6.423,6.423,0,0,0,58.2,96.136a6.653,6.653,0,0,0,.206,1.613Zm10.826-8.066h-.108a6.471,6.471,0,0,0-3.811,1.245c-.032-.011-.065-.011-.1-.022a5.22,5.22,0,1,1,5.825-5.186A5.149,5.149,0,0,1,64.759,89.684Zm-.108,11.671a5.218,5.218,0,1,1,5.218-5.218A5.221,5.221,0,0,1,64.651,101.355Zm7.373-3.605H70.887a6.653,6.653,0,0,0,.206-1.613,2.264,2.264,0,0,0-.011-.271c.141.011.271.011.411.011.173,0,.346-.011.52-.022v1.895Zm-.52-3.1a5.292,5.292,0,0,1-.585-.032,6.447,6.447,0,0,0-4.634-4.72,6.4,6.4,0,0,0,1.526-4.146,5.219,5.219,0,1,1,3.692,8.9Z" transform="translate(0 0)" fill="#3d3935"/>
    <path id="Path_299" data-name="Path 299" d="M96.979,231.329l-5.251,5.251a.614.614,0,0,0,0,.866l5.251,5.251a.6.6,0,0,0,.866,0l5.251-5.251a.614.614,0,0,0,0-.866l-5.251-5.251A.614.614,0,0,0,96.979,231.329Zm.433,10.068-4.385-4.385,4.385-4.385,4.385,4.385Z" transform="translate(-56.125 -151.551)" fill="#3d3935"/>
  </g>
</svg>
