<svg xmlns="http://www.w3.org/2000/svg" width="19.617" height="19.617" viewBox="0 0 19.617 19.617">
  <g id="download_20_" data-name="download (20)" transform="translate(0 0)">
    <path id="Path_134" data-name="Path 134" d="M197.8,188h-1.471a7.847,7.847,0,0,0-7.356-7.356V179.17a.49.49,0,1,0-.981,0v1.5a7.846,7.846,0,0,0-7.356,7.356h-1.471a.49.49,0,1,0,0,.981h1.5a7.847,7.847,0,0,0,7.332,7.332v1.471a.49.49,0,1,0,.981,0v-1.471a7.847,7.847,0,0,0,7.356-7.356H197.8a.49.49,0,1,0,0-.981Zm-9.318,7.356a6.866,6.866,0,1,1,4.855-2.011A6.865,6.865,0,0,1,188.485,195.354Z" transform="translate(-178.676 -178.68)"/>
    <path id="Path_135" data-name="Path 135" d="M300.994,297.07a3.923,3.923,0,1,0,2.774,1.149A3.924,3.924,0,0,0,300.994,297.07Zm0,6.866a2.943,2.943,0,1,1,2.081-.862A2.943,2.943,0,0,1,300.994,303.936Z" transform="translate(-291.186 -291.185)"/>
  </g>
</svg>
