<?xml version="1.0" standalone="no"?>
<!DOCTYPE svg PUBLIC "-//W3C//DTD SVG 20010904//EN"
 "http://www.w3.org/TR/2001/REC-SVG-20010904/DTD/svg10.dtd">
<svg version="1.0" xmlns="http://www.w3.org/2000/svg"
 width="2704.000000pt" height="855.000000pt" viewBox="0 0 2704.000000 855.000000"
 preserveAspectRatio="xMidYMid meet">
<metadata>
Created by potrace 1.16, written by Peter Selinger 2001-2019
</metadata>
<g transform="translate(0.000000,855.000000) scale(0.100000,-0.100000)"
fill="#535353" stroke="none">
<path d="M1740 8547 c0 -3 -391 -1886 -870 -4186 -478 -2300 -870 -4188 -870
-4196 0 -13 36 -15 254 -15 234 0 255 1 260 18 3 9 321 1545 706 3412 386
1867 704 3402 707 3410 4 10 11 2 23 -25 10 -22 648 -1598 1417 -3502 l1398
-3463 58 2 59 3 1409 3475 c774 1911 1414 3486 1420 3500 l12 25 8 -25 c4 -14
324 -1556 711 -3427 l703 -3403 259 0 258 0 -4 23 c-3 12 -396 1902 -874 4199
l-869 4178 -55 0 -55 -1 -1489 -3675 c-819 -2021 -1493 -3671 -1497 -3667 -4
4 -673 1657 -1487 3673 l-1481 3665 -55 3 c-31 2 -56 1 -56 -1z"/>
<path d="M18000 8534 c-379 -34 -717 -102 -1048 -213 -387 -130 -710 -288
-1052 -516 -969 -647 -1637 -1653 -1844 -2775 -77 -421 -87 -910 -26 -1325
196 -1336 1050 -2518 2295 -3174 463 -244 951 -396 1500 -468 196 -25 779 -25
967 0 495 67 898 186 1326 393 321 154 563 306 855 533 l97 76 0 367 0 368
-162 -163 c-90 -89 -215 -202 -278 -251 -558 -432 -1262 -725 -1975 -822 -158
-22 -549 -25 -700 -6 -447 57 -847 179 -1257 383 -821 410 -1424 999 -1802
1759 -176 354 -275 667 -338 1070 -20 128 -22 183 -23 470 0 287 3 343 23 480
108 732 400 1384 877 1955 620 743 1492 1223 2435 1340 927 116 1938 -191
2735 -829 103 -82 350 -322 423 -411 l42 -50 0 372 0 373 -42 38 c-248 227
-568 442 -903 607 -427 211 -837 334 -1327 401 -108 15 -685 28 -798 18z"/>
<path d="M11824 5746 c-481 -79 -858 -448 -939 -920 -64 -372 52 -707 420
-1210 47 -65 83 -122 78 -126 -4 -5 -80 -54 -168 -110 -575 -367 -932 -679
-1149 -1005 -189 -284 -278 -599 -263 -927 42 -874 786 -1512 1655 -1417 499
54 1040 330 1696 867 l99 81 321 -424 321 -424 288 0 c158 -1 287 2 287 5 0 3
-192 260 -426 570 -234 311 -427 571 -429 577 -2 7 136 138 306 292 170 154
326 297 346 318 l37 37 -154 159 c-85 87 -159 159 -165 160 -5 0 -158 -127
-338 -284 -180 -157 -332 -285 -337 -285 -6 0 -1180 1592 -1213 1646 -4 8 35
42 106 92 182 129 314 238 438 361 288 288 412 558 412 901 0 311 -109 577
-321 782 -136 132 -289 218 -470 264 -120 31 -316 40 -438 20z m281 -488 c127
-27 259 -118 338 -235 146 -212 140 -497 -14 -727 -88 -132 -201 -235 -486
-443 l-151 -111 -126 187 c-193 286 -268 445 -285 603 -38 348 205 691 521
737 67 9 122 6 203 -11z m212 -3015 c340 -461 622 -843 626 -850 12 -19 -379
-327 -623 -490 -354 -236 -665 -367 -933 -391 -477 -44 -880 235 -1030 713
-72 229 -61 493 28 705 83 198 259 409 505 607 91 73 784 543 801 543 4 0 285
-377 626 -837z"/>
<path d="M23940 5659 c-1307 -79 -2394 -1008 -2645 -2259 -42 -211 -50 -295
-50 -560 0 -346 30 -544 130 -846 140 -427 356 -775 679 -1100 244 -244 459
-400 757 -548 281 -140 553 -227 869 -278 129 -20 179 -23 450 -23 326 0 412
8 665 61 476 101 926 322 1290 635 541 465 872 1103 945 1822 16 157 8 576
-14 712 -81 499 -270 936 -567 1310 -92 116 -288 314 -412 416 -404 332 -907
552 -1438 629 -125 18 -431 42 -504 38 -16 0 -86 -4 -155 -9z m308 -499 c366
-25 665 -104 971 -256 635 -314 1067 -864 1221 -1555 51 -227 66 -568 35 -806
-75 -575 -370 -1104 -817 -1463 -372 -300 -821 -482 -1312 -531 -188 -19 -499
-7 -667 25 -487 92 -890 311 -1239 672 -364 376 -584 850 -641 1379 -16 153
-6 437 21 594 120 693 518 1278 1105 1628 302 180 639 286 995 312 153 12 171
12 328 1z"/>
</g>
</svg>
