<svg xmlns="http://www.w3.org/2000/svg" width="41.055" height="49.383" viewBox="0 0 41.055 49.383">
  <path id="men" d="M232.207,200.79l-.052-.006a1.122,1.122,0,0,1-1.05-1.111v-.647a9.8,9.8,0,0,0,1-.825,10.208,10.208,0,0,0,3.1-6.654,3.3,3.3,0,0,0,1.81-2.54,3.35,3.35,0,0,0-.2-2.614,2.08,2.08,0,0,0-.439-.511,20.2,20.2,0,0,0,.651-4.831,9.324,9.324,0,0,0-2.422-7.161c-3.326-3.48-8.809-3.521-9.041-3.521s-5.715.04-9.041,3.521a9.324,9.324,0,0,0-2.422,7.161,20.2,20.2,0,0,0,.651,4.831,2.08,2.08,0,0,0-.439.511,3.349,3.349,0,0,0-.2,2.614,3.291,3.291,0,0,0,1.818,2.543A10.416,10.416,0,0,0,220.016,199v.676a1.122,1.122,0,0,1-1.05,1.111c-8.594.71-13.933,5.491-13.933,12.478v5.743a.748.748,0,0,0,.748.748h39.559a.748.748,0,0,0,.748-.748v-5.743c0-6.971-5.318-11.746-13.881-12.472Zm-6.646,2.36-4.072-3.224c0-.008,0-.016,0-.023a9.169,9.169,0,0,0,3.6.931q.236.011.471.011a9.35,9.35,0,0,0,4.068-.935v.016Zm-4.674-1.792,3.694,2.925-1.47,2.447-2.948-4.784a2.62,2.62,0,0,0,.724-.588Zm9.348,0a2.6,2.6,0,0,0,.724.588l-2.948,4.784-1.47-2.447Zm5.33-12.719a4.123,4.123,0,0,1-.322.879V187.6a1.554,1.554,0,0,0,.357-.265,2.343,2.343,0,0,1-.035,1.3ZM217.6,174.931c2.878-3.018,7.915-3.064,7.964-3.064s5.088.046,7.966,3.064a7.892,7.892,0,0,1,2,6.053,16.2,16.2,0,0,1-.688,4.765c-.32-1.921-1.26-5.671-3.939-5.535a17.769,17.769,0,0,0-4.2.75,3.968,3.968,0,0,1-2.276,0h0a17.8,17.8,0,0,0-4.2-.75c-.038,0-.076,0-.113,0-2.569,0-3.51,3.644-3.825,5.538a16.193,16.193,0,0,1-.688-4.765,7.89,7.89,0,0,1,2-6.053Zm-2.079,12.4a1.556,1.556,0,0,0,.362.271v1.914a4.038,4.038,0,0,1-.322-.877,2.332,2.332,0,0,1-.04-1.308Zm1.875,3.585a.607.607,0,0,0,.006-.1c0-.013-.01-.023-.012-.035,0-.08-.011-.159-.011-.239v-3.117c.008-.007.019-.012.026-.019a.746.746,0,0,0,.23-.475c.157-1.732.984-5.282,2.526-5.226a16.265,16.265,0,0,1,3.837.689,5.468,5.468,0,0,0,3.132,0,16.261,16.261,0,0,1,3.837-.689c1.542-.038,2.367,3.494,2.526,5.226a.751.751,0,0,0,.23.475c.008.008.018.013.026.021v3.377a8.734,8.734,0,0,1-2.669,6.309,7.941,7.941,0,0,1-5.912,2.221,8.482,8.482,0,0,1-7.773-8.421Zm27.2,27.34h-6v-5.345a.748.748,0,1,0-1.5,0v5.345H214.03v-5.345a.748.748,0,1,0-1.5,0v5.345h-6v-4.995c0-6.015,4.631-10.17,12.111-10.935l3.841,6.235a.748.748,0,0,0,.637.356h0a.747.747,0,0,0,.637-.363l1.8-3,1.8,3a.748.748,0,0,0,.637.363h0a.748.748,0,0,0,.637-.356l3.841-6.235c7.479.766,12.111,4.921,12.111,10.935Z" transform="translate(-205.032 -170.371)" fill="#3d3935"/>
</svg>
