<svg xmlns="http://www.w3.org/2000/svg" width="43.669" height="52.473" viewBox="0 0 43.669 52.473">
  <g id="download_17_" data-name="download (17)" transform="translate(-202.356 -165.519)">
    <path id="Path_179" data-name="Path 179" d="M229.94,294.163h-26.8a.788.788,0,0,1-.788-.788V259.21a.788.788,0,0,1,.788-.788h34.164a.788.788,0,1,1,0,1.577H203.932V292.59H229.94a.787.787,0,1,1,0,1.573Z" transform="translate(0 -81.322)" fill="#3d3935"/>
    <path id="Path_180" data-name="Path 180" d="M270.447,178.676a.788.788,0,0,1-.788-.788,10.8,10.8,0,0,0-21.591,0,.787.787,0,1,1-1.573,0,12.369,12.369,0,1,1,24.737,0,.784.784,0,0,1-.785.788Z" transform="translate(-38.637)" fill="#3d3935"/>
    <path id="Path_181" data-name="Path 181" d="M451.931,292.8c-2.421,0-4.391-2.37-4.391-5.284s1.97-5.285,4.391-5.285,4.392,2.371,4.392,5.285S454.353,292.8,451.931,292.8Zm0-8.991c-1.554,0-2.819,1.665-2.819,3.711s1.265,3.711,2.819,3.711,2.819-1.665,2.819-3.711S453.486,283.8,451.931,283.8Z" transform="translate(-214.622 -102.161)" fill="#3d3935"/>
    <path id="Path_182" data-name="Path 182" d="M425.92,389.94a.788.788,0,0,1-.29-1.52,4.86,4.86,0,0,0,3.087-4.54v-2.639a4.89,4.89,0,0,0-4.884-4.884h-4.515a4.89,4.89,0,0,0-4.884,4.884v2.639a4.852,4.852,0,0,0,3.087,4.54.787.787,0,1,1-.58,1.463,6.424,6.424,0,0,1-4.08-6v-2.639a6.466,6.466,0,0,1,6.458-6.457h4.515a6.464,6.464,0,0,1,6.457,6.457v2.639a6.421,6.421,0,0,1-4.08,6,.782.782,0,0,1-.29.056Z" transform="translate(-184.265 -183.18)" fill="#3d3935"/>
    <path id="Path_183" data-name="Path 183" d="M477.234,495.631a.788.788,0,0,1-.788-.788V484.476a.788.788,0,1,1,1.577,0v10.366A.789.789,0,0,1,477.234,495.631Z" transform="translate(-239.924 -278.509)" fill="#3d3935"/>
    <path id="Path_184" data-name="Path 184" d="M449.611,434.774a3.343,3.343,0,0,1-1.961-.631,3.9,3.9,0,0,1-4.727-.432.784.784,0,0,1-.274-.6V413.96a.788.788,0,0,1,1.577,0v18.762a2.169,2.169,0,0,0,2.869-.161.79.79,0,0,1,1.113,0,2.175,2.175,0,0,0,2.869.161V413.96a.788.788,0,0,1,1.577,0v19.156a.784.784,0,0,1-.274.6,4.457,4.457,0,0,1-2.768,1.062Z" transform="translate(-210.34 -216.782)" fill="#3d3935"/>
  </g>
</svg>
