<svg xmlns="http://www.w3.org/2000/svg" width="39.048" height="47.491" viewBox="0 0 39.048 47.491">
  <g id="download_21_" data-name="download (21)" transform="translate(-193.481 -154.01)">
    <path id="Path_193" data-name="Path 193" d="M227.779,154.01H210.894a4.755,4.755,0,0,0-4.749,4.749v29.55a4.755,4.755,0,0,0,4.749,4.749H216.8a1.543,1.543,0,0,0-.107.528v1.055a2.6,2.6,0,0,0,2.068,2.523,3.686,3.686,0,0,1-3.652,3.281H202.451a3.7,3.7,0,0,1-3.694-3.694v-1.69a2.6,2.6,0,0,0,2.111-2.532v-1.055a1.575,1.575,0,0,0-.123-.61,2.607,2.607,0,0,0,2.234-2.556V186.2a.528.528,0,0,0-1.055,0v2.111a1.586,1.586,0,0,1-1.583,1.583h-4.221a1.586,1.586,0,0,1-1.583-1.583v-4.221a1.586,1.586,0,0,1,1.583-1.583h4.221a1.586,1.586,0,0,1,1.583,1.583.528.528,0,1,0,1.055,0,2.6,2.6,0,0,0-2.111-2.533v-1.688a.528.528,0,0,0-1.055,0v1.583h-3.166v-1.583a.528.528,0,0,0-1.055,0v1.688a2.6,2.6,0,0,0-2.111,2.533v4.221a2.607,2.607,0,0,0,2.234,2.556,1.568,1.568,0,0,0-.124.61v1.055a2.6,2.6,0,0,0,2.111,2.532v1.69a4.755,4.755,0,0,0,4.749,4.749h12.664a4.739,4.739,0,0,0,4.706-4.319,2.606,2.606,0,0,0,2.154-2.54v-1.055a1.553,1.553,0,0,0-.107-.528h5.911a4.755,4.755,0,0,0,4.749-4.749V158.759a4.755,4.755,0,0,0-4.749-4.749Zm-31.133,38.521v-1.055a.528.528,0,0,1,.528-.528h2.11a.528.528,0,0,1,.528.528v1.055a1.583,1.583,0,1,1-3.166,0Zm24.274,1.055v1.055a1.583,1.583,0,0,1-3.166,0v-1.055a.528.528,0,0,1,.528-.528h2.111a.528.528,0,0,1,.528.528Zm10.554-5.277h0A3.7,3.7,0,0,1,227.78,192H210.895a3.7,3.7,0,0,1-3.694-3.694V158.76a3.7,3.7,0,0,1,3.694-3.694H227.78a3.7,3.7,0,0,1,3.694,3.694Z" fill="#3d3935"/>
    <path id="Path_194" data-name="Path 194" d="M351.127,173.74h-1.114a4.793,4.793,0,0,0-2.126.5l-.327.165h0a3.707,3.707,0,0,1-1.652.39h-5.336a.528.528,0,0,0,0,1.055h5.336a4.79,4.79,0,0,0,2.125-.5l.327-.165a3.71,3.71,0,0,1,1.652-.389h1.114a1.586,1.586,0,0,1,1.583,1.583v29.55a1.586,1.586,0,0,1-1.583,1.583H334.241a1.586,1.586,0,0,1-1.583-1.583v-29.55a1.585,1.585,0,0,1,1.583-1.583h1.114a3.706,3.706,0,0,1,1.651.389l.33.165a4.751,4.751,0,0,0,1,.367.517.517,0,0,0,.637-.389.528.528,0,0,0-.389-.638,3.636,3.636,0,0,1-.778-.285l-.329-.165h0a4.782,4.782,0,0,0-2.124-.5h-1.114a2.641,2.641,0,0,0-2.639,2.639v29.55a2.641,2.641,0,0,0,2.639,2.638h16.886a2.641,2.641,0,0,0,2.638-2.638v-29.55a2.641,2.641,0,0,0-2.638-2.639Z" transform="translate(-123.347 -17.619)" fill="#3d3935"/>
    <path id="Path_195" data-name="Path 195" d="M391.324,469.73a.528.528,0,1,0,0,1.055h8.443a.528.528,0,1,0,0-1.055Z" transform="translate(-176.21 -281.949)" fill="#3d3935"/>
    <path id="Path_196" data-name="Path 196" d="M367.057,299.521h.633a1.586,1.586,0,0,0,1.583-1.583v-2.111h0a1.585,1.585,0,0,0-1.583-1.583h-.633a2.6,2.6,0,0,0-2.533-2.111H353.97a2.641,2.641,0,0,0-2.638,2.639v4.221a2.641,2.641,0,0,0,2.638,2.638h8.443a.528.528,0,0,0,0-1.055h-5.8v-7.387h7.915a1.586,1.586,0,0,1,1.583,1.583v4.221a1.586,1.586,0,0,1-1.583,1.583.528.528,0,1,0,0,1.055,2.6,2.6,0,0,0,2.533-2.111Zm-11.5,1.055h-1.584a1.585,1.585,0,0,1-1.583-1.583v-4.221a1.585,1.585,0,0,1,1.583-1.583h1.583Zm12.664-4.749v2.111h0a.528.528,0,0,1-.528.528h-.528V295.3h.528a.528.528,0,0,1,.526.528Z" transform="translate(-140.967 -123.349)" fill="#3d3935"/>
  </g>
</svg>
