<svg xmlns="http://www.w3.org/2000/svg" width="40.96" height="48.617" viewBox="0 0 40.96 48.617">
  <g id="quiz" transform="translate(-2.54)">
    <path id="Path_266" data-name="Path 266" d="M34.551,0H31.209a.76.76,0,0,0-.76.82V1.4a7.505,7.505,0,0,1-15,0c0-.2,0-.38,0-.577a.76.76,0,0,0-.76-.82H11.428A9.3,9.3,0,0,0,2.54,9.344v9.541a.76.76,0,0,0,.76.76H8.906l-.653,6.442a.76.76,0,0,0,.76.836h1.519v3.115L7.8,46.794a.76.76,0,0,0,.744.881H13.4v.091a.76.76,0,0,0,.76.851h6.548a.76.76,0,0,0,.76-.729v-.213h3.039v.213a.76.76,0,0,0,.76.729h6.548a.76.76,0,0,0,.76-.851v-.091h4.862a.76.76,0,0,0,.744-.881l-2.8-16.712v-3.16h1.519a.76.76,0,0,0,.76-.836l-.638-6.442H42.74a.76.76,0,0,0,.76-.76V9.344A9.268,9.268,0,0,0,34.551,0ZM29.993,30.249H12.066v-3.13H33.913v3.16Zm-4.1,15.892H20.057l.79-14.372h4.269Zm-16.53,0,2.4-14.372H15.1l-1.58,14.387Zm7.277-14.372h2.674l-.881,15.1a.744.744,0,0,0,0,.228H14.952ZM27.456,47.1a.745.745,0,0,0,0-.228L26.62,31.783h2.674L31,46.976V47.1Zm5-.942-1.61-14.372h3.342l2.4,14.372ZM41.92,9.344v5.849H36.663L35.311,1.656A7.763,7.763,0,0,1,41.92,9.344Zm-18.93,1.063A9.024,9.024,0,0,0,32,1.519h1.732L35.691,21.1h-25.4l1.96-19.583H13.98a9.024,9.024,0,0,0,9.009,8.888ZM10.7,1.656,9.316,15.193H4.059V9.344A7.763,7.763,0,0,1,10.7,1.656ZM4.059,18.125V16.712H9.194l-.137,1.413ZM9.848,25.4l.273-2.8H35.842l.273,2.8Zm27.073-7.277-.137-1.413H41.92v1.413Z" transform="translate(0 0)" fill="#3d3935"/>
    <path id="Path_267" data-name="Path 267" d="M16.989,15.069a.76.76,0,0,0,1.079,0l3.039-3.039a2.507,2.507,0,1,0-3.54-3.54l-.046.03-.076-.076a2.507,2.507,0,1,0-3.54,3.54ZM14.968,9.523a.988.988,0,0,1,1.4,0l.623.623a.76.76,0,0,0,1.079,0l.623-.623a.988.988,0,1,1,1.4,1.4l-2.568,2.537-2.552-2.552a.988.988,0,0,1,0-1.4Z" transform="translate(5.469 3.952)" fill="#3d3935"/>
  </g>
</svg>
