<svg xmlns="http://www.w3.org/2000/svg" width="45.345" height="46.047" viewBox="0 0 45.345 46.047">
  <g id="roman" transform="translate(-29.613 -24.181)">
    <path id="Path_219" data-name="Path 219" d="M316.217,28.075H298.035l.831.831V25.012l-.831.831h18.181l-.831-.831v3.894a.831.831,0,0,0,1.663,0V25.012a.839.839,0,0,0-.831-.831H298.035a.839.839,0,0,0-.831.831v3.894a.839.839,0,0,0,.831.831h18.181a.831.831,0,1,0,0-1.663Z" transform="translate(-254.879 0)" fill="#3d3935"/>
    <path id="Path_220" data-name="Path 220" d="M67.227,140.5l.77,3.621.084-.641c-.019.03-.04.059-.062.087.253-.333,0-.009-.08.073a4.011,4.011,0,0,1-.361.33c-.161.132.083-.062.037-.027s-.082.061-.124.091c-.1.071-.2.137-.306.2a6.063,6.063,0,0,1-.739.38c.287-.125.022-.01-.046.016s-.149.056-.223.082c-.174.061-.351.114-.529.163s-.362.091-.545.128c-.1.02-.2.037-.293.054l-.152.024c-.239.037.114-.013-.04.007a11.813,11.813,0,0,1-1.462.089,15.408,15.408,0,0,1-1.736-.1l-.228-.027a.62.62,0,0,1-.089-.012c-.16-.022-.32-.048-.48-.074s-.332-.058-.5-.089c-.083-.016-.509-.131-.234,0a4.077,4.077,0,0,0-1.78-.341,5.291,5.291,0,0,0-1.612.293,6.959,6.959,0,0,0-.948.414c-.312.163-.584.376-.88.562a6.589,6.589,0,0,1-.823.427c-.2.088.167-.067-.041.017-.064.026-.128.05-.193.074-.136.051-.274.095-.413.136s-.292.077-.44.108c-.021,0-.271.044-.081.019-.1.014-.2.02-.3.025a2.9,2.9,0,0,1-.36-.01c-.254-.019.164.03-.088-.009-.077-.012-.153-.028-.229-.044a5.788,5.788,0,0,1-.919-.286c-.213-.084.154.069-.047-.019-.057-.025-.113-.051-.169-.077-.1-.046-.2-.094-.291-.144-.124-.064-.246-.132-.365-.2-.21-.129-.4-.285-.615-.414a7.142,7.142,0,0,0-1.035-.5,5.344,5.344,0,0,0-1.655-.361,4.14,4.14,0,0,0-1.912.328c-.064.028.009-.039.091-.056-.169.035-.339.068-.509.1s-.327.057-.491.084l-.239.036-.157.022q.137-.019-.011,0a16.032,16.032,0,0,1-1.77.126,12.224,12.224,0,0,1-1.494-.069l-.162-.019c-.191-.024.2.028.011,0-.1-.015-.2-.032-.3-.049-.2-.036-.406-.081-.607-.131a7.57,7.57,0,0,1-.99-.322c-.057-.023-.2-.084.061.026l-.1-.044c-.064-.029-.127-.059-.19-.09-.126-.062-.25-.129-.371-.2-.1-.058-.2-.121-.3-.185-.044-.03-.088-.06-.131-.092l-.062-.045c-.134-.1.166.13.071.056a4.122,4.122,0,0,1-.381-.338,2.983,2.983,0,0,1-.222-.249c-.051-.065.172.232.071.09l-.024-.035h0l.084.641.769-3.621a.854.854,0,0,0-.214-.809.874.874,0,0,0-.809-.214c-.549.082-1.167.157-1.84.205a13.854,13.854,0,0,1-1.487.03c-.188-.007-.375-.021-.562-.04l-.126-.015c.279.034.123.017.061.007-.086-.013-.172-.029-.258-.046-.128-.026-.254-.058-.379-.1-.055-.017-.109-.035-.162-.055-.208-.076.2.093.009,0a1.907,1.907,0,0,1-.232-.128c-.067-.043-.211-.157.059.052-.032-.025-.062-.052-.092-.079s-.045-.045-.066-.068c-.105-.118.144.195.067.089a.862.862,0,0,1-.083-.142c.086.186.074.207.038.068,0-.018-.008-.036-.012-.055-.02-.112.033.292.021.155s.029-.244-.025.08c0-.006,0-.012,0-.018l-.214.367a4.733,4.733,0,0,0,.55-.951c.264-.57.5-1.152.741-1.733.654-1.6,1.262-3.227,1.862-4.851q2.252-6.1,4.285-12.283c.756-2.3,1.468-4.613,2.389-6.856l.081-.195c.011-.027.1-.241.023-.056q.078-.185.158-.37.164-.378.335-.754.291-.64.605-1.269c.314-.631.648-1.252,1.008-1.859.187-.315.381-.627.588-.93.066-.1.388-.521.1-.149l-.588.243H61.395l-.588-.243c-.243-.31-.114-.149-.055-.068s.137.193.2.291c.26.386.5.785.732,1.189.384.671.738,1.358,1.073,2.055q.327.68.628,1.373.08.182.158.365c.012.027.1.237.022.053l.08.193q.181.436.354.876c.873,2.214,1.554,4.494,2.3,6.751q1.031,3.117,2.122,6.214c1.257,3.582,2.522,7.175,3.978,10.682a9.672,9.672,0,0,0,1.125,2.282l-.214-.367c.033.128-.028-.3-.02-.143a.651.651,0,0,1,0,.081c-.01.133.036-.251.023-.164,0,.021-.008.042-.013.063-.034.138-.048.124.038-.068a.864.864,0,0,1-.083.142c-.075.107.171-.209.067-.089-.021.024-.043.046-.066.068s-.051.046-.077.068c-.084.069.2-.15.11-.085-.021.015-.043.03-.065.044a1.888,1.888,0,0,1-.232.128c-.19.09.2-.078.034-.015-.062.024-.124.045-.187.064-.124.039-.252.069-.379.1-.073.015-.146.028-.219.04l-.117.017c.3-.042.079-.012.014,0a13.74,13.74,0,0,1-3.009-.079c-.164-.018-.327-.039-.49-.06.164.021-.122-.017-.123-.017l-.267-.039a.851.851,0,0,0-1.023.581.833.833,0,0,0,.581,1.023,21,21,0,0,0,3.667.3,6.021,6.021,0,0,0,2.045-.335,1.962,1.962,0,0,0,1.437-1.752,1.561,1.561,0,0,0-.039-.3c-.023-.1-.4-.613-.1-.215-.013-.018-.026-.036-.038-.055-.035-.053-.066-.108-.1-.164-.206-.371-.373-.765-.541-1.154l-.081-.189.028.067-.043-.1q-.1-.234-.193-.469-.208-.508-.408-1.019-.479-1.214-.935-2.436-2.274-6.048-4.31-12.183c-.73-2.182-1.386-4.391-2.181-6.551a45,45,0,0,0-2.567-5.808,17.386,17.386,0,0,0-1.305-2.131.888.888,0,0,0-.755-.46H43.528a1.48,1.48,0,0,0-.778.113,2.064,2.064,0,0,0-.545.644c-.251.37-.484.752-.708,1.139a39.462,39.462,0,0,0-2.4,5.062c-.9,2.228-1.59,4.525-2.341,6.8q-2.035,6.175-4.3,12.275c-.588,1.586-1.184,3.171-1.828,4.735l-.089.214c-.028.067-.139.33-.016.039q-.086.2-.174.4c-.093.214-.189.427-.29.638-.071.148-.144.294-.226.436-.026.045-.054.089-.084.132s-.1.133.106-.136a.828.828,0,0,0-.214.367l0,.008a1.725,1.725,0,0,0,.82,1.766,3.587,3.587,0,0,0,1.531.52,12.775,12.775,0,0,0,2.977.024c.6-.055,1.19-.135,1.782-.224l-1.023-1.023-.725,3.414a1.074,1.074,0,0,0,.042.851c.063.1.14.189.212.28a3.6,3.6,0,0,0,.6.587,7.711,7.711,0,0,0,3.755,1.518,14.042,14.042,0,0,0,3.3.057c.714-.069,1.425-.178,2.128-.317a1.824,1.824,0,0,0,.459-.138c.1-.047-.243.1-.154.064a2.268,2.268,0,0,1,.226-.077,3.244,3.244,0,0,1,.36-.082c.063-.011.213-.03-.071.008l.121-.013c.1-.01.208-.014.312-.016s.2,0,.3.007c.065,0,.419.049.159.011a4.683,4.683,0,0,1,.791.193c.066.022.131.046.2.071.223.084-.154-.07.071.028.143.063.281.134.419.208.287.155.539.354.813.527a7.538,7.538,0,0,0,2.964,1.021,4.718,4.718,0,0,0,1.907-.29,8.4,8.4,0,0,0,1.425-.638c.405-.228.765-.52,1.184-.731.068-.034.138-.066.207-.1.223-.1-.151.059.071-.028.127-.05.258-.092.389-.131s.244-.065.368-.092c.058-.012.117-.023.175-.033.156-.027-.184.018.058-.007a4.083,4.083,0,0,1,.6-.016c.086,0,.171.011.256.021.159.017-.22-.032-.067-.009.047.007.093.016.139.025a3.039,3.039,0,0,1,.326.083c.107.034.341.138-.007-.013a6.8,6.8,0,0,0,1.774.36,12.42,12.42,0,0,0,5.952-.4,5.955,5.955,0,0,0,2.471-1.582,1.064,1.064,0,0,0,.35-1.049l-.37-1.739-.39-1.834a.836.836,0,0,0-1.023-.581A.845.845,0,0,0,67.227,140.5Z" transform="translate(0 -78.043)" fill="#3d3935"/>
    <path id="Path_221" data-name="Path 221" d="M171.384,225.456l.114-3.03.279-7.419.35-9.3.327-8.684.209-5.559.031-.825a.831.831,0,0,0-1.663,0l-.114,3.03-.279,7.419q-.175,4.652-.35,9.3l-.327,8.684-.209,5.559-.031.825a.831.831,0,0,0,1.663,0ZM159.49,220.21l1.045-3.9,2.276-8.481,2.214-8.252.873-3.254a.832.832,0,1,0-1.6-.442l-1.045,3.9-2.276,8.481-2.214,8.252-.873,3.254a.832.832,0,0,0,1.6.442Zm19.659,5.246-.114-3.03-.279-7.419-.35-9.3q-.163-4.342-.327-8.684-.1-2.78-.209-5.559l-.031-.825a.831.831,0,0,0-1.663,0l.114,3.03.279,7.419.35,9.3.327,8.684q.1,2.78.209,5.559l.031.825a.831.831,0,0,0,1.663,0Zm11.835-5.688-1.045-3.9-2.276-8.481-2.214-8.252-.873-3.254a.832.832,0,1,0-1.6.442l1.046,3.9,2.275,8.481,2.214,8.252.873,3.254a.832.832,0,0,0,1.6-.442Z" transform="translate(-122.153 -157.756)" fill="#3d3935"/>
  </g>
</svg>
