<svg xmlns="http://www.w3.org/2000/svg" width="49.914" height="49.921" viewBox="0 0 49.914 49.921">
  <g id="saloos" transform="translate(-0.035 0)">
    <path id="Path_227" data-name="Path 227" d="M20.019,8.64,11.042,6.568V5.055A2.623,2.623,0,0,0,11.557.337,2.513,2.513,0,0,0,7.818,2.813.731.731,0,0,0,9.273,2.66a1.049,1.049,0,0,1,1.556-1.054,1.2,1.2,0,0,1-.638,2.175A.731.731,0,0,0,9.58,4.5V6.568L.6,8.64a.731.731,0,0,0,.329,1.425l3.015-.7L5.08,14.353a2.185,2.185,0,0,0-.64,1.554v3.815A74.535,74.535,0,0,0,1.932,32.138a.731.731,0,0,0,1.454.162A73.206,73.206,0,0,1,5.672,20.729a17.124,17.124,0,0,0,2.873.663,27.835,27.835,0,0,0-1.168,8.731.731.731,0,1,0,1.462-.039,26.427,26.427,0,0,1,1.2-8.581c.328.007.225.006.533,0a26.411,26.411,0,0,1,1.2,8.581.731.731,0,1,0,1.462.039,27.82,27.82,0,0,0-1.168-8.73,17.231,17.231,0,0,0,2.881-.664,73.778,73.778,0,0,1,2.7,18.834,21.263,21.263,0,0,1-14.7,0c.026-1.186.1-2.388.218-3.934a.731.731,0,0,0-1.458-.116A57.864,57.864,0,0,0,1.5,42.44a.732.732,0,0,0,.458.739,22.512,22.512,0,0,0,16.668.011.732.732,0,0,0,.449-.561,75.545,75.545,0,0,0-2.9-22.9V15.907a2.185,2.185,0,0,0-.64-1.553l1.134-4.985,3.015.7a.731.731,0,0,0,.329-1.425ZM2.956,41.994c-.007-.3-.011-.6-.013-.884a22.721,22.721,0,0,0,14.707,0q0,.445-.013.89A21.044,21.044,0,0,1,2.956,41.994ZM5.9,19.273V15.907a.739.739,0,0,1,.373-.644c.37-.214.517-.087,2.352.437,1.964.561,3.251.033,5.143-.508a.744.744,0,0,1,.948.715v3.367C11.369,20.23,9.881,20.41,5.9,19.273Zm8.285-5.563c-.548-.052-.746.055-2.6.583-2.27.648-3.856-.707-5.158-.583L5.371,9.04,10.31,7.9,15.25,9.04Zm35.2-5.07L40.408,6.568V5.055a2.726,2.726,0,0,0,1.762-2.25A2.513,2.513,0,0,0,38.429.337a2.543,2.543,0,0,0-1.245,2.476.731.731,0,0,0,1.455-.153,1.079,1.079,0,0,1,.52-1.055,1.05,1.05,0,0,1,1.555,1.063A1.339,1.339,0,0,1,39.557,3.78a.731.731,0,0,0-.612.721V6.568L29.968,8.64a.731.731,0,0,0,.329,1.425l2.9-.669.515,3.571a4.151,4.151,0,0,0-1.168,2.6,7.358,7.358,0,0,0,1.365,4.647,6.7,6.7,0,0,1,.5,4.064c-.326,1.746-1.532,2.1-2.167,7.389a29.854,29.854,0,0,0,0,6.575c.295,3.3.737,6.758,1.314,10.267a.731.731,0,0,0,.507.58,19.427,19.427,0,0,0,11.237,0,.731.731,0,0,0,.507-.58c.252-1.53.484-2.618.666-3.982a.731.731,0,0,0-1.45-.193c-.161,1.207-.359,2.167-.584,3.484a18,18,0,0,1-9.514,0c-.535-3.318-.948-6.581-1.226-9.706a28.55,28.55,0,0,1,0-6.273c.718-5.98,2.212-5.18,2.3-8.6a32.49,32.49,0,0,0,7.378.014c.087,3.343,1.593,2.739,2.3,8.593a35.133,35.133,0,0,1-.371,9.151.731.731,0,0,0,1.453.17,36.04,36.04,0,0,0,.37-9.5c-.636-5.3-1.841-5.641-2.167-7.388a6.7,6.7,0,0,1,.5-4.066,7.14,7.14,0,0,0,1.325-4.645A4.158,4.158,0,0,0,45.639,13l.52-3.6c3.144.725,2.944.688,3.063.688A.732.732,0,0,0,49.385,8.64Zm-13.507,13.1a8.059,8.059,0,0,0-.8-2.409A5.727,5.727,0,0,1,34,15.669a2.468,2.468,0,0,1,1.456-2.116,3.15,3.15,0,0,1,3.613,1.005.732.732,0,0,0,1.17,0,3.156,3.156,0,0,1,3.62-1.005,2.468,2.468,0,0,1,1.455,2.116,5.612,5.612,0,0,1-1.033,3.657,7.683,7.683,0,0,0-.807,2.43A30.069,30.069,0,0,1,35.878,21.745Zm8.4-9.592a4.668,4.668,0,0,0-4.628.88,4.657,4.657,0,0,0-4.587-.892l-.443-3.075L39.677,7.9l5.052,1.166Z" transform="translate(0 0)" fill="#3d3935"/>
    <path id="Path_228" data-name="Path 228" d="M213.762,37.74a.731.731,0,0,0,.811-.641,21.874,21.874,0,0,0-.695-8.6.731.731,0,0,0-1.4.407,20.414,20.414,0,0,1,.647,8.028A.731.731,0,0,0,213.762,37.74ZM201.046,23.782,199.117,23l-.784-1.929a.732.732,0,0,0-1.355,0L196.194,23l-1.929.784a.732.732,0,0,0,0,1.355l1.929.784.784,1.929a.732.732,0,0,0,1.355,0l.784-1.929,1.929-.784A.732.732,0,0,0,201.046,23.782Zm-3.39,1.851c-.378-.928-.257-.8-1.173-1.173.917-.373.8-.246,1.173-1.173.378.928.257.8,1.173,1.173C197.912,24.832,198.032,24.705,197.655,25.632ZM195.517,3.237l-1.929-.784L192.8.525a.732.732,0,0,0-1.355,0l-.784,1.929-1.929.784a.732.732,0,0,0,0,1.355l1.929.784.784,1.929a.732.732,0,0,0,1.355,0l.784-1.929,1.929-.784A.732.732,0,0,0,195.517,3.237Zm-3.39,1.851c-.377-.928-.257-.8-1.173-1.173.917-.373.8-.246,1.173-1.173.378.928.257.8,1.173,1.173C192.383,4.287,192.5,4.161,192.126,5.088Z" transform="translate(-169.891 -0.063)" fill="#3d3935"/>
  </g>
</svg>
