<svg xmlns="http://www.w3.org/2000/svg" width="51.83" height="46" viewBox="0 0 51.83 46">
  <g id="shoes" transform="translate(-161.915 -186.006)">
    <path id="Path_154" data-name="Path 154" d="M254.044,229.252a20.227,20.227,0,0,1-4.171-.476A26.121,26.121,0,0,1,237.96,222.6l-19.042-17.02a8.259,8.259,0,0,1-2.756-6.706,8.362,8.362,0,0,1,2.853-5.768l7.735-6.7a1.653,1.653,0,0,1,2.271.1l2.03,2.1a1.653,1.653,0,0,1-.041,2.343l-.287.276a2.019,2.019,0,0,0-.606,1.589c.415,6.552,5.656,8.576,8.743,9.2a1.889,1.889,0,0,0,2.09-1.25A4.8,4.8,0,0,1,245,197.7a.534.534,0,0,1,.567.443c2.688,13.565,10.33,21.146,14.646,24.458a3.053,3.053,0,0,1,1.2,2.489,2.982,2.982,0,0,1-1.235,2.4,10.2,10.2,0,0,1-6.131,1.756ZM227.833,187.11a.55.55,0,0,0-.362.135l-7.735,6.7a7.253,7.253,0,0,0-2.474,5,7.161,7.161,0,0,0,2.39,5.815l19.042,17.019A25.012,25.012,0,0,0,250.1,227.7c4.067.861,7.237.492,9.427-1.1a1.89,1.89,0,0,0,.781-1.522,1.963,1.963,0,0,0-.769-1.6,41.251,41.251,0,0,1-14.95-24.6,3.7,3.7,0,0,0-2.618,2.292,2.975,2.975,0,0,1-3.33,1.92c-3.4-.687-9.166-2.926-9.626-10.211a3.119,3.119,0,0,1,.943-2.455l.288-.276a.551.551,0,0,0,.012-.78l-2.03-2.1a.551.551,0,0,0-.4-.167Zm-.723-.282h.011Z" transform="translate(-47.665 0)" fill="#3d3935"/>
    <path id="Path_155" data-name="Path 155" d="M399.7,371.566a.551.551,0,0,1-.184-1.071l9.506-3.367a.552.552,0,0,1,.368,1.04l-9.506,3.367A.559.559,0,0,1,399.7,371.566Z" transform="translate(-208.519 -159.168)" fill="#3d3935"/>
    <path id="Path_156" data-name="Path 156" d="M446.389,410.5a.551.551,0,0,1-.149-1.082l6.309-1.772a.551.551,0,0,1,.3,1.062l-6.309,1.772A.522.522,0,0,1,446.389,410.5Z" transform="translate(-249.553 -194.791)" fill="#3d3935"/>
    <path id="Path_157" data-name="Path 157" d="M279.9,266.26H279.9c-15.7-.218-35.251-25.425-36.076-26.5a.551.551,0,1,1,.874-.672c.2.258,20.045,25.856,35.217,26.068a.551.551,0,0,1-.008,1.1Z" transform="translate(-71.889 -46.47)" fill="#3d3935"/>
    <path id="Path_158" data-name="Path 158" d="M188.416,357.933H162.477a.551.551,0,0,1-.551-.551V329.828a.551.551,0,0,1,.953-.378L188.818,357a.551.551,0,0,1-.4.929Zm-25.389-1.1H187.14l-24.113-25.614Z" transform="translate(-0.009 -125.927)" fill="#3d3935"/>
    <path id="Path_159" data-name="Path 159" d="M195.76,557.993H162.467a.551.551,0,1,1,0-1.1H195.76a.551.551,0,1,1,0,1.1Z" transform="translate(0 -325.987)" fill="#3d3935"/>
  </g>
</svg>
