<svg xmlns="http://www.w3.org/2000/svg" width="43.816" height="46.029" viewBox="0 0 43.816 46.029">
  <g id="spirit" transform="translate(-209.775 -204.093)">
    <path id="Path_174" data-name="Path 174" d="M236.393,219.519a4.012,4.012,0,0,0-1.265-2.972,4.054,4.054,0,0,0-2.972-1.2h-3.983a1.817,1.817,0,0,1-1.138-.443,1.524,1.524,0,0,1-.443-1.138v-1.012h.632a.6.6,0,0,0,.632-.632v-5.184a.6.6,0,0,0-.632-.632h-.632v-1.581a.6.6,0,0,0-.632-.632h-5.69a.6.6,0,0,0-.632.632v1.581h-.632a.6.6,0,0,0-.632.632v5.184a.6.6,0,0,0,.632.632h.632v1.075a1.566,1.566,0,0,1-1.581,1.581h-4.047a4.236,4.236,0,0,0-4.236,4.236v26.619a3.832,3.832,0,0,0,3.857,3.857h18.9a3.832,3.832,0,0,0,3.857-3.857Zm-25.355,7.335h6.576a.9.9,0,0,0,.379-.126,8.11,8.11,0,0,1,10.116,0,.9.9,0,0,0,.379.126h6.639V239.12h-6.259a1.178,1.178,0,0,0-.443.126,8.122,8.122,0,0,1-5.374,2.023,8,8,0,0,1-5.374-2.023.534.534,0,0,0-.443-.126h-6.259V226.854Zm9.8-21.56h4.426v.949h-4.426Zm-1.265,2.213h7.018v3.92h-6.954v-3.92Zm-5.627,9.042h4.047a2.834,2.834,0,0,0,2.845-2.845v-1.075h4.426v1.012a2.807,2.807,0,0,0,2.845,2.845h3.983a3.023,3.023,0,0,1,2.972,2.972v6.07h-6.26a9.484,9.484,0,0,0-11.381,0h-6.387v-6.07a2.942,2.942,0,0,1,2.908-2.908Zm18.588,32.182h-18.9a2.6,2.6,0,0,1-2.592-2.592v-5.754h6.006a9.639,9.639,0,0,0,6.006,2.213,9.161,9.161,0,0,0,6.006-2.213h6.07v5.754a2.564,2.564,0,0,1-2.592,2.592Z" fill="#3d3935"/>
    <path id="Path_175" data-name="Path 175" d="M442.633,226.82H429.988a1.325,1.325,0,0,0-.7.253.811.811,0,0,0-.253.632l1.138,32.878a1.755,1.755,0,0,0,1.834,1.581h3.667v6.259H431.7a.632.632,0,1,0,0,1.264h9.231a.632.632,0,1,0,0-1.264h-3.983v-6.259h3.667a1.754,1.754,0,0,0,1.834-1.581l1.138-32.878a.81.81,0,0,0-.253-.632A.947.947,0,0,0,442.633,226.82Zm-.316,1.265-.127,3.92a4.383,4.383,0,0,1-2.087.506,5.046,5.046,0,0,1-2.972-1.012,6.132,6.132,0,0,0-3.667-1.265,5.361,5.361,0,0,0-2.972.822l-.126-2.908h11.95Zm-1.138,32.436c0,.19-.253.379-.569.379h-8.536c-.316,0-.569-.19-.569-.379l-1.012-28.073a4.654,4.654,0,0,1,2.972-1.012,5.046,5.046,0,0,1,2.972,1.012,6.164,6.164,0,0,0,5.691.949Z" transform="translate(-189.991 -19.693)" fill="#3d3935"/>
    <path id="Path_176" data-name="Path 176" d="M452.494,323.275a1.113,1.113,0,0,0,.379-.822,1.019,1.019,0,0,0-.379-.822l-1.771-1.771a1.262,1.262,0,0,0-1.707,0l-1.771,1.771a1.262,1.262,0,0,0,0,1.707l1.771,1.771a1.223,1.223,0,0,0,.822.379,1.113,1.113,0,0,0,.822-.379Zm-4.363-.885,1.707-1.707,1.707,1.707-1.707,1.707Z" transform="translate(-205.479 -100.024)" fill="#3d3935"/>
    <path id="Path_177" data-name="Path 177" d="M477.223,360.643l-2.529-.379a1.133,1.133,0,0,0-.885.253.965.965,0,0,0-.443.759l-.379,2.529a1.133,1.133,0,0,0,.253.885.965.965,0,0,0,.759.443l2.529.379h.19a1.276,1.276,0,0,0,1.2-1.012l.379-2.529a1.133,1.133,0,0,0-.253-.885A2.08,2.08,0,0,0,477.223,360.643Zm-.633,3.667-2.4-.316.316-2.4,2.4.316Z" transform="translate(-228.057 -135.307)" fill="#3d3935"/>
    <path id="Path_178" data-name="Path 178" d="M482.534,286.419l-2.339-1.012a1.079,1.079,0,0,0-.885,0,1.23,1.23,0,0,0-.632.632l-.949,2.339a1.238,1.238,0,0,0,.632,1.581l2.339.949a1.077,1.077,0,0,0,.443.063,1.135,1.135,0,0,0,1.075-.759l.949-2.339a1.14,1.14,0,0,0-.633-1.454Zm-1.517,3.351-2.213-.949.949-2.213,2.213.949Z" transform="translate(-232.104 -70.377)" fill="#3d3935"/>
  </g>
</svg>
