<svg xmlns="http://www.w3.org/2000/svg" width="31.13" height="49.997" viewBox="0 0 31.13 49.997">
  <g id="Swimwear" transform="translate(59.971 -287.587)">
    <path id="Path_202" data-name="Path 202" d="M-55.789,287.608a.943.943,0,0,0-.85.947v5.557a4.726,4.726,0,0,0-.724.432,5.691,5.691,0,0,0-1.546,6.824c.442.942,1.427,2.8,2.34,5a21.925,21.925,0,0,1,1.811,6.81,12.18,12.18,0,0,1-1.783,6.142,64.046,64.046,0,0,0-3.37,6.532.944.944,0,0,0,.062.805.943.943,0,0,0,.662.462,17.858,17.858,0,0,1,8.092,3.524,9.2,9.2,0,0,1,3.719,6.1.943.943,0,0,0,.933.864c1.981-.007,1.789,0,3.774,0a.943.943,0,0,0,.933-.864,9.181,9.181,0,0,1,3.858-6.086,18.786,18.786,0,0,1,8.245-3.523.945.945,0,0,0,.669-.467.943.943,0,0,0,.055-.814,63.434,63.434,0,0,0-3.384-6.518,12.216,12.216,0,0,1-1.783-6.156,21.924,21.924,0,0,1,1.811-6.81c.913-2.2,1.9-4.058,2.34-5a5.691,5.691,0,0,0-1.546-6.824,4.878,4.878,0,0,0-.724-.432v-5.557a.943.943,0,0,0-.276-.671.942.942,0,0,0-.671-.276H-36.9a.943.943,0,0,0-.933.947v5.766a19.322,19.322,0,0,1-2.1,2.716c-1.333,1.443-3.088,2.726-4.429,2.73-1.357,0-3.144-1.283-4.5-2.73a18.6,18.6,0,0,1-2.117-2.716v-5.766a.943.943,0,0,0-.276-.671.942.942,0,0,0-.671-.276h-3.76q-.049,0-.1,0Zm1.045,1.88h1.866v5.139a.943.943,0,0,0,.139.5,23.5,23.5,0,0,0,2.493,3.19c1.5,1.6,3.5,3.347,5.877,3.342s4.349-1.761,5.822-3.356a23.543,23.543,0,0,0,2.451-3.175.944.944,0,0,0,.139-.5v-5.139h1.866v5.139a.943.943,0,0,0,.571.863,3.733,3.733,0,0,1,.863.516,3.8,3.8,0,0,1,1.031,4.568c-.384.818-1.428,2.768-2.382,5.07a23.134,23.134,0,0,0-1.95,7.451,13.943,13.943,0,0,0,1.992,7.117c1,1.912,2.07,3.719,2.883,5.543a20.443,20.443,0,0,0-7.952,3.426,11.184,11.184,0,0,0-4.039,6.532c-1.219,0-1.736,0-2.939,0a11.213,11.213,0,0,0-3.9-6.532,19.638,19.638,0,0,0-7.841-3.426c.813-1.824,1.879-3.645,2.883-5.557a13.918,13.918,0,0,0,2.006-7.1,23.158,23.158,0,0,0-1.964-7.451c-.954-2.3-2-4.251-2.382-5.07a3.8,3.8,0,0,1,1.031-4.568,3.718,3.718,0,0,1,.863-.515.944.944,0,0,0,.571-.864Z" transform="translate(0 0)" fill="#3d3935"/>
    <path id="Path_203" data-name="Path 203" d="M-58.394,288.372a1.233,1.233,0,0,0-1.1,1.235,19.15,19.15,0,0,0,2.805,10.449c1.453,2.205,4.8,10.164,5.026,15.9a17.986,17.986,0,0,1-2.2,8.4,90.707,90.707,0,0,0-4.182,8.891,1.407,1.407,0,0,0-.086.456v1.292a1.236,1.236,0,0,0,1.17,1.292,1.236,1.236,0,0,0,1.17-1.292v-1.007c1-2.775,2.591-5.526,3.976-8.434a20.557,20.557,0,0,0,2.478-9.708,40.345,40.345,0,0,0-5.473-17.287,16.79,16.79,0,0,1-2.358-8.815,1.366,1.366,0,0,0-.333-.986,1.11,1.11,0,0,0-.889-.382Zm27.83,0a1.251,1.251,0,0,0-1.084,1.368,16.791,16.791,0,0,1-2.358,8.814,40.344,40.344,0,0,0-5.473,17.287A20.557,20.557,0,0,0-37,325.549c1.384,2.908,2.971,5.659,3.976,8.434v1.007a1.236,1.236,0,0,0,1.17,1.292,1.236,1.236,0,0,0,1.17-1.292V333.7a1.407,1.407,0,0,0-.086-.456,90.7,90.7,0,0,0-4.165-8.891,17.986,17.986,0,0,1-2.2-8.4c.229-5.736,3.573-13.7,5.026-15.9a19.053,19.053,0,0,0,2.788-10.449,1.345,1.345,0,0,0-.384-.905,1.1,1.1,0,0,0-.855-.329Z" transform="translate(0 0)" fill="#3d3935"/>
  </g>
</svg>
