<svg xmlns="http://www.w3.org/2000/svg" width="50.959" height="50" viewBox="0 0 50.959 50">
  <g id="ten-cate" transform="translate(-0.184 -0.795)">
    <rect id="Rectangle_102" data-name="Rectangle 102" width="50" height="50" transform="translate(0.664 0.795)" fill="none"/>
    <path id="Path_222" data-name="Path 222" d="M4.211,21.679c-.985,4.808-3.031,14.8-3.8,18.535a2.543,2.543,0,0,0,1.6,2.891l18.541,6.953a2.542,2.542,0,0,0,3.279-1.5l2.843-7.744a.8.8,0,0,0-1.506-.553L22.325,48a.938.938,0,0,1-1.209.555L2.575,41.6a.937.937,0,0,1-.589-1.066L5.783,22a.8.8,0,0,0-1.572-.322Zm22.715,24.31.846,2.493a2.542,2.542,0,0,0,3.3,1.565l18.6-6.943a2.542,2.542,0,0,0,1.6-2.892c-.843-4.114-3.231-15.772-4.056-19.8a2.542,2.542,0,0,0-2.49-2.032H6.961a.8.8,0,0,0,0,1.6H44.722a.937.937,0,0,1,.918.749l4.056,19.8a.938.938,0,0,1-.59,1.067l-18.6,6.943a.938.938,0,0,1-1.216-.578l-.846-2.493a.8.8,0,1,0-1.52.516Z" transform="translate(-0.178 -8.503)" fill="#3d3935" fill-rule="evenodd"/>
    <path id="Path_223" data-name="Path 223" d="M13.772,30.547H53.164a.8.8,0,1,0,0-1.6H13.772a.8.8,0,1,0,0,1.6Z" transform="translate(-6.042 -13.417)" fill="#3d3935" fill-rule="evenodd"/>
    <path id="Path_224" data-name="Path 224" d="M49.844,29.939a20.473,20.473,0,0,1,.561,3.77.8.8,0,0,0,1.6-.04,22.6,22.6,0,0,0-.608-4.121.8.8,0,0,0-1.556.391Zm-30.915-.391a22.6,22.6,0,0,0-.608,4.121.8.8,0,0,0,1.6.04,20.473,20.473,0,0,1,.561-3.77.8.8,0,0,0-1.556-.391Zm19.268.2v3.379a.8.8,0,1,0,1.6,0V29.744a.8.8,0,1,0-1.6,0Zm-8.341-.357a8.907,8.907,0,0,0-.728,3.737.8.8,0,0,0,1.6,0,7.529,7.529,0,0,1,.561-3.022.8.8,0,0,0-1.437-.714Zm17.22,18.5L52.714,45.7a.8.8,0,0,0-.58-1.5L46.5,46.389a.8.8,0,1,0,.58,1.5Z" transform="translate(-8.531 -13.417)" fill="#3d3935" fill-rule="evenodd"/>
  </g>
</svg>
