<svg xmlns="http://www.w3.org/2000/svg" width="40.474" height="49.325" viewBox="0 0 40.474 49.325">
  <g id="Viz_a_Viz" data-name="Viz a Viz" transform="translate(-2.971 -0.993)">
    <path id="Path_217" data-name="Path 217" d="M42.259,50.317H4.157a1.143,1.143,0,0,1-1.121-1.524L13.077,23.422,8.595,4.707a1.1,1.1,0,0,1,.9-1.457l8.965-2.241a.56.56,0,0,1,.269,0H27.69a.56.56,0,0,1,.269,0L36.924,3.25a1.1,1.1,0,0,1,.829,1.322L33.271,23.287,43.379,48.793a1.143,1.143,0,0,1-1.053,1.524ZM5.793,48.076H40.623l-9.5-24.251a1.277,1.277,0,0,1,0-.65l4.236-17.93-7.8-1.995h-8.7L11.1,5.2l4.236,17.93a1.278,1.278,0,0,1,0,.65Z" transform="translate(0 0)" fill="#3d3935"/>
    <path id="Path_218" data-name="Path 218" d="M14.38,8.224a5.581,5.581,0,0,1-3.967-1.636A1.125,1.125,0,0,1,12,5a3.429,3.429,0,0,0,4.752,0,3.362,3.362,0,0,0,.986-2.376,1.121,1.121,0,0,1,2.241,0,5.581,5.581,0,0,1-5.6,5.6Zm8.965,15.689H14.38a1.121,1.121,0,0,1,0-2.241h8.965a1.121,1.121,0,1,1,0,2.241Z" transform="translate(8.828 0.63)" fill="#3d3935"/>
  </g>
</svg>
