<svg xmlns="http://www.w3.org/2000/svg" width="36.862" height="50" viewBox="0 0 36.862 50">
  <g id="womens" transform="translate(-9.146 -1)">
    <path id="Path_207" data-name="Path 207" d="M32.937,27.85a1.179,1.179,0,0,1-.808.313,1.439,1.439,0,0,1-1.054-.373A1,1,0,0,0,29.7,29.246a3.452,3.452,0,0,0,2.363.919l.146,0a3.144,3.144,0,0,0,2.213-.975,1,1,0,0,0-1.488-1.337ZM37.364,20.5a3.406,3.406,0,0,0-2.51.916,1,1,0,0,0,1.373,1.455,1.437,1.437,0,0,1,1.054-.373,1.178,1.178,0,0,1,.808.313,1,1,0,0,0,1.488-1.337A3.144,3.144,0,0,0,37.364,20.5Zm-10.74,0a3.49,3.49,0,0,0-2.506.917,1,1,0,0,0,1.375,1.452,1.47,1.47,0,0,1,1.05-.371,1.184,1.184,0,0,1,.81.313,1,1,0,1,0,1.487-1.337A3.141,3.141,0,0,0,26.624,20.5Z" transform="translate(-4.369 -4.471)" fill="#3d3935"/>
    <path id="Path_208" data-name="Path 208" d="M39.527,30.576a32.648,32.648,0,0,0,3.567-1.843.808.808,0,0,0,.381-.649c.029-.638.639-15.718-6.431-23.12A12.593,12.593,0,0,0,27.584,1C21.551,1,16.958,4.507,14.3,11.142c-2.809,7.012-2.737,16.153-1.5,17.337a11.829,11.829,0,0,0,3.34,1.848c-7,3.193-7,8.874-7,12.849v7.017A.807.807,0,0,0,9.952,51H45.2a.806.806,0,0,0,.806-.806V43.176C46.008,39.3,46,33.809,39.527,30.576Zm-25.581-3.24c-.628-1.27-.908-11.279,3.162-18.311C19.571,4.77,23.1,2.613,27.584,2.613a11.037,11.037,0,0,1,8.291,3.463c5.963,6.24,6.044,19.009,6,21.507a27.773,27.773,0,0,1-4.487,2.1,25.274,25.274,0,0,0-2.817-.794L33.4,26.677c2.629-2.547,4.591-6.276,4.591-9.19v-3.8a.807.807,0,0,0-.776-.806c-4.975-.189-8.5-1.291-13.469-4.212a.808.808,0,0,0-1.027.178,20.416,20.416,0,0,0-1.375,1.863c-.855,1.274-1.144,1.7-3.52,2.187a.807.807,0,0,0-.645.79V17.47a13.883,13.883,0,0,0,4.212,9.256L20.526,28.9q-1.084.245-2.034.542A14.665,14.665,0,0,1,13.946,27.336Zm13.579.645c-4.5,0-8.734-5.922-8.734-10.512V14.332a5.282,5.282,0,0,0,3.892-2.725c.24-.358.5-.75.849-1.2a26.818,26.818,0,0,0,12.845,4.046v3.033C36.377,21.536,31.543,27.982,27.525,27.982Zm5.636,1.688L31.922,33.6h-8.7l-1.252-3.981.707-1.777a8.225,8.225,0,0,0,4.844,1.75,7.888,7.888,0,0,0,4.626-1.827ZM16.147,49.387v-3.94a.806.806,0,0,0-1.613,0v3.94H10.759V43.176c0-4.431.01-9.877,8.759-12.357l-2.271,4.109a.807.807,0,0,0,.139.964l2.569,2.539-1.822,4.65a.807.807,0,0,0,.256.931l6.917,5.375Zm3.708-6.279,1.8-4.584a.806.806,0,0,0-.184-.868l-2.513-2.484,1.959-3.545,5.117,16.28Zm3.877-7.893h7.681L27.569,47.421Zm10.5-3.566,1.938,3.586-2.517,2.488a.806.806,0,0,0-.183.868l1.8,4.584-6.175,4.8ZM44.395,49.387H40.28v-3.94a.806.806,0,0,0-1.613,0v3.94H29.894l6.833-5.308a.805.805,0,0,0,.256-.931L35.161,38.5l2.57-2.54A.807.807,0,0,0,37.873,35l-2.262-4.185c.528.15,1.037.306,1.5.476l.03.011c7.245,2.656,7.25,7.712,7.25,11.873v6.211Z" fill="#3d3935"/>
  </g>
</svg>
